<svg
                width="55"
                height="55"
                xmlns="http://www.w3.org/2000/svg"
                viewBox="0 0 55 55"
                preserveAspectRatio="xMidYMid meet"
                class="iconSlack"
              >
                <g fill="none" fill-rule="evenodd">
                  <path d="M-13-13h80v80h-80z"></path>
                  <g fill-rule="nonzero">
                    <path
                      d="M35.552 3.598a4.886 4.886 0 0 0-6.104-3.11 4.865 4.865 0 0 0-3.118 6.086L38.849 44.95c.846 2.354 3.43 3.686 5.88 2.976 2.584-.756 4.144-3.465 3.297-5.952 0-.09-12.474-38.377-12.474-38.377z"
                      fill="#ECB32D"
                    ></path>
                    <path
                      d="M16.172 9.86a4.886 4.886 0 0 0-6.103-3.109 4.865 4.865 0 0 0-3.119 6.086l12.519 38.376c.846 2.355 3.43 3.687 5.88 2.976 2.585-.755 4.144-3.464 3.297-5.952 0-.088-12.474-38.376-12.474-38.376z"
                      fill="#63C1A0"
                    ></path>
                    <path
                      d="M51.323 35.356a4.865 4.865 0 0 0 3.119-6.085 4.886 4.886 0 0 0-6.104-3.11L9.801 38.689a4.814 4.814 0 0 0-2.985 5.863c.758 2.576 3.475 4.13 5.97 3.287.09 0 38.537-12.482 38.537-12.482z"
                      fill="#E01A59"
                    ></path>
                    <path
                      d="M17.82 46.239c2.495-.8 5.748-1.866 9.223-2.976-.802-2.488-1.872-5.73-2.985-9.195l-9.222 2.976 2.985 9.195z"
                      fill="#331433"
                    ></path>
                    <path
                      d="M37.245 39.931c3.475-1.11 6.727-2.176 9.222-2.976-.802-2.487-1.871-5.73-2.985-9.194l-9.222 2.976 2.985 9.194z"
                      fill="#D62027"
                    ></path>
                    <path
                      d="M44.997 16.035a4.865 4.865 0 0 0 3.118-6.085 4.886 4.886 0 0 0-6.103-3.11L3.52 19.322a4.814 4.814 0 0 0-2.985 5.863c.757 2.576 3.475 4.13 5.97 3.287.089 0 38.492-12.437 38.492-12.437z"
                      fill="#89D3DF"
                    ></path>
                    <path
                      d="M11.539 26.873c2.495-.8 5.747-1.866 9.222-2.976-1.114-3.465-2.183-6.707-2.985-9.195l-9.222 2.976 2.985 9.195z"
                      fill="#258B74"
                    ></path>
                    <path
                      d="M30.919 20.61c3.475-1.11 6.727-2.177 9.222-2.976-1.114-3.465-2.183-6.707-2.985-9.195l-9.222 2.976 2.985 9.195z"
                      fill="#819C3C"
                    ></path>
                  </g>
                </g>
              </svg>