<svg width="45" height="45" xmlns="http://www.w3.org/2000/svg" viewBox="0 0 45 45" preserveAspectRatio="xMidYMid meet" class="iconTrello"><defs><linearGradient x1="50.032%" y1="100.016%" x2="50.032%" y2="0%" id="aicontrello"><stop stop-color="#0052CC" offset="18%"></stop><stop stop-color="#2684FF" offset="100%"></stop></linearGradient></defs><g fill="none" fill-rule="evenodd"><path d="M-18-18h80v80h-80z"></path><path d="M57.4 18H23.629A5.627 5.627 0 0 0 18 23.625v33.75A5.627 5.627 0 0 0 23.629 63H57.4a5.627 5.627 0 0 0 5.6-5.625v-33.75A5.627 5.627 0 0 0 57.4 18zM37.586 52.086a2.7 2.7 0 0 1-2.7 2.67H26.57a2.7 2.7 0 0 1-2.714-2.67V26.552a2.697 2.697 0 0 1 2.714-2.699h8.315a2.7 2.7 0 0 1 2.7 2.699v25.534zm19.593-11.25a2.7 2.7 0 0 1-2.7 2.698h-8.336a2.7 2.7 0 0 1-2.7-2.698V26.559a2.697 2.697 0 0 1 2.7-2.706h8.336a2.7 2.7 0 0 1 2.7 2.699v14.284z" fill="url(#aicontrello)" fill-rule="nonzero" transform="translate(-18 -18)"></path></g></svg>