<?xml version="1.0" encoding="utf-8"?>
<!-- Generator: Adobe Illustrator 16.0.0, SVG Export Plug-In . SVG Version: 6.00 Build 0)  -->
<!DOCTYPE svg PUBLIC "-//W3C//DTD SVG 1.1//EN" "http://www.w3.org/Graphics/SVG/1.1/DTD/svg11.dtd">
<svg version="1.1" id="Isolation_Mode" xmlns="http://www.w3.org/2000/svg" xmlns:xlink="http://www.w3.org/1999/xlink" x="0px"
	 y="0px" width="1000px" height="1000px" viewBox="0 0 1000 1000" enable-background="new 0 0 1000 1000" xml:space="preserve">
<path fill-rule="evenodd" clip-rule="evenodd" d="M278.722,761.965c-13.684,0.104-23.056-4.832-31.226-13.016
	c-63.58-63.688-127.241-127.295-190.88-190.923c-9.646-9.646-19.323-19.261-28.963-28.911
	c-16.723-16.743-16.903-40.766-0.125-57.572c73.589-73.713,147.231-147.376,220.921-220.99
	c16.504-16.488,40.396-16.769,57.046-0.372c29.33,28.887,58.459,57.979,87.432,87.222c16.41,16.563,16.624,40.601,1.066,56.498
	c-15.626,15.967-40.173,15.638-57.119-0.987c-11.977-11.75-23.661-23.799-35.547-35.641c-15.439-15.382-32.297-15.656-47.55-0.46
	c-40.151,39.995-80.225,80.069-120.216,120.224c-14.985,15.048-14.566,31.808,0.566,46.916
	c39.364,39.304,78.682,78.654,117.994,118.01c16.862,16.88,32.851,17.29,49.772,0.415c73.164-72.968,146.18-146.082,219.242-219.149
	c57.299-57.304,114.549-114.657,171.907-171.904c17.962-17.929,41.438-17.75,59.348,0.151
	c72.358,72.334,144.715,144.672,217.06,217.02c20.628,20.628,20.716,42.597,0.15,63.184
	c-71.394,71.473-142.941,142.79-214.146,214.45c-13.688,13.774-28.711,19.951-47.474,13.087c-4.543-1.662-9.061-4.499-12.5-7.901
	c-30.201-29.871-60.372-59.778-90.107-90.112c-21.032-21.456-12.089-56.93,16.344-65.302c14.576-4.293,28.119-1.354,39.244,9.588
	c12.714,12.504,25.262,25.176,37.904,37.753c15.286,15.207,32.169,15.353,47.502,0.072c40.504-40.373,80.926-80.829,121.309-121.325
	c12.87-12.909,13.518-29.782,0.611-42.85c-41.118-41.63-82.467-83.038-124.104-124.149c-13.448-13.278-30.673-12.545-44.109,0.883
	c-69.905,69.864-139.689,139.851-209.577,209.734C429.14,626.965,367.686,688.224,306.32,749.571
	C298.109,757.78,288.521,762.336,278.722,761.965z"/>
</svg>
