<svg width="65" height="65" viewBox="0 0 65 65" fill="none" xmlns="http://www.w3.org/2000/svg">
<g clip-path="url(#clip0)">
<path d="M46.582 28.1667H34.6654C34.0674 28.1667 33.582 27.6824 33.582 27.0833V14.0833C33.582 13.4843 34.0674 13 34.6654 13H46.582C47.18 13 47.6654 13.4843 47.6654 14.0833V27.0833C47.6654 27.6824 47.18 28.1667 46.582 28.1667ZM35.7487 26H45.4987V15.1667H35.7487V26Z" fill="#006ADA"/>
<path d="M30.332 46.5846H18.4154C17.8174 46.5846 17.332 46.1004 17.332 45.5013V32.5013C17.332 31.9022 17.8174 31.418 18.4154 31.418H30.332C30.93 31.418 31.4154 31.9022 31.4154 32.5013V45.5013C31.4154 46.1004 30.93 46.5846 30.332 46.5846ZM19.4987 44.418H29.2487V33.5846H19.4987V44.418Z" fill="#006ADA"/>
<path d="M24.9154 15.1667H18.4154C17.8174 15.1667 17.332 14.6824 17.332 14.0833C17.332 13.4843 17.8174 13 18.4154 13H24.9154C25.5134 13 25.9987 13.4843 25.9987 14.0833C25.9987 14.6824 25.5134 15.1667 24.9154 15.1667Z" fill="#006ADA"/>
<path d="M30.332 19.4987H18.4154C17.8174 19.4987 17.332 19.0144 17.332 18.4154C17.332 17.8163 17.8174 17.332 18.4154 17.332H30.332C30.93 17.332 31.4154 17.8163 31.4154 18.4154C31.4154 19.0144 30.93 19.4987 30.332 19.4987Z" fill="#006ADA"/>
<path d="M30.332 23.8346H18.4154C17.8174 23.8346 17.332 23.3504 17.332 22.7513C17.332 22.1522 17.8174 21.668 18.4154 21.668H30.332C30.93 21.668 31.4154 22.1522 31.4154 22.7513C31.4154 23.3504 30.93 23.8346 30.332 23.8346Z" fill="#006ADA"/>
<path d="M30.332 28.1667H18.4154C17.8174 28.1667 17.332 27.6824 17.332 27.0833C17.332 26.4842 17.8174 26 18.4154 26H30.332C30.93 26 31.4154 26.4842 31.4154 27.0833C31.4154 27.6824 30.93 28.1667 30.332 28.1667Z" fill="#006ADA"/>
<path d="M46.5833 33.5846H40.0833C39.4853 33.5846 39 33.1004 39 32.5013C39 31.9022 39.4853 31.418 40.0833 31.418H46.5833C47.1813 31.418 47.6667 31.9022 47.6667 32.5013C47.6667 33.1004 47.1813 33.5846 46.5833 33.5846Z" fill="#006ADA"/>
<path d="M46.582 37.9167H34.6654C34.0674 37.9167 33.582 37.4324 33.582 36.8333C33.582 36.2342 34.0674 35.75 34.6654 35.75H46.582C47.18 35.75 47.6654 36.2342 47.6654 36.8333C47.6654 37.4324 47.18 37.9167 46.582 37.9167Z" fill="#006ADA"/>
<path d="M46.582 42.2487H34.6654C34.0674 42.2487 33.582 41.7644 33.582 41.1654C33.582 40.5663 34.0674 40.082 34.6654 40.082H46.582C47.18 40.082 47.6654 40.5663 47.6654 41.1654C47.6654 41.7644 47.18 42.2487 46.582 42.2487Z" fill="#006ADA"/>
<path d="M46.582 46.5846H34.6654C34.0674 46.5846 33.582 46.1004 33.582 45.5013C33.582 44.9022 34.0674 44.418 34.6654 44.418H46.582C47.18 44.418 47.6654 44.9022 47.6654 45.5013C47.6654 46.1004 47.18 46.5846 46.582 46.5846Z" fill="#006ADA"/>
<path d="M35.7513 7.58464H29.2513C28.6533 7.58464 28.168 7.10039 28.168 6.5013C28.168 5.90222 28.6533 5.41797 29.2513 5.41797H35.7513C36.3493 5.41797 36.8346 5.90222 36.8346 6.5013C36.8346 7.10039 36.3493 7.58464 35.7513 7.58464Z" fill="#006ADA"/>
<path d="M48.7522 64.9987H16.2478C14.4571 64.9987 13 63.5416 13 61.7509V50.9154C13 50.3163 13.4853 49.832 14.0833 49.832H50.9167C51.5147 49.832 52 50.3163 52 50.9154V61.7509C52 63.5416 50.5429 64.9987 48.7522 64.9987ZM15.1667 51.9987V61.7509C15.1667 62.3478 15.652 62.832 16.2478 62.832H48.7522C49.348 62.832 49.8333 62.3478 49.8333 61.7509V51.9987H15.1667Z" fill="#006ADA"/>
<path d="M32.5013 61.7487C30.1115 61.7487 28.168 59.8052 28.168 57.4154C28.168 55.0255 30.1115 53.082 32.5013 53.082C34.8911 53.082 36.8346 55.0255 36.8346 57.4154C36.8346 59.8052 34.8911 61.7487 32.5013 61.7487ZM32.5013 55.2487C31.3064 55.2487 30.3346 56.2204 30.3346 57.4154C30.3346 58.6103 31.3064 59.582 32.5013 59.582C33.6962 59.582 34.668 58.6103 34.668 57.4154C34.668 56.2204 33.6962 55.2487 32.5013 55.2487Z" fill="#006ADA"/>
<path d="M48.7522 65H16.2478C14.4571 65 13 63.5429 13 61.7522V3.25217C13 1.45925 14.4582 0 16.2511 0H48.7478C50.5408 0 52 1.45925 52 3.25217V61.7522C52 63.5429 50.5429 65 48.7522 65ZM16.2511 2.16667C15.6531 2.16667 15.1667 2.65308 15.1667 3.25217V61.7522C15.1667 62.3491 15.652 62.8333 16.2478 62.8333H48.7522C49.348 62.8333 49.8333 62.3491 49.8333 61.7522V3.25217C49.8333 2.65308 49.3469 2.16667 48.7478 2.16667H16.2511Z" fill="#006ADA"/>
</g>
<defs>
<clipPath id="clip0">
<rect width="65" height="65" fill="white"/>
</clipPath>
</defs>
</svg>
