<svg width="67" height="67" viewBox="0 0 67 67" fill="none" xmlns="http://www.w3.org/2000/svg">
<path d="M56.6926 5.1539H47.6734V3.86545C47.6734 3.15397 47.0965 2.57701 46.385 2.57701H38.6524C37.4443 0.970846 35.5329 0 33.5003 0C31.4677 0 29.5563 0.970846 28.3482 2.57688H20.6156C19.9042 2.57688 19.3272 3.15384 19.3272 3.86532V5.15377H10.308C9.59649 5.15377 9.01953 5.73072 9.01953 6.44221V65.7114C9.01953 66.4229 9.59649 66.9999 10.308 66.9999H56.6926C57.4041 66.9999 57.9811 66.4229 57.9811 65.7114V6.44234C57.9811 5.73086 57.4041 5.1539 56.6926 5.1539ZM21.9042 5.1539H29.0377C29.4976 5.1539 29.9226 4.9088 30.1529 4.51072C30.8432 3.31794 32.1258 2.57701 33.5003 2.57701C34.8749 2.57701 36.1575 3.31807 36.8476 4.51072C37.0777 4.9088 37.5029 5.1539 37.9627 5.1539H45.0964V10.3078H21.9042V5.1539ZM55.4042 59.2692H48.9619C48.2504 59.2692 47.6734 59.8462 47.6734 60.5577C47.6734 61.2691 48.2504 61.8461 48.9619 61.8461H55.4042V64.423H11.5964V7.73078H19.3272V11.5961C19.3272 12.3076 19.9042 12.8845 20.6156 12.8845H46.3849C47.0963 12.8845 47.6733 12.3076 47.6733 11.5961V7.73078H55.4041V59.2692H55.4042Z" fill="#006ADA"/>
<path d="M26.5831 17.0405C26.0319 16.5905 25.2203 16.6723 24.7702 17.2235L19.4811 23.7L16.4788 19.8263C16.0429 19.2638 15.2335 19.1611 14.6711 19.5971C14.1087 20.033 14.0061 20.8424 14.442 21.4048L18.4362 26.5587C18.6767 26.869 19.0455 27.0527 19.438 27.0577C19.4435 27.0577 19.4492 27.0577 19.4545 27.0577C19.8411 27.0577 20.2076 26.884 20.4525 26.5842L26.7659 18.8535C27.2161 18.3024 27.1343 17.4907 26.5831 17.0405Z" fill="#006ADA"/>
<path d="M51.5366 18.0391H30.9213C30.2098 18.0391 29.6328 18.616 29.6328 19.3275C29.6328 20.039 30.2098 20.6159 30.9213 20.6159H51.5366C52.2481 20.6159 52.825 20.039 52.825 19.3275C52.825 18.616 52.2481 18.0391 51.5366 18.0391Z" fill="#006ADA"/>
<path d="M38.652 23.1914H30.9213C30.2098 23.1914 29.6328 23.7684 29.6328 24.4798C29.6328 25.1913 30.2098 25.7683 30.9213 25.7683H38.652C39.3635 25.7683 39.9405 25.1913 39.9405 24.4798C39.9405 23.7684 39.3635 23.1914 38.652 23.1914Z" fill="#006ADA"/>
<path d="M26.5831 32.5015C26.0319 32.0514 25.2203 32.1332 24.7702 32.6844L19.4811 39.1609L16.4788 35.2872C16.0429 34.7248 15.2335 34.622 14.6711 35.0581C14.1087 35.494 14.0061 36.3033 14.442 36.8658L18.4362 42.0197C18.6767 42.3299 19.0455 42.5137 19.438 42.5186C19.4435 42.5186 19.4492 42.5186 19.4545 42.5186C19.8411 42.5186 20.2076 42.345 20.4525 42.0452L26.7659 34.3144C27.2161 33.7632 27.1343 32.9515 26.5831 32.5015Z" fill="#006ADA"/>
<path d="M51.5366 33.5H30.9213C30.2098 33.5 29.6328 34.077 29.6328 34.7884C29.6328 35.4999 30.2098 36.0769 30.9213 36.0769H51.5366C52.2481 36.0769 52.825 35.4999 52.825 34.7884C52.825 34.077 52.2481 33.5 51.5366 33.5Z" fill="#006ADA"/>
<path d="M38.652 38.6523H30.9213C30.2098 38.6523 29.6328 39.2293 29.6328 39.9408C29.6328 40.6523 30.2098 41.2292 30.9213 41.2292H38.652C39.3635 41.2292 39.9405 40.6523 39.9405 39.9408C39.9405 39.2293 39.3635 38.6523 38.652 38.6523Z" fill="#006ADA"/>
<path d="M26.5831 47.9624C26.0319 47.5124 25.2203 47.5942 24.7702 48.1453L19.4811 54.6218L16.4788 50.7481C16.0429 50.1857 15.2335 50.083 14.6711 50.519C14.1087 50.9549 14.0061 51.7643 14.442 52.3267L18.4362 57.4806C18.6767 57.7909 19.0455 57.9746 19.438 57.9795C19.4435 57.9795 19.4492 57.9795 19.4545 57.9795C19.8411 57.9795 20.2076 57.8059 20.4525 57.5061L26.7659 49.7753C27.2161 49.2241 27.1343 48.4124 26.5831 47.9624Z" fill="#006ADA"/>
<path d="M51.5366 48.9609H30.9213C30.2098 48.9609 29.6328 49.5379 29.6328 50.2494C29.6328 50.9609 30.2098 51.5378 30.9213 51.5378H51.5366C52.2481 51.5378 52.825 50.9609 52.825 50.2494C52.825 49.5379 52.2481 48.9609 51.5366 48.9609Z" fill="#006ADA"/>
<path d="M38.652 54.1172H30.9213C30.2098 54.1172 29.6328 54.6941 29.6328 55.4056C29.6328 56.1171 30.2098 56.6941 30.9213 56.6941H38.652C39.3635 56.6941 39.9405 56.1171 39.9405 55.4056C39.9405 54.6943 39.3635 54.1172 38.652 54.1172Z" fill="#006ADA"/>
<path d="M46.0078 59.6471C45.7683 59.4073 45.4358 59.2695 45.097 59.2695C44.7581 59.2695 44.4257 59.4073 44.1861 59.6471C43.9465 59.8868 43.8086 60.2192 43.8086 60.558C43.8086 60.8968 43.9464 61.2293 44.1861 61.4688C44.4257 61.7084 44.7582 61.8464 45.097 61.8464C45.436 61.8464 45.7683 61.7085 46.0078 61.4688C46.2476 61.2293 46.3855 60.8968 46.3855 60.558C46.3855 60.2192 46.2476 59.8867 46.0078 59.6471Z" fill="#006ADA"/>
</svg>
