<svg width="100" height="100" viewBox="0 0 100 100" fill="none" xmlns="http://www.w3.org/2000/svg">
<path d="M87.5 66.6685V33.3352C87.4985 31.8738 87.1127 30.4386 86.3814 29.1734C85.6501 27.9082 84.5989 26.8575 83.3333 26.1269L54.1667 9.4602C52.8998 8.7288 51.4628 8.34375 50 8.34375C48.5372 8.34375 47.1002 8.7288 45.8333 9.4602L16.6667 26.1269C15.4011 26.8575 14.3499 27.9082 13.6186 29.1734C12.8873 30.4386 12.5015 31.8738 12.5 33.3352V66.6685C12.5015 68.1299 12.8873 69.5652 13.6186 70.8304C14.3499 72.0956 15.4011 73.1462 16.6667 73.8769L45.8333 90.5435C47.1002 91.2749 48.5372 91.66 50 91.66C51.4628 91.66 52.8998 91.2749 54.1667 90.5435L83.3333 73.8769C84.5989 73.1462 85.6501 72.0956 86.3814 70.8304C87.1127 69.5652 87.4985 68.1299 87.5 66.6685Z" stroke="#006ADA" stroke-width="3" stroke-linecap="round" stroke-linejoin="round"/>
<path d="M31.25 17.543L50 28.3763L68.75 17.543" stroke="#006ADA" stroke-width="3" stroke-linecap="round" stroke-linejoin="round"/>
<path d="M31.25 82.4583V60.8333L12.5 50" stroke="#006ADA" stroke-width="3" stroke-linecap="round" stroke-linejoin="round"/>
<path d="M87.5 50L68.75 60.8333V82.4583" stroke="#006ADA" stroke-width="3" stroke-linecap="round" stroke-linejoin="round"/>
<path d="M13.625 29L50 50.0417L86.375 29" stroke="#006ADA" stroke-width="3" stroke-linecap="round" stroke-linejoin="round"/>
<path d="M50 92V50" stroke="#006ADA" stroke-width="3" stroke-linecap="round" stroke-linejoin="round"/>
</svg>
