<svg width="109" height="109" viewBox="0 0 109 109" fill="none" xmlns="http://www.w3.org/2000/svg">
<path d="M62.9281 11.4961L28.6356 11.4961C26.3619 11.4961 24.1813 12.3993 22.5735 14.0071C20.9657 15.6149 20.0625 17.7955 20.0625 20.0692L20.0625 88.6541C20.0625 90.9278 20.9657 93.1084 22.5735 94.7162C24.1813 96.324 26.3619 97.2272 28.6356 97.2272L80.0743 97.2272C82.348 97.2272 84.5286 96.324 86.1364 94.7162C87.7442 93.1084 88.6474 90.9278 88.6474 88.6541L88.6474 37.2154L62.9281 11.4961Z" stroke="#006ADA" stroke-width="3" stroke-linecap="round" stroke-linejoin="round"/>
<path d="M62.9414 11.4961L62.9414 37.2154L88.6607 37.2154" stroke="#006ADA" stroke-width="3" stroke-linecap="round" stroke-linejoin="round"/>
<path d="M71.5151 58.6367L37.2227 58.6367" stroke="#006ADA" stroke-width="3" stroke-linecap="round" stroke-linejoin="round"/>
<path d="M71.5151 75.7969L37.2227 75.7969" stroke="#006ADA" stroke-width="3" stroke-linecap="round" stroke-linejoin="round"/>
<path d="M45.7958 41.4961L41.5092 41.4961L37.2227 41.4961" stroke="#006ADA" stroke-width="3" stroke-linecap="round" stroke-linejoin="round"/>
</svg>
