<svg width="58" height="58" viewBox="0 0 58 58" fill="none" xmlns="http://www.w3.org/2000/svg">
<path d="M56.1875 0.339844V19.264L54.375 18.3578V0.339844H52.5625V18.4648L51.6562 19.1445L50.75 18.4648V0.339844H48.9375V18.3578L47.125 19.264V0.339844H45.3125V20.9933L51.6562 31.0373L58 20.9933V0.339844H56.1875ZM51.6562 27.6424L49.8663 24.8086H53.4462L51.6562 27.6424ZM54.5905 22.9961H48.722L47.5202 21.0929L49.753 19.9791L51.6562 21.4102L53.5595 19.9791L55.7923 21.0929L54.5905 22.9961Z" fill="#006ADA"/>
<path d="M25.5742 20.2773L22.4023 32.9648H35.5987L32.4268 20.2773H25.5742ZM24.7237 31.1523L26.9893 22.0898H31.0117L33.2773 31.1523H24.7237Z" fill="#006ADA"/>
<path d="M35.3438 11.9786V5.77734H38.9688V3.96484H35.3438V0.339844H33.5312V3.96484H24.4688V0.339844H22.6562V3.96484H19.0312V5.77734H22.6562V11.9786L19.9645 20.2773H7.25V16.6523H5.4375V20.2773H0V22.0898H5.4375V31.1523H0V32.9648H5.4375V36.5898H7.25V32.9648H15.8492L9.96875 51.0898H5.4375V52.9023H9.38332L8.00491 57.1535L9.7267 57.7137L11.2892 52.9023H16.9232L15.7001 57.1845L17.4435 57.6827L18.8091 52.9023H23.5625V51.0898H19.3268L22.4332 40.2148H35.5668L38.6732 51.0898H34.4375V52.9023H39.1909L40.5565 57.6827L42.2999 57.1845L41.0768 52.9023H46.7108L48.2715 57.7137L49.9933 57.1535L48.6167 52.9023H52.5625V51.0898H48.0312L35.3438 11.9786ZM24.4688 5.77734H33.5312V11.2148H24.4688V5.77734ZM7.25 31.1523V22.0898H19.3764L16.4377 31.1523H7.25ZM17.4409 51.0898H11.8764L13.3464 46.5586H18.7357L17.4409 51.0898ZM38.7457 44.7461L36.9332 38.4023H21.0668L19.2543 44.7461H13.9345L24.2214 13.0273H33.7786L44.0655 44.7461H38.7457ZM40.5582 51.0898L39.2635 46.5586H44.6527L46.128 51.0898H40.5582Z" fill="#006ADA"/>
</svg>
