<svg width="100" height="100" viewBox="0 0 100 100" fill="none" xmlns="http://www.w3.org/2000/svg">
<path d="M70.8346 87.5V79.1667C70.8346 74.7464 69.0787 70.5072 65.9531 67.3816C62.8275 64.256 58.5882 62.5 54.168 62.5H20.8346C16.4144 62.5 12.1751 64.256 9.04952 67.3816C5.92392 70.5072 4.16797 74.7464 4.16797 79.1667V87.5" stroke="#006ADA" stroke-width="3" stroke-linecap="round" stroke-linejoin="round"/>
<path d="M37.4987 45.8333C46.7034 45.8333 54.1654 38.3714 54.1654 29.1667C54.1654 19.9619 46.7034 12.5 37.4987 12.5C28.294 12.5 20.832 19.9619 20.832 29.1667C20.832 38.3714 28.294 45.8333 37.4987 45.8333Z" stroke="#006ADA" stroke-width="3" stroke-linecap="round" stroke-linejoin="round"/>
<path d="M95.832 87.5013V79.168C95.8293 75.4752 94.6002 71.8879 92.3377 68.9693C90.0753 66.0507 86.9076 63.9662 83.332 63.043" stroke="#006ADA" stroke-width="3" stroke-linecap="round" stroke-linejoin="round"/>
<path d="M66.668 13.043C70.253 13.9609 73.4306 16.0459 75.6998 18.9693C77.969 21.8926 79.2006 25.4881 79.2006 29.1888C79.2006 32.8895 77.969 36.485 75.6998 39.4083C73.4306 42.3317 70.253 44.4167 66.668 45.3346" stroke="#006ADA" stroke-width="3" stroke-linecap="round" stroke-linejoin="round"/>
</svg>
