<svg width="63" height="63" viewBox="0 0 63 63" fill="none" xmlns="http://www.w3.org/2000/svg">
<path d="M24.8553 44.1481C24.6173 44.1481 24.3776 44.0663 24.182 43.8997L17.4516 38.1687C17.2194 37.9708 17.0859 37.6818 17.0859 37.3765C17.0859 37.0717 17.22 36.7827 17.4516 36.5848L24.182 30.8538C24.6191 30.4812 25.2755 30.534 25.6481 30.9711C26.0202 31.4087 25.968 32.0651 25.5303 32.4372L19.7303 37.3765L25.5303 42.3158C25.968 42.6884 26.0202 43.3448 25.6481 43.7819C25.4421 44.0239 25.1496 44.1481 24.8553 44.1481Z" fill="#006ADA"/>
<path d="M38.1422 44.1481C37.8479 44.1481 37.5554 44.0239 37.3499 43.7819C36.9773 43.3448 37.0301 42.6884 37.4672 42.3158L43.2672 37.3765L37.4672 32.4372C37.0301 32.0651 36.9773 31.4087 37.3499 30.9711C37.722 30.534 38.379 30.4812 38.8154 30.8538L45.5459 36.5848C45.778 36.7827 45.9115 37.0717 45.9115 37.3765C45.9115 37.6818 45.778 37.9708 45.5459 38.1687L38.8154 43.8997C38.6198 44.0663 38.3801 44.1481 38.1422 44.1481Z" fill="#006ADA"/>
<path d="M29.116 48.4494C29.0446 48.4494 28.9726 48.4419 28.9 48.4268C28.3382 48.3084 27.9784 47.7564 28.0968 47.1946L32.2914 27.279C32.4098 26.7171 32.9612 26.3573 33.5236 26.4757C34.0854 26.5941 34.4453 27.1455 34.3269 27.7079L30.1323 47.6235C30.0289 48.1133 29.5971 48.4494 29.116 48.4494Z" fill="#006ADA"/>
<path d="M56.0165 59.2984H6.98349C3.13305 59.2984 0 56.1659 0 52.3149V10.6983C0 6.8479 3.13305 3.71484 6.98349 3.71484H56.0165C59.8669 3.71484 63 6.8479 63 10.6983V52.3149C63 56.1659 59.8669 59.2984 56.0165 59.2984ZM6.98349 5.79503C4.27994 5.79503 2.08019 7.99479 2.08019 10.6983V52.3149C2.08019 55.0184 4.27994 57.2182 6.98349 57.2182H56.0165C58.7201 57.2182 60.9198 55.0184 60.9198 52.3149V10.6983C60.9198 7.99479 58.7201 5.79503 56.0165 5.79503H6.98349Z" fill="#006ADA"/>
<path d="M61.9599 20.3692H1.04009C0.465489 20.3692 0 19.9038 0 19.3292C0 18.7551 0.465489 18.2891 1.04009 18.2891H61.9599C62.5345 18.2891 63 18.7551 63 19.3292C63 19.9038 62.5345 20.3692 61.9599 20.3692Z" fill="#006ADA"/>
<path d="M17.772 15.3916C15.9576 15.3916 14.4805 13.9145 14.4805 12.1001C14.4805 10.2852 15.9576 8.80859 17.772 8.80859C19.5869 8.80859 21.0635 10.2852 21.0635 12.1001C21.0635 13.9145 19.5869 15.3916 17.772 15.3916ZM17.772 10.8888C17.1045 10.8888 16.5607 11.432 16.5607 12.1001C16.5607 12.7681 17.1045 13.3114 17.772 13.3114C18.44 13.3114 18.9833 12.7681 18.9833 12.1001C18.9833 11.432 18.44 10.8888 17.772 10.8888Z" fill="#006ADA"/>
<path d="M7.65869 15.3604C5.84375 15.3604 4.36719 13.8838 4.36719 12.0688C4.36719 10.2539 5.84375 8.77734 7.65869 8.77734C9.47363 8.77734 10.9502 10.2539 10.9502 12.0688C10.9502 13.8838 9.47363 15.3604 7.65869 15.3604ZM7.65869 10.8575C6.99122 10.8575 6.44738 11.4014 6.44738 12.0688C6.44738 12.7369 6.99122 13.2802 7.65869 13.2802C8.32674 13.2802 8.87001 12.7369 8.87001 12.0688C8.87001 11.4014 8.32674 10.8575 7.65869 10.8575Z" fill="#006ADA"/>
<path d="M27.8847 15.4223C26.0703 15.4223 24.5938 13.9457 24.5938 12.1308C24.5938 10.3164 26.0703 8.83984 27.8847 8.83984C29.6996 8.83984 31.1762 10.3164 31.1762 12.1308C31.1762 13.9457 29.6996 15.4223 27.8847 15.4223ZM27.8847 10.9195C27.2172 10.9195 26.6739 11.4627 26.6739 12.1308C26.6739 12.7988 27.2172 13.3421 27.8847 13.3421C28.5527 13.3421 29.096 12.7988 29.096 12.1308C29.096 11.4627 28.5527 10.9195 27.8847 10.9195Z" fill="#006ADA"/>
</svg>
