<?xml version="1.0" encoding="utf-8"?>
<!-- Generator: Adobe Illustrator 16.0.0, SVG Export Plug-In . SVG Version: 6.00 Build 0)  -->
<!DOCTYPE svg PUBLIC "-//W3C//DTD SVG 1.0//EN" "http://www.w3.org/TR/2001/REC-SVG-20010904/DTD/svg10.dtd">
<svg version="1.0" id="Layer_1" xmlns="http://www.w3.org/2000/svg" xmlns:xlink="http://www.w3.org/1999/xlink" x="0px" y="0px"
	 width="75px" height="75px" viewBox="0 0 75 75" enable-background="new 0 0 75 75" xml:space="preserve">
<g>
	<path d="M45.579,10.634l2.937-4.903c0.334-0.558,0.156-1.275-0.401-1.615c-0.564-0.333-1.282-0.154-1.615,0.409L43.395,9.69
		c-1.845-0.654-3.822-1.034-5.893-1.034c-2.068,0-4.046,0.379-5.896,1.034l-3.099-5.166c-0.339-0.563-1.059-0.741-1.616-0.409
		c-0.563,0.34-0.74,1.058-0.408,1.615l2.943,4.903c-5.685,2.938-9.582,8.857-9.582,15.681c0,0.654,0.523,1.178,1.173,1.178h32.965
		c0.649,0,1.179-0.524,1.179-1.178C55.154,19.491,51.258,13.571,45.579,10.634L45.579,10.634z M22.242,25.141
		c0.603-7.891,7.215-14.127,15.26-14.127c8.042,0,14.652,6.236,15.256,14.127H22.242z M22.242,25.141"/>
	<path d="M45.711,17.325h-1.546c-0.432,0-0.776,0.351-0.776,0.776v1.552c0,0.431,0.345,0.775,0.776,0.775h1.552
		c0.425,0,0.775-0.345,0.775-0.775v-1.552C46.492,17.675,46.142,17.325,45.711,17.325L45.711,17.325z M45.711,17.325"/>
	<path d="M30.835,17.325h-1.553c-0.425,0-0.774,0.351-0.774,0.776v1.552c0,0.431,0.35,0.775,0.774,0.775h1.553
		c0.432,0,0.775-0.345,0.775-0.775v-1.552C31.61,17.675,31.267,17.325,30.835,17.325L30.835,17.325z M30.835,17.325"/>
	<path d="M53.982,28.672H21.018c-0.649,0-1.179,0.528-1.179,1.177v23.745c0,3.132,2.559,5.685,5.692,5.685h1.372v7.07
		c0,2.594,2.115,4.702,4.707,4.702c2.6,0,4.715-2.108,4.715-4.702v-7.07h2.351v7.07c0,2.594,2.115,4.702,4.707,4.702
		c2.599,0,4.714-2.108,4.714-4.702v-7.07h1.368c3.138,0,5.689-2.553,5.689-5.685V29.849C55.154,29.2,54.632,28.672,53.982,28.672
		L53.982,28.672z M52.804,53.594c0,1.834-1.5,3.33-3.339,3.33h-2.547c-0.649,0-1.179,0.527-1.179,1.178v8.247
		c0,1.293-1.058,2.346-2.356,2.346c-1.293,0-2.351-1.053-2.351-2.346v-8.247c0-0.651-0.529-1.178-1.179-1.178h-4.707
		c-0.65,0-1.179,0.527-1.179,1.178v8.247c0,1.293-1.058,2.346-2.357,2.346c-1.292,0-2.35-1.053-2.35-2.346v-8.247
		c0-0.651-0.53-1.178-1.179-1.178h-2.546c-1.839,0-3.34-1.496-3.34-3.33V31.027h30.607V53.594z M52.804,53.594"/>
	<path d="M60.455,28.672c-2.271,0-4.122,1.851-4.122,4.125v16.47c0,2.276,1.852,4.125,4.122,4.125c2.27,0,4.121-1.85,4.121-4.125
		v-16.47C64.576,30.522,62.725,28.672,60.455,28.672L60.455,28.672z M62.219,49.268c0,0.977-0.793,1.77-1.764,1.77
		c-0.972,0-1.765-0.793-1.765-1.77v-16.47c0-0.977,0.793-1.77,1.765-1.77c0.971,0,1.764,0.793,1.764,1.77V49.268z M62.219,49.268"/>
	<path d="M14.545,28.672c-2.27,0-4.121,1.851-4.121,4.125v16.47c0,2.276,1.852,4.125,4.121,4.125c2.271,0,4.123-1.85,4.123-4.125
		v-16.47C18.668,30.522,16.816,28.672,14.545,28.672L14.545,28.672z M16.311,49.268c0,0.977-0.793,1.77-1.766,1.77
		c-0.977,0-1.764-0.793-1.764-1.77v-16.47c0-0.977,0.787-1.77,1.764-1.77c0.973,0,1.766,0.793,1.766,1.77V49.268z M16.311,49.268"/>
</g>
</svg>
