<?xml version="1.0" encoding="utf-8"?>
<!-- Generator: Adobe Illustrator 16.0.0, SVG Export Plug-In . SVG Version: 6.00 Build 0)  -->
<!DOCTYPE svg PUBLIC "-//W3C//DTD SVG 1.1//EN" "http://www.w3.org/Graphics/SVG/1.1/DTD/svg11.dtd">
<svg version="1.1" id="Isolation_Mode" xmlns="http://www.w3.org/2000/svg" xmlns:xlink="http://www.w3.org/1999/xlink" x="0px"
	 y="0px" width="68.875px" fill="#006ada" height="68.875px" viewBox="0 0 68.875 68.875" enable-background="new 0 0 68.875 68.875"
	 xml:space="preserve">
	<g>
		<path fill-rule="evenodd" clip-rule="evenodd" d="M32.933,40.92c-1.099-3.021-3.018-4.931-5.675-6.174
			c-0.311-0.146-0.726-0.383-0.803-0.659c-0.642-2.308-2.51-3.619-4.175-5.015c-1.407-1.18-3.432-0.833-4.943,0.599
			c-1.68,1.593-3.291,3.258-4.936,4.885c-0.386,0.383-0.788,0.75-1.216,1.157c-5.555-4.544-8.732-10.035-7.275-17.288
			C5.222,11.904,9.237,7.501,15.68,5.801c6.955-1.833,12.736,0.494,17.572,6.098c-2.451,2.384-4.962,4.685-7.308,7.144
			c-3.437,3.604-1.845,9.223,2.94,10.558c2.396,0.666,4.47-0.037,6.199-1.773c2.308-2.319,4.601-4.653,6.881-6.996
			c0.348-0.357,0.604-0.803,0.954-1.274c0.526,0.46,0.835,0.697,1.106,0.969c4.629,4.623,9.257,9.248,13.879,13.88
			c1.681,1.684,1.681,2.169,0.047,3.825c-2.248,2.275-2.264,2.293-4.622,0.037c-2.364-2.261-4.66-4.593-7.065-6.809
			c-0.462-0.425-1.372-0.73-1.947-0.584c-1.02,0.259-0.995,1.412-0.008,2.411c2.55,2.575,5.123,5.127,7.68,7.696
			c1.446,1.453,1.444,1.732,0.027,3.181c-2.46,2.513-2.46,2.513-4.992-0.02c-2.241-2.241-4.489-4.479-6.723-6.728
			c-0.693-0.701-1.441-1.269-2.302-0.362c-0.832,0.871-0.307,1.631,0.396,2.332c2.503,2.479,4.99,4.973,7.48,7.465
			c1.671,1.671,1.666,1.784-0.032,3.489c-0.318,0.321-0.609,0.669-1.118,1.225c-0.992-1.071-1.744-2.308-2.843-2.975
			c-1.868-1.132-3.161-2.633-4.407-4.385C36.377,42.665,35.031,41.073,32.933,40.92z"/>
		<path fill-rule="evenodd" clip-rule="evenodd" d="M61.253,33.899c-3.956-3.956-7.791-7.792-11.626-11.628
			c-1.671-1.674-3.361-3.328-5.007-5.024c-0.929-0.958-1.723-0.973-2.671,0.007c-2.835,2.927-5.689,5.837-8.592,8.694
			c-2.126,2.097-5.283,1.291-6.095-1.489c-0.394-1.347,0.026-2.509,0.957-3.451c3.854-3.899,7.58-7.948,11.662-11.594
			c4.528-4.048,9.967-5.197,15.742-3.102c5.713,2.072,9.281,6.257,10.471,12.242C67.257,24.408,65.473,29.441,61.253,33.899z"/>
		<path fill-rule="evenodd" clip-rule="evenodd" d="M23.9,34.486c-0.354,0.598-0.513,1.037-0.808,1.338
			c-1.613,1.656-3.273,3.265-4.891,4.918c-0.751,0.766-1.47,0.748-2.237,0.072c-0.075-0.064-0.142-0.144-0.215-0.21
			c-2.866-2.655-2.866-2.655-0.099-5.422c1.102-1.104,2.209-2.197,3.301-3.31c0.838-0.853,1.646-0.84,2.464,0.021
			C22.23,32.749,23.053,33.603,23.9,34.486z"/>
		<path fill-rule="evenodd" clip-rule="evenodd" d="M36.072,47.001c-0.31,0.439-0.518,0.837-0.819,1.146
			c-1.548,1.579-3.139,3.116-4.678,4.708c-0.891,0.921-1.666,0.861-2.577,0.01c-2.854-2.665-2.869-2.685-0.089-5.466
			c1.102-1.104,2.216-2.191,3.297-3.314c0.84-0.876,1.62-0.856,2.435,0.02c0.549,0.588,1.153,1.126,1.687,1.726
			C35.609,46.147,35.795,46.555,36.072,47.001z"/>
		<path fill-rule="evenodd" clip-rule="evenodd" d="M35.258,59.844c-0.496-0.412-1.035-0.829-1.54-1.288
			c-0.446-0.402-0.863-0.84-1.276-1.278c-0.651-0.688-0.738-1.407-0.033-2.115c1.698-1.71,3.405-3.41,5.109-5.116
			c0.071-0.068,0.138-0.157,0.227-0.197c1.878-0.858,2.345,1.032,3.376,1.782c0.772,0.56,1.353,1.419,0.528,2.3
			c-1.75,1.868-3.598,3.645-5.424,5.437C36.024,59.563,35.7,59.634,35.258,59.844z"/>
		<path fill-rule="evenodd" clip-rule="evenodd" d="M29.816,41.071c-0.158,0.225-0.37,0.626-0.675,0.938
			c-1.546,1.582-3.127,3.127-4.672,4.706c-0.872,0.894-1.655,0.903-2.586,0.032c-2.864-2.681-2.881-2.663-0.109-5.437
			c1.101-1.101,2.185-2.219,3.313-3.292c0.308-0.292,0.725-0.578,1.125-0.64C27.073,37.251,29.861,40.015,29.816,41.071z"/>
	</g>
</svg>
