<svg width="164" height="188" viewBox="0 0 164 188" fill="none" xmlns="http://www.w3.org/2000/svg">
<path fill-rule="evenodd" clip-rule="evenodd" d="M81.9961 1.13257L81.4951 0.844971L80.9961 1.13574L47.4961 20.6357L46.999 20.925V21.5V33.0681L36.4922 27.1294L35.9873 26.8442L35.4893 27.1404L0.989258 47.6404L0.5 47.9309V48.5V88V88.5938L1.02148 88.8779L12.0215 94.8779L12.125 94.9346L1.3877 101.134L0.885742 101.424L0.887695 102.003L1 141.198L1.00195 141.776L1.50293 142.063L35.1406 161.324L35.6396 161.61L36.1377 161.323L46.4727 155.356L46.1963 166.746L46.1816 167.34L46.6953 167.636L80.9033 187.386L81.3965 187.671L81.8926 187.393L116.896 167.765L117.402 167.481L117.407 166.902L117.515 155.223L128.079 161.323L128.577 161.61L129.076 161.324L162.714 142.063L163.215 141.776L163.217 141.198L163.329 102.003L163.331 101.424L162.829 101.134L151.979 94.8779L162.979 88.8779L163.5 88.5938V88V48.5V47.9309L163.011 47.6404L128.511 27.1404L128.013 26.8442L127.508 27.1294L116.499 33.3518V21.5V20.9207L115.996 20.6326L81.9961 1.13257ZM150.553 94.6445L139.053 88.8945L138.5 88.6179V88V75.7061L127.488 81.8726L126.986 82.1536L126.491 81.8608L115.491 75.3608L115 75.0706V74.5V62.5V61.938L115.48 61.6458L127.152 54.541L116.016 48.3748L115.5 48.0894V47.5V35.6511L105.495 41.3682L105.007 41.6472L104.515 41.375L94.2197 35.6802L93.999 48.5173L93.9883 49.1116L93.4619 49.3865L81.9619 55.3865L81.4883 55.6333L81.0205 55.3779L70.0205 49.3779L69.499 49.0938V48.5V35.4314L58.9912 41.3706L58.4961 41.6501L58.0029 41.3682L48.5 35.938V47.5V48.0894L47.9844 48.3748L36.8477 54.541L48.5195 61.6458L49 61.938V62.5V74.5V75.0706L48.5088 75.3608L37.5088 81.8608L37.0137 82.1536L36.5117 81.8726L25.5 75.7061V88V88.6179L24.9473 88.8945L13.5635 94.5862L13.6494 94.6362L24.0957 100.729L24.5811 101.013L24.5918 101.575L24.8076 113.338L36.0352 107.111L36.5547 106.823L37.0566 107.142L48.0029 114.101L48.4531 114.387L48.4658 114.921L48.7695 127.447L48.7842 128.041L48.2705 128.337L36.9521 134.872L47.3496 141.002L47.8398 141.291L47.8418 141.859L47.8906 152.787L58.1445 146.017L58.6602 145.677L59.1953 145.986L69.8428 152.133L70.0078 139.513L70.0156 138.938L70.5166 138.655L81.6455 132.379L82.1426 132.099L82.6367 132.384L93.0293 138.384L93.5156 138.665L93.5293 139.227L93.8457 152.888L104.754 146.326L105.26 146.022L105.77 146.317L116.328 152.413L116.375 141.859L116.377 141.291L116.867 141.002L127.265 134.872L115.946 128.337L115.433 128.041L115.447 127.447L115.751 114.921L115.764 114.387L116.214 114.101L127.16 107.142L127.662 106.823L128.182 107.111L139.409 113.338L139.625 101.575L139.636 101.013L140.121 100.729L150.553 94.6445ZM71.499 47.9062V34.3008L80.499 29.2139V52.8154L71.499 47.9062ZM82.499 52.8503V29.196L92.2393 34.584L92.0098 47.8884L82.499 52.8503ZM93.7334 33.125L82.499 26.9104V16.6646L103.999 28.1008V38.804L93.7334 33.125ZM80.499 26.9165V16.6816L59.499 28.0947V38.7861L70.0068 32.8469L80.499 26.9165ZM81.0215 14.1213L58.5107 26.3552L50.001 21.4919L81.5029 3.15503L113.486 21.4983L104.981 26.3582L81.9688 14.1172L81.4941 13.8647L81.0215 14.1213ZM57.499 28.0803L48.999 23.2231V33.9197L57.499 38.7769V28.0803ZM105.999 28.0803L114.499 23.2231V33.9197L105.999 38.7769V28.0803ZM36 79.2939L25.0049 73.1365L13.5195 66.1458L12.0322 65.2402L12 66.9814L11.5303 92.3323L2.5 87.4062V50.2112L36 69.0845V79.2939ZM23.5 87.3821L13.5303 92.3667L13.9678 68.7598L23.5 74.562V87.3821ZM37.0078 67.3567L3.49609 48.4771L36.0127 29.1558L45.541 34.5413L24.4717 47.6509L23.0918 48.5093L24.4805 49.3542L34.3369 55.3542L45.999 62.4526L37.0078 67.3567ZM26.9082 48.4907L46.5 36.3V46.9106L34.8809 53.3438L26.9082 48.4907ZM38 69.0938L47 64.1846V73.9294L38 79.2476V69.0938ZM128 79.2939L138.995 73.1365L150.48 66.1458L151.968 65.2402L152 66.9814L152.47 92.3323L161.5 87.4062V50.2112L128 69.0845V79.2939ZM140.5 87.3821L150.47 92.3667L150.032 68.7598L140.5 74.562V87.3821ZM126.992 67.3567L160.504 48.4771L127.987 29.1558L118.459 34.5413L139.528 47.6509L140.908 48.5093L139.52 49.3542L129.663 55.3542L118.001 62.4526L126.992 67.3567ZM137.092 48.4907L117.5 36.3V46.9106L129.119 53.3438L137.092 48.4907ZM126 69.0938L117 64.1846V73.9294L126 79.2476V69.0938ZM71.8203 153.847L71.9854 141.245L80.8271 146.35L80.4219 184.799L48.21 166.201L48.459 155.917L70.6484 168.186L72.1719 169.029L72.1318 167.288L71.8203 153.847ZM49.4287 154.168L58.7305 148.027L69.833 154.437L70.0918 165.593L49.4287 154.168ZM82.4219 184.803L82.8271 146.341L91.5703 141.007L91.8867 154.655L92.1543 166.192L92.1914 167.816L93.625 167.051L115.513 155.359L115.412 166.304L82.4219 184.803ZM114.469 153.649L94.1162 164.521L93.8994 155.19L105.28 148.344L114.469 153.649ZM90.5703 139.274L81.8193 144.614L73.0254 139.537L82.1309 134.401L90.5703 139.274ZM34.9736 133.705L46.7559 126.902L46.5078 116.653L26.0684 128.454L34.9736 133.705ZM25.0527 126.731L45.5381 114.904L36.4854 109.148L24.8486 115.602L25.0527 126.731ZM23.0732 127.874L22.8379 115.037L22.623 103.307L13.3535 108.659L14.2002 132.997L23.0732 127.874ZM15.2148 134.72L24.0781 129.603L34.46 135.724L44.8574 141.854L35.5986 147.2L15.2148 134.72ZM34.5859 148.925L12.7363 135.548L12.2773 135.267L12.2588 134.73L11.3535 108.679L2.89258 103.744L2.99805 140.614L34.6299 158.727L34.5859 148.925ZM36.6299 158.729L36.5859 148.939L45.8496 143.591L45.8936 153.381L36.6299 158.729ZM3.87988 102.004L12.3359 106.937L21.5996 101.589L13.1436 96.6562L3.87988 102.004ZM117.461 126.902L129.243 133.705L138.148 128.454L117.709 116.653L117.461 126.902ZM118.679 114.904L139.164 126.731L139.368 115.602L127.731 109.148L118.679 114.904ZM141.379 115.037L141.144 127.874L150.017 132.997L150.863 108.659L141.594 103.307L141.379 115.037ZM140.139 129.603L149.002 134.72L128.618 147.2L119.359 141.854L129.757 135.724L140.139 129.603ZM151.48 135.548L129.631 148.925L129.587 158.727L161.219 140.614L161.324 103.744L152.863 108.679L151.958 134.73L151.939 135.267L151.48 135.548ZM127.631 148.939L127.587 158.729L118.323 153.381L118.367 143.591L127.631 148.939ZM151.881 106.937L160.337 102.004L151.073 96.6562L142.617 101.589L151.881 106.937Z" fill="black"/>
</svg>
