<?xml version="1.0" encoding="iso-8859-1"?>
<!-- Generator: Adobe Illustrator 19.0.0, SVG Export Plug-In . SVG Version: 6.00 Build 0)  -->
<svg version="1.1" id="Capa_1" xmlns="http://www.w3.org/2000/svg" xmlns:xlink="http://www.w3.org/1999/xlink" x="0px" y="0px"
	 viewBox="0 0 512 512" style="enable-background:new 0 0 512 512;" xml:space="preserve">
<g>
	<g>
		<rect x="193.05" y="447" width="15" height="15"/>
	</g>
</g>
<g>
	<g>
		<rect x="243.05" y="447" width="15" height="15"/>
	</g>
</g>
<g>
	<g>
		<rect x="218.05" y="447" width="15" height="15"/>
	</g>
</g>
<g>
	<g>
		<rect x="168.05" y="447" width="15" height="15"/>
	</g>
</g>
<g>
	<g>
		<path d="M25,372.095h104.905v-242.19h242.189V25H25V372.095z M40,40h317.095v74.905h-242.19v242.189H40V40z"/>
	</g>
</g>
<g>
	<g>
		<path d="M382.095,139.905v242.19h-242.19V487H487V139.905H382.095z M472,472H154.905v-74.905h242.189v-242.19h0.001H472V472z"/>
	</g>
</g>
<g>
	<g>
		<path d="M397.095,114.905V0H0v397.095h114.905V512H512V114.905H397.095z M497,497H129.905V382.095H15V15h367.095v114.905H497V497z
			"/>
	</g>
</g>
<g>
	<g>
		<rect x="156.07" y="157.22" width="148.93" height="15"/>
	</g>
</g>
<g>
	<g>
		<rect x="340" y="157.22" width="15" height="15"/>
	</g>
</g>
<g>
	<g>
		<rect x="315" y="157.22" width="15" height="15"/>
	</g>
</g>
<g>
	<g>
		<rect x="147.28" y="49" width="148.93" height="15"/>
	</g>
</g>
<g>
	<g>
		<rect x="306.21" y="49" width="15" height="15"/>
	</g>
</g>
<g>
	<g>
		<rect x="331.21" y="49" width="15" height="15"/>
	</g>
</g>
<g>
	<g>
		<rect x="447" y="166.53" width="15" height="15"/>
	</g>
</g>
<g>
	<g>
		<rect x="447" y="216.53" width="15" height="148.93"/>
	</g>
</g>
<g>
	<g>
		<rect x="447" y="191.53" width="15" height="15"/>
	</g>
</g>
<g>
	<g>
		<rect x="146.55" y="315.48" width="15" height="49.52"/>
	</g>
</g>
<g>
	<g>
		<rect x="297" y="349.74" width="15" height="15"/>
	</g>
</g>
<g>
	<g>
		<rect x="322" y="349.74" width="15" height="15"/>
	</g>
</g>
<g>
	<g>
		<rect x="347" y="349.74" width="15" height="15"/>
	</g>
</g>
<g>
</g>
<g>
</g>
<g>
</g>
<g>
</g>
<g>
</g>
<g>
</g>
<g>
</g>
<g>
</g>
<g>
</g>
<g>
</g>
<g>
</g>
<g>
</g>
<g>
</g>
<g>
</g>
<g>
</g>
</svg>
