<?xml version="1.0" encoding="utf-8"?>
<!-- Generator: Adobe Illustrator 16.0.0, SVG Export Plug-In . SVG Version: 6.00 Build 0)  -->
<!DOCTYPE svg PUBLIC "-//W3C//DTD SVG 1.0//EN" "http://www.w3.org/TR/2001/REC-SVG-20010904/DTD/svg10.dtd">
<svg version="1.0" id="Layer_1" xmlns="http://www.w3.org/2000/svg" xmlns:xlink="http://www.w3.org/1999/xlink" x="0px" y="0px"
	 width="75px" height="75px" viewBox="0 0 75 75" enable-background="new 0 0 75 75" xml:space="preserve">
<g>
	<g>
		<g>
			<path fill="#090909" d="M27.859,72.569c-2.376,0-4.583-0.931-6.563-2.766c-1.791-1.661-3.425-3.683-4.995-6.181
				c-2.032-2.5-3.292-5.363-4.409-8.083c-2.479-6.035-3.503-12.043-3.044-17.855c0.675-8.551,5.38-15.206,12.586-17.803
				c3.595-1.294,7.234-1.284,10.733,0.028c0.313,0.118,0.628,0.233,0.942,0.349c0.855,0.313,1.738,0.638,2.603,1.008
				c1.499,0.641,2.884,0.644,4.43,0.01l0.222-0.091c1.829-0.751,3.719-1.527,5.725-2.008c4.447-1.066,8.733-0.461,12.672,1.787
				c2.36,1.127,4.007,2.951,5.181,4.417c0.407,0.509,0.564,1.029,0.466,1.546c-0.142,0.75-0.736,1.093-1.022,1.259
				c-0.035,0.02-0.07,0.039-0.101,0.06c-2.937,2.177-4.76,4.792-5.57,7.991c-1.556,6.146,1.342,12.502,7.048,15.457l0.123,0.062
				c0.46,0.231,1.858,0.934,1.2,2.773c-1.902,5.309-4.78,10.107-8.554,14.263c-2.226,2.451-4.789,3.693-7.617,3.693h0
				c-1.4,0-2.872-0.312-4.375-0.925l-0.565-0.232c-1.459-0.602-2.836-1.17-4.301-1.366c-2.264-0.301-4.459,0-6.704,0.92
				c-0.237,0.097-0.473,0.197-0.709,0.297c-1.242,0.525-2.526,1.067-3.978,1.282C28.803,72.533,28.324,72.569,27.859,72.569z
				 M26.797,21.403c-1.486,0-3.006,0.276-4.519,0.821c-6.354,2.29-10.344,7.996-10.949,15.657
				c-0.434,5.497,0.503,10.963,2.865,16.714c1.055,2.568,2.239,5.264,4.083,7.513l0.092,0.129c1.466,2.34,2.977,4.218,4.62,5.743
				c1.824,1.691,3.741,2.346,5.928,2.021c1.139-0.168,2.224-0.627,3.374-1.112c0.245-0.103,0.488-0.207,0.733-0.307
				c2.624-1.077,5.304-1.441,7.978-1.085c1.786,0.238,3.38,0.896,4.922,1.532l0.555,0.228c1.204,0.491,2.36,0.74,3.436,0.74h0
				c2.127,0,4.016-0.941,5.775-2.878c3.498-3.85,6.177-8.288,7.968-13.195l-0.039-0.019c-6.738-3.489-10.158-11.005-8.316-18.278
				c0.921-3.639,3.03-6.735,6.27-9.207c-0.985-1.169-2.261-2.444-3.918-3.226l-0.088-0.046c-3.401-1.953-7.052-2.472-10.896-1.55
				c-1.818,0.436-3.539,1.143-5.36,1.89l-0.223,0.091c-2.14,0.878-4.266,0.869-6.354-0.024c-0.804-0.345-1.656-0.657-2.481-0.96
				c-0.32-0.117-0.641-0.235-0.96-0.354C29.811,21.685,28.298,21.403,26.797,21.403z"/>
		</g>
	</g>
	<g>
		<g>
			<path fill="#090909" d="M38.172,20.632c-0.447,0-1.911-0.156-1.985-2.16c-0.257-6.996,5.36-14.065,12.522-15.759
				c0.048-0.011,0.101-0.021,0.153-0.028c0.729-0.168,1.181-0.254,1.591-0.254c0.581,0,1.049,0.187,1.392,0.556
				c0.617,0.663,0.549,1.61,0.471,2.707c-0.48,6.711-5.014,12.598-11.026,14.314c-0.796,0.228-1.63,0.415-2.55,0.572
				C38.532,20.615,38.345,20.632,38.172,20.632z M38.171,18.144l0.001,1.245L38.171,18.144
				C38.172,18.144,38.171,18.144,38.171,18.144z M49.248,5.143c-5.941,1.425-10.617,7.168-10.58,12.922
				c0.689-0.128,1.34-0.279,1.939-0.45c5.026-1.435,8.82-6.41,9.227-12.099c0.008-0.113,0.022-0.308,0.032-0.505
				c-0.181,0.038-0.358,0.079-0.479,0.106C49.337,5.129,49.292,5.137,49.248,5.143z"/>
		</g>
	</g>
</g>
</svg>
