<svg width="304" height="234" viewBox="0 0 304 234" fill="none" xmlns="http://www.w3.org/2000/svg">
<path d="M4.92172 70.2628L148.779 131.835C149.794 132.278 150.878 132.489 151.964 132.489C153.05 132.489 154.129 132.267 155.149 131.835L299.003 70.2628C302.04 68.9598 303.986 65.9517 303.917 62.6477C303.849 59.3417 301.781 56.4147 298.696 55.2447L154.838 0.53175C152.979 -0.17725 150.933 -0.17725 149.079 0.53175L5.22572 55.2437C2.14072 56.4137 0.0737247 59.3467 0.0017247 62.6467C-0.0662753 65.9457 1.88172 68.9648 4.92172 70.2628ZM151.959 16.7677L274.192 63.2557L151.959 115.576L29.7237 63.2567L151.959 16.7677Z" fill="#E5E5E5"/>
<path d="M4.9217 105.302L151.959 168.238L298.993 105.302C303.111 103.541 305.015 98.7787 303.254 94.6677C301.498 90.5647 296.752 88.6378 292.623 90.4068L151.959 150.619L11.2897 90.4068C7.1737 88.6428 2.4167 90.5597 0.655702 94.6677C-1.1053 98.7837 0.806703 103.541 4.9217 105.302Z" fill="#E5E5E5"/>
<path d="M4.9217 137.699L151.959 200.637L298.993 137.699C303.111 135.938 305.015 131.181 303.254 127.068C301.498 122.965 296.752 121.035 292.623 122.807L151.959 183.019L11.2897 122.808C7.1737 121.046 2.4167 122.96 0.655702 127.069C-1.1053 131.182 0.806703 135.938 4.9217 137.699Z" fill="#E5E5E5"/>
<path d="M4.9217 170.1L151.959 233.038L298.993 170.1C303.111 168.338 305.015 163.581 303.254 159.468C301.498 155.365 296.752 153.447 292.623 155.207L151.959 215.419L11.2897 155.207C7.1737 153.446 2.4167 155.36 0.655702 159.468C-1.1053 163.581 0.806703 168.338 4.9217 170.1Z" fill="#E5E5E5"/>
</svg>
