<svg xmlns="http://www.w3.org/2000/svg" viewBox="0 0 174.42 135.05"><defs><style>.cls-1{fill:#006ada;}</style></defs><title>Liveitup</title><g id="Layer_2" data-name="Layer 2"><g id="Layer_1-2" data-name="Layer 1"><path class="cls-1" d="M113,103.83a5.43,5.43,0,0,1,0,7.66l-22,22a5.44,5.44,0,0,1-7.66,0l-22-22a5.43,5.43,0,0,1,0-7.66L73.16,92.06a5.42,5.42,0,0,1,7.66,7.66L76,104.59s-3.06,3.07,0,6.13l8.2,8.2c3.06,3.06,6.13,0,6.13,0l8.19-8.2s3.07-3.06,0-6.13L92.58,98.7l0,0a5.35,5.35,0,0,1,7.57-7.57Z"/><path class="cls-1" d="M97.5,5.91a6.69,6.69,0,0,1,.16.75A6.69,6.69,0,0,0,97.5,5.91Z"/><path class="cls-1" d="M122.27,2.07,82.2,42.13,51.15,73.19c-4,4-8,0-8,0l-22-22s-4-4,0-8l22-22c4-4,8,0,8,0L58.09,28a7.09,7.09,0,0,0,10-10l-16-15.95h0A7,7,0,0,0,49.81.52c-.21-.09-.43-.16-.65-.23a7.31,7.31,0,0,0-2-.29,7.07,7.07,0,0,0-5,2.07h0L2.07,42.13a7.1,7.1,0,0,0,0,10h0L42.13,92.22h0a7.1,7.1,0,0,0,10,0L92.22,52.15l31.05-31c4-4,8,0,8,0l22,22s4,4,0,8l-22,22c-4,4-8,0-8,0l-7.08-7.08a7.08,7.08,0,0,0-10,10l16.09,16.1h0a7.1,7.1,0,0,0,10,0l40.07-40.07a7.12,7.12,0,0,0,0-10h0L132.29,2.07h0A7.1,7.1,0,0,0,122.27,2.07Z"/></g></g></svg>