<svg id="Isolation_Mode" data-name="Isolation Mode" xmlns="http://www.w3.org/2000/svg" viewBox="0 0 615.91 332.78"><defs><style>.cls-1{fill-rule:evenodd;opacity:0.3;}</style></defs><title>logo opacity</title><path class="cls-1" d="M360.51,667.23c-8.69.06-14.64-3.07-19.82-8.27Q280.12,598.3,219.48,537.73q-9.19-9.19-18.39-18.36c-10.62-10.63-10.74-25.88-.08-36.56q70.1-70.2,140.28-140.32c10.48-10.47,25.65-10.65,36.22-.24q27.94,27.51,55.52,55.39c10.42,10.51,10.56,25.78.68,35.87s-25.51,9.93-36.27-.63c-7.6-7.46-15-15.11-22.57-22.63-9.81-9.76-20.51-9.94-30.2-.29q-38.24,38.1-76.33,76.34c-9.52,9.56-9.25,20.2.36,29.79q37.49,37.44,74.92,74.94c10.71,10.72,20.86,11,31.61.26q69.69-69.49,139.22-139.16Q569,397.56,623.61,343c11.4-11.39,26.31-11.27,37.68.09Q730.22,412,799.12,480.88c13.1,13.1,13.16,27.05.1,40.12q-68,68.07-136,136.17c-8.7,8.75-18.23,12.67-30.15,8.32a22.9,22.9,0,0,1-7.94-5c-19.17-19-38.33-38-57.21-57.22-13.36-13.63-7.68-36.15,10.37-41.47,9.26-2.73,17.86-.86,24.92,6.09,8.08,7.94,16,16,24.07,24,9.71,9.66,20.43,9.75,30.17,0q38.58-38.46,77-77c8.17-8.2,8.58-18.91.39-27.21Q695.72,448,656.08,408.8c-8.54-8.43-19.48-8-28,.56Q561.48,475.92,495,542.54,436.55,601,378,659.36C372.82,664.57,366.74,667.46,360.51,667.23Z" transform="translate(-193.07 -334.49)"/></svg>