<svg id="Isolation_Mode" data-name="Isolation Mode" xmlns="http://www.w3.org/2000/svg" viewBox="0 0 615.91 332.78"><defs><style>.cls-1{fill:#fff;isolation:isolate;}</style></defs><title>logo-opacity</title><path class="cls-1" d="M167.44,332.74c-8.69.06-14.64-3.07-19.82-8.27Q87,263.81,26.41,203.24L8,184.88C-2.6,174.25-2.72,159,7.94,148.32Q78,78.12,148.22,8c10.48-10.47,25.65-10.65,36.22-.24Q212.39,35.27,240,63.15c10.42,10.51,10.56,25.78.68,35.87s-25.51,9.93-36.27-.63c-7.6-7.46-15-15.11-22.57-22.63-9.81-9.76-20.51-9.94-30.2-.29q-38.23,38.1-76.33,76.34c-9.52,9.56-9.25,20.2.36,29.79q37.49,37.44,74.92,74.94c10.71,10.72,20.86,11,31.61.26q69.69-69.49,139.22-139.16Q375.94,63.07,430.54,8.51c11.4-11.39,26.31-11.27,37.68.09L606.05,146.39c13.1,13.1,13.16,27.05.1,40.12q-68,68.07-136,136.17c-8.7,8.75-18.23,12.67-30.15,8.32a22.84,22.84,0,0,1-7.94-5c-19.17-19-38.33-38-57.21-57.22-13.36-13.63-7.68-36.15,10.37-41.47,9.26-2.73,17.86-.86,24.92,6.09,8.08,7.94,16,16,24.07,24,9.71,9.66,20.43,9.75,30.17,0q38.58-38.46,77-77c8.17-8.2,8.58-18.91.39-27.21Q502.65,113.51,463,74.31c-8.54-8.43-19.48-8-28,.56q-66.6,66.55-133.08,133.18-58.46,58.45-117,116.82C179.75,330.08,173.67,333,167.44,332.74Z"/></svg>