<?xml version="1.0" encoding="utf-8"?>
<!-- Generator: Adobe Illustrator 16.0.0, SVG Export Plug-In . SVG Version: 6.00 Build 0)  -->
<!DOCTYPE svg PUBLIC "-//W3C//DTD SVG 1.0//EN" "http://www.w3.org/TR/2001/REC-SVG-20010904/DTD/svg10.dtd">
<svg version="1.0" id="Layer_1" xmlns="http://www.w3.org/2000/svg" xmlns:xlink="http://www.w3.org/1999/xlink" x="0px" y="0px"
	 width="75px" height="75px" viewBox="0 0 75 75" enable-background="new 0 0 75 75" xml:space="preserve">
<g>
	<g>
		<g>
			<path fill="#010101" d="M68.666,53.084v-29.09c-0.002-2.867-2.326-5.191-5.193-5.193H52.045V6.334h-2.078v14.355
				c-0.586-0.979-1.283-1.885-2.078-2.701V6.334h-2.078v12.084c0,0.283,0.115,0.555,0.318,0.75c2.459,2.34,3.848,5.588,3.838,8.982
				c0.006,6.885-5.57,12.471-12.455,12.477c-6.885,0.008-12.473-5.568-12.479-12.455c-0.006-5.781,3.965-10.807,9.59-12.141
				c0.469-0.111,0.799-0.529,0.799-1.01v-2.455h-2.078v1.656c-2.727,0.807-5.158,2.398-6.986,4.578h-14.83
				c-2.867,0.002-5.191,2.326-5.193,5.193v29.09c0.002,2.867,2.326,5.191,5.193,5.193h17.02l-2.078,4.156H7.373
				c-0.574,0-1.039,0.465-1.039,1.039c0,5.193,5.475,5.193,7.271,5.193h47.789c1.797,0,7.271,0,7.271-5.193
				c0-0.574-0.465-1.039-1.039-1.039H48.531l-2.078-4.156h17.02C66.34,58.275,68.664,55.951,68.666,53.084z M34.334,42.35
				c1.039,0.23,2.102,0.348,3.166,0.346c8.029-0.01,14.535-6.516,14.545-14.545v-3.117h10.389v24.934H12.566V25.033h10.732
				C21.564,32.863,26.504,40.615,34.334,42.35z M66.463,64.512c-0.361,1.279-1.615,2.076-5.068,2.076H13.605
				c-3.453,0-4.707-0.797-5.068-2.076H66.463z M28.793,62.434l2.076-4.156h13.262l2.076,4.156H28.793z M11.527,56.199
				c-1.721,0-3.115-1.395-3.115-3.115v-29.09c0-1.721,1.395-3.117,3.115-3.117h13.377c-0.383,0.666-0.715,1.361-0.986,2.078H11.527
				c-0.572,0-1.039,0.465-1.039,1.039v27.012c0,0.574,0.467,1.039,1.039,1.039h51.945c0.574,0,1.039-0.465,1.039-1.039V23.994
				c0-0.574-0.465-1.039-1.039-1.039H52.045v-2.078h11.428c1.721,0,3.115,1.396,3.115,3.117v29.09c0,1.721-1.395,3.115-3.115,3.115
				H11.527z"/>
		</g>
	</g>
	<g>
		<g>
			<path fill="#010101" d="M37.5,22.955c-2.867,0.004-5.191,2.328-5.195,5.195c0,2.869,2.326,5.193,5.195,5.193
				s5.195-2.324,5.195-5.193S40.369,22.955,37.5,22.955z M37.5,31.268c-1.721,0-3.117-1.396-3.117-3.117
				c0-1.723,1.396-3.117,3.117-3.117s3.117,1.395,3.117,3.117C40.617,29.871,39.221,31.268,37.5,31.268z"/>
		</g>
	</g>
	<g>
		<g>
			<path fill="#010101" d="M41.656,6.334v7.879c-0.682-0.199-1.375-0.35-2.078-0.447v-2.238H37.5v3.17
				c-0.002,0.545,0.416,0.998,0.959,1.039c1.32,0.096,2.613,0.404,3.836,0.908c0.529,0.223,1.137-0.029,1.357-0.557
				c0.053-0.129,0.08-0.266,0.08-0.404v-9.35H41.656z"/>
		</g>
	</g>
	<g>
		<g>
			<rect x="37.5" y="6.334" fill="#010101" width="2.078" height="3.115"/>
		</g>
	</g>
	<g>
		<g>
			<rect x="33.344" y="8.412" fill="#010101" width="2.078" height="2.076"/>
		</g>
	</g>
	<g>
		<g>
			<path fill="#010101" d="M46.85,25.033h-1.645c-0.018-0.043-0.035-0.086-0.053-0.127l1.164-1.164c0.404-0.406,0.404-1.064,0-1.469
				l-2.939-2.939c-0.412-0.391-1.057-0.391-1.469,0l-1.164,1.164l-0.127-0.053v-1.645c0-0.574-0.467-1.039-1.039-1.039h-4.156
				c-0.572,0-1.039,0.465-1.039,1.039v1.645l-0.127,0.053l-1.164-1.164c-0.406-0.404-1.063-0.404-1.469,0l-2.939,2.939
				c-0.404,0.404-0.404,1.063,0,1.469l1.164,1.164c-0.018,0.041-0.035,0.084-0.053,0.127H28.15c-0.574,0-1.039,0.467-1.039,1.039
				v4.156c0,0.572,0.465,1.039,1.039,1.039h1.645c0.018,0.041,0.035,0.084,0.053,0.127l-1.164,1.164
				c-0.404,0.406-0.404,1.063,0,1.469l2.939,2.939c0.412,0.389,1.057,0.389,1.469,0l1.164-1.164l0.127,0.051V37.5
				c0,0.574,0.467,1.039,1.039,1.039h4.156c0.572,0,1.039-0.465,1.039-1.039v-1.646l0.127-0.051l1.164,1.164
				c0.406,0.404,1.063,0.404,1.469,0l2.939-2.939c0.404-0.406,0.404-1.063,0-1.469l-1.164-1.164
				c0.018-0.043,0.035-0.086,0.053-0.127h1.645c0.574,0,1.039-0.467,1.039-1.039v-4.156C47.889,25.5,47.424,25.033,46.85,25.033z
				 M45.811,29.189h-1.344c-0.459,0-0.865,0.303-0.996,0.742c-0.119,0.412-0.283,0.807-0.486,1.186
				c-0.219,0.402-0.146,0.902,0.18,1.229l0.947,0.949l-1.469,1.467l-0.949-0.949c-0.324-0.324-0.824-0.396-1.229-0.178
				c-0.377,0.203-0.773,0.365-1.184,0.486c-0.441,0.131-0.744,0.537-0.744,0.996v1.344h-2.076v-1.344
				c0-0.459-0.303-0.865-0.742-0.996c-0.41-0.121-0.807-0.283-1.184-0.486c-0.404-0.219-0.904-0.146-1.23,0.178l-0.949,0.949
				l-1.467-1.469l0.947-0.949c0.326-0.326,0.398-0.826,0.18-1.229c-0.203-0.379-0.367-0.773-0.486-1.186
				c-0.131-0.439-0.537-0.74-0.996-0.74h-1.344v-2.078h1.344c0.459,0,0.865-0.303,0.996-0.742c0.119-0.41,0.283-0.809,0.486-1.184
				c0.219-0.404,0.146-0.904-0.18-1.23l-0.947-0.949l1.469-1.469l0.949,0.949c0.324,0.326,0.824,0.398,1.229,0.178
				c0.377-0.203,0.773-0.365,1.184-0.486c0.439-0.131,0.742-0.535,0.742-0.994V19.84h2.078v1.344c0,0.459,0.303,0.863,0.742,0.994
				c0.41,0.121,0.807,0.285,1.184,0.488c0.404,0.219,0.904,0.146,1.23-0.18l0.949-0.947l1.469,1.469l-0.949,0.947
				c-0.326,0.326-0.398,0.826-0.178,1.232c0.203,0.375,0.365,0.771,0.486,1.182c0.131,0.441,0.535,0.742,0.996,0.742h1.342V29.189z"
				/>
		</g>
	</g>
	<g>
		<g>
			<path fill="#010101" d="M21.613,36.156l-1.471-1.469l-5.193,5.195c-0.406,0.404-0.406,1.063,0,1.469l5.193,5.193l1.471-1.469
				l-4.461-4.459L21.613,36.156z"/>
		</g>
	</g>
	<g>
		<g>
			<path fill="#010101" d="M60.051,39.883l-5.193-5.195l-1.471,1.469l4.461,4.461l-4.461,4.459l1.471,1.469l5.193-5.193
				C60.457,40.945,60.457,40.287,60.051,39.883z"/>
		</g>
	</g>
</g>
</svg>
