<?xml version="1.0" encoding="utf-8"?>
<!-- Generator: Adobe Illustrator 16.0.0, SVG Export Plug-In . SVG Version: 6.00 Build 0)  -->
<!DOCTYPE svg PUBLIC "-//W3C//DTD SVG 1.1//EN" "http://www.w3.org/Graphics/SVG/1.1/DTD/svg11.dtd">
<svg version="1.1" id="Layer_1" xmlns="http://www.w3.org/2000/svg" xmlns:xlink="http://www.w3.org/1999/xlink" x="0px" y="0px"
	 width="64px" height="64px" viewBox="112.25 0 64 64" enable-background="new 112.25 0 64 64" xml:space="preserve">
<title>Liveitup</title>
<g id="Layer_2">
	<g id="Layer_1-2">
		<path d="M41.463,45.321c0.773,0.777,0.773,2.034,0,2.811l-8.072,8.073c-0.777,0.771-2.033,0.771-2.811,0l-8.072-8.073
			c-0.773-0.776-0.773-2.033,0-2.811l4.337-4.319c0.804-0.747,2.063-0.701,2.811,0.103c0.71,0.764,0.71,1.945,0,2.709L27.887,45.6
			c0,0-1.123,1.127,0,2.25l3.009,3.009c1.123,1.123,2.249,0,2.249,0l3.006-3.009c0,0,1.126-1.123,0-2.25l-2.18-2.16l0,0
			c-0.768-0.768-0.768-2.012,0-2.778c0.767-0.767,2.01-0.767,2.777,0L41.463,45.321z"/>
		<path d="M35.775,9.392c0.025,0.09,0.045,0.183,0.059,0.275C35.82,9.574,35.801,9.482,35.775,9.392z"/>
		<path d="M44.865,7.982L30.162,22.682L18.769,34.078c-1.468,1.469-2.936,0-2.936,0l-8.072-8.072c0,0-1.468-1.468,0-2.936
			l8.072-8.073c1.468-1.467,2.936,0,2.936,0l2.546,2.499c1.088,0.939,2.73,0.819,3.67-0.269c0.844-0.977,0.844-2.424,0-3.401
			l-5.871-5.853l0,0c-0.238-0.24-0.523-0.431-0.836-0.561c-0.078-0.033-0.158-0.059-0.239-0.084
			C17.8,7.26,17.553,7.224,17.305,7.223c-0.688,0-1.348,0.273-1.835,0.759l0,0L0.76,22.682c-1.008,1.016-1.008,2.654,0,3.669l0,0
			l14.699,14.71l0,0c1.016,1.007,2.653,1.007,3.669,0l14.71-14.703l11.394-11.375c1.468-1.468,2.936,0,2.936,0l8.072,8.073
			c0,0,1.468,1.468,0,2.936l-8.072,8.073c-1.468,1.467-2.936,0-2.936,0l-2.598-2.598c-1.064-0.962-2.707-0.88-3.669,0.184
			c-0.895,0.99-0.895,2.496,0,3.484l5.903,5.908l0,0c1.016,1.008,2.653,1.008,3.669,0L63.24,26.34c1.004-1.017,1.004-2.652,0-3.669
			l0,0L48.541,7.982l0,0C47.525,6.97,45.881,6.97,44.865,7.982z"/>
	</g>
</g>
<polyline points="48.318,111.689 40.962,104.333 26.584,119.211 40.334,132.961 70.334,104.711 84.084,118.211 78.751,124.711 "/>
<g>
	<path fill="#006ADA" d="M175.046,28.918l-14.487-14.476c-1.001-0.999-2.621-0.999-3.622,0l-11.494,11.49l3.518,3.732l8.337-8.323
		c1.446-1.446,2.894,0,2.894,0l7.955,7.956c0,0,1.446,1.448,0,2.894l-7.955,7.956c-1.447,1.445-2.894,0-2.894,0l-2.56-2.561
		c-1.05-0.949-2.668-0.868-3.616,0.181c-0.882,0.977-0.882,2.461,0,3.435l5.818,5.822c1,0.994,2.614,0.994,3.615,0l14.491-14.49
		C176.035,31.531,176.035,29.921,175.046,28.918z"/>
	<path fill="#006ADA" d="M131.217,40.161c-1.446,1.447-2.894,0-2.894,0l-7.955-7.956c0,0-1.447-1.447,0-2.892l7.955-7.957
		c1.447-1.447,2.894,0,2.894,0l2.509,2.463c1.072,0.926,2.691,0.807,3.617-0.265c0.831-0.962,0.831-2.389,0-3.353l-5.786-5.767
		c-0.235-0.237-0.517-0.426-0.824-0.554c-0.077-0.033-0.156-0.059-0.235-0.083c-0.235-0.067-0.479-0.104-0.724-0.104
		c-0.678-0.001-1.328,0.269-1.808,0.748l-14.498,14.486c-0.993,1.001-0.993,2.616,0,3.617l14.487,14.497
		c1.001,0.992,2.615,0.992,3.615,0l7.858-7.855l-3.513-3.728L131.217,40.161z"/>
	<path d="M145.442,25.932"/>
	<path d="M135.916,35.46"/>
	<path d="M139.429,39.188"/>
	<path d="M148.96,29.665"/>
</g>
<g>
	<g>
		
			<rect x="141.817" y="23.773" transform="matrix(0.7118 0.7024 -0.7024 0.7118 63.7272 -91.0402)" fill="#006ADA" width="1.97" height="16.725"/>
	</g>
</g>
<g>
	<path fill="#006ADA" d="M250.526,28.905l-14.593-14.582c-1.009-1.005-2.642-1.005-3.649,0l-4.559,4.555l3.666,3.636l1.256-1.24
		c1.457-1.457,2.914,0,2.914,0l8.015,8.014c0,0,1.457,1.458,0,2.915l-8.015,8.014c-1.457,1.458-2.914,0.001-2.914,0.001
		l-2.579-2.578c-1.057-0.957-2.688-0.876-3.643,0.181c-0.888,0.984-0.888,2.479,0,3.459l5.861,5.867c1.008,1,2.635,1,3.643-0.001
		l14.597-14.597C251.522,31.537,251.522,29.915,250.526,28.905z"/>
	<path fill="#006ADA" d="M206.376,40.23c-1.457,1.457-2.914,0-2.914,0l-8.015-8.014c0,0-1.457-1.457,0-2.914l8.015-8.015
		c1.457-1.457,2.914,0,2.914,0l2.527,2.481c1.08,0.932,2.711,0.812,3.644-0.267c0.838-0.97,0.838-2.407,0-3.377l-5.829-5.809
		c-0.236-0.238-0.52-0.428-0.829-0.557c-0.078-0.033-0.157-0.06-0.239-0.084c-0.235-0.068-0.48-0.104-0.727-0.105
		c-0.684-0.001-1.338,0.271-1.822,0.753l-14.604,14.593c-1,1.008-1,2.635,0,3.642l14.593,14.605
		c1.009,0.999,2.635,0.999,3.643-0.001l3.64-3.637l-3.645-3.648L206.376,40.23z"/>
	<path d="M216.931,26.471"/>
	<path d="M216.932,44.255"/>
	<path d="M222.09,44.407"/>
	<path d="M229.115,19.604"/>
</g>
<g>
	<g>
		<path fill-rule="evenodd" clip-rule="evenodd" fill="#006ADA" d="M213.048,36.856c-0.135-0.136-0.24-0.241-0.346-0.346
			c-1.014-1.014-2.033-2.021-3.037-3.045c-0.252-0.257-0.483-0.28-0.767-0.08c-0.621,0.44-1.154,0.965-1.579,1.597
			c-0.17,0.251-0.146,0.467,0.072,0.685c2.45,2.444,4.896,4.892,7.341,7.341c0.218,0.22,0.46,0.272,0.681,0.07
			c0.547-0.51,1.082-1.038,1.598-1.58c0.236-0.253,0.181-0.514-0.077-0.764c-0.959-0.938-1.894-1.896-2.851-2.834
			c-0.206-0.204-0.24-0.332-0.01-0.562c3.751-3.738,7.496-7.483,11.233-11.234c0.223-0.224,0.352-0.212,0.563,0.002
			c0.946,0.966,1.911,1.91,2.856,2.874c0.232,0.234,0.478,0.294,0.707,0.078c0.556-0.52,1.093-1.059,1.613-1.615
			c0.203-0.216,0.159-0.459-0.063-0.681c-2.448-2.443-4.896-4.89-7.339-7.339c-0.217-0.218-0.433-0.25-0.686-0.08
			c-0.632,0.423-1.155,0.958-1.599,1.576c-0.216,0.302-0.168,0.537,0.097,0.795c1.026,1.001,2.032,2.021,3.045,3.035
			c0.104,0.105,0.2,0.22,0.311,0.341C220.89,29.015,216.99,32.914,213.048,36.856z M209.486,40.911
			c1.087,1.086,2.173,2.172,3.259,3.26c0.466,0.463,0.617,0.466,1.102,0.003c0.068-0.066,0.136-0.134,0.197-0.204
			c0.316-0.364,0.312-0.555-0.027-0.895c-2.229-2.229-4.459-4.461-6.69-6.69c-0.337-0.337-0.535-0.345-0.895-0.029
			c-0.104,0.094-0.207,0.195-0.3,0.3c-0.338,0.379-0.333,0.567,0.022,0.922C207.265,38.689,208.376,39.8,209.486,40.911z
			 M227.686,22.683c1.137,1.136,2.271,2.272,3.407,3.406c0.277,0.275,0.485,0.284,0.791,0.029c0.115-0.097,0.227-0.203,0.33-0.316
			c0.372-0.406,0.367-0.59-0.019-0.976c-2.195-2.197-4.393-4.395-6.59-6.591c-0.434-0.433-0.598-0.435-1.052-0.007
			c-0.085,0.08-0.168,0.165-0.244,0.253c-0.289,0.339-0.284,0.54,0.019,0.843C225.446,20.445,226.566,21.564,227.686,22.683z
			 M208.849,42.175c0.13,0.129,0.219,0.218,0.308,0.307c0.717,0.716,1.432,1.435,2.15,2.147c0.195,0.192,0.406,0.337,0.669,0.101
			c0.234-0.215,0.225-0.41-0.055-0.69c-1.851-1.854-3.703-3.707-5.558-5.558c-0.263-0.263-0.496-0.276-0.695-0.052
			c-0.233,0.265-0.085,0.476,0.106,0.668c0.715,0.718,1.433,1.434,2.147,2.15c0.09,0.089,0.179,0.177,0.305,0.304
			c-0.266,0.265-0.501,0.509-0.744,0.743c-0.221,0.213-0.231,0.424-0.011,0.634c0.213,0.205,0.424,0.213,0.638-0.013
			C208.344,42.671,208.587,42.437,208.849,42.175z M229.522,20.255c-0.124-0.124-0.213-0.213-0.301-0.302
			c-0.726-0.725-1.446-1.454-2.176-2.173c-0.306-0.302-0.688-0.251-0.763,0.119c-0.03,0.159,0.091,0.4,0.219,0.529
			c1.81,1.829,3.634,3.646,5.453,5.465c0.074,0.074,0.153,0.186,0.239,0.194c0.154,0.016,0.356,0.016,0.466-0.07
			c0.094-0.075,0.135-0.287,0.112-0.423c-0.019-0.121-0.144-0.232-0.24-0.33c-0.689-0.694-1.384-1.384-2.074-2.076
			c-0.095-0.095-0.181-0.199-0.297-0.326c0.258-0.258,0.484-0.494,0.724-0.722c0.223-0.211,0.23-0.426,0.02-0.637
			c-0.206-0.207-0.42-0.222-0.638,0.006C230.031,19.756,229.787,19.991,229.522,20.255z"/>
		<path fill-rule="evenodd" clip-rule="evenodd" fill="#006ADA" d="M213.048,36.856c3.942-3.942,7.842-7.842,11.765-11.765
			c-0.11-0.121-0.206-0.236-0.311-0.341c-1.013-1.015-2.019-2.034-3.045-3.035c-0.265-0.259-0.313-0.493-0.097-0.795
			c0.443-0.619,0.967-1.153,1.599-1.576c0.253-0.17,0.469-0.138,0.686,0.08c2.443,2.449,4.891,4.896,7.339,7.339
			c0.222,0.222,0.266,0.465,0.063,0.681c-0.521,0.556-1.058,1.095-1.613,1.615c-0.229,0.216-0.475,0.156-0.707-0.078
			c-0.945-0.964-1.91-1.908-2.856-2.874c-0.211-0.214-0.34-0.226-0.563-0.002c-3.737,3.75-7.482,7.496-11.233,11.234
			c-0.23,0.229-0.196,0.357,0.01,0.562c0.957,0.938,1.892,1.896,2.851,2.834c0.258,0.25,0.313,0.511,0.077,0.764
			c-0.516,0.542-1.051,1.07-1.598,1.58c-0.221,0.202-0.463,0.149-0.681-0.07c-2.444-2.449-4.891-4.896-7.341-7.341
			c-0.219-0.218-0.242-0.434-0.072-0.685c0.425-0.632,0.958-1.156,1.579-1.597c0.283-0.2,0.515-0.177,0.767,0.08
			c1.004,1.023,2.023,2.031,3.037,3.045C212.808,36.615,212.913,36.721,213.048,36.856z"/>
		<path fill-rule="evenodd" clip-rule="evenodd" fill="#006ADA" d="M209.486,40.911c-1.11-1.111-2.222-2.222-3.332-3.334
			c-0.355-0.354-0.36-0.543-0.022-0.922c0.093-0.104,0.195-0.206,0.3-0.3c0.359-0.315,0.558-0.308,0.895,0.029
			c2.231,2.229,4.462,4.461,6.69,6.69c0.339,0.34,0.344,0.53,0.027,0.895c-0.062,0.07-0.129,0.138-0.197,0.204
			c-0.484,0.463-0.636,0.46-1.102-0.003C211.659,43.083,210.573,41.997,209.486,40.911z"/>
		<path fill-rule="evenodd" clip-rule="evenodd" fill="#006ADA" d="M227.686,22.683c-1.119-1.119-2.239-2.238-3.357-3.358
			c-0.303-0.303-0.308-0.504-0.019-0.843c0.076-0.089,0.159-0.173,0.244-0.253c0.454-0.428,0.618-0.425,1.052,0.007
			c2.197,2.196,4.395,4.394,6.59,6.591c0.386,0.385,0.391,0.57,0.019,0.976c-0.104,0.113-0.215,0.219-0.33,0.316
			c-0.306,0.254-0.514,0.246-0.791-0.029C229.956,24.955,228.822,23.819,227.686,22.683z"/>
		<path fill-rule="evenodd" clip-rule="evenodd" fill="#006ADA" d="M208.849,42.175c-0.262,0.262-0.505,0.496-0.739,0.741
			c-0.214,0.226-0.425,0.218-0.638,0.013c-0.221-0.21-0.21-0.421,0.011-0.634c0.243-0.234,0.479-0.479,0.744-0.743
			c-0.126-0.127-0.215-0.215-0.305-0.304c-0.715-0.717-1.433-1.433-2.147-2.15c-0.191-0.192-0.34-0.403-0.106-0.668
			c0.199-0.225,0.433-0.211,0.695,0.052c1.854,1.851,3.707,3.703,5.558,5.558c0.279,0.28,0.289,0.476,0.055,0.69
			c-0.263,0.236-0.474,0.092-0.669-0.101c-0.719-0.713-1.434-1.432-2.15-2.147C209.067,42.393,208.979,42.304,208.849,42.175z"/>
		<path fill-rule="evenodd" clip-rule="evenodd" fill="#006ADA" d="M229.522,20.255c0.265-0.265,0.509-0.5,0.744-0.746
			c0.218-0.228,0.432-0.212,0.638-0.006c0.211,0.21,0.203,0.425-0.02,0.637c-0.239,0.229-0.466,0.464-0.724,0.722
			c0.116,0.127,0.202,0.231,0.297,0.326c0.69,0.692,1.385,1.382,2.074,2.076c0.097,0.098,0.222,0.208,0.24,0.33
			c0.022,0.137-0.019,0.349-0.112,0.423c-0.109,0.086-0.312,0.086-0.466,0.07c-0.086-0.008-0.165-0.12-0.239-0.194
			c-1.819-1.819-3.644-3.636-5.453-5.465c-0.128-0.129-0.249-0.37-0.219-0.529c0.074-0.37,0.457-0.421,0.763-0.119
			c0.729,0.719,1.45,1.448,2.176,2.173C229.31,20.042,229.398,20.131,229.522,20.255z"/>
	</g>
</g>
<image overflow="visible" width="197" height="271" xlink:href="51306088.jpg"  transform="matrix(1 0 0 1 265 -152)">
</image>
</svg>
