<?xml version="1.0" encoding="utf-8"?>
<!-- Generator: Adobe Illustrator 16.0.0, SVG Export Plug-In . SVG Version: 6.00 Build 0)  -->
<!DOCTYPE svg PUBLIC "-//W3C//DTD SVG 1.0//EN" "http://www.w3.org/TR/2001/REC-SVG-20010904/DTD/svg10.dtd">
<svg version="1.0" id="Layer_1" xmlns="http://www.w3.org/2000/svg" xmlns:xlink="http://www.w3.org/1999/xlink" x="0px" y="0px"
	 width="75px" height="75px" viewBox="0 0 75 75" enable-background="new 0 0 75 75" xml:space="preserve">
<path fill="#010101" d="M68.605,14.576l-8.182-8.182c-1.192-1.191-3.132-1.191-4.323,0L40.695,21.799
	c-0.386,0.386-0.386,1.011,0,1.396s1.012,0.386,1.397,0L57.497,7.791c0.205-0.203,0.477-0.316,0.765-0.316
	c0.288,0,0.56,0.113,0.765,0.316l8.182,8.182c0.204,0.205,0.317,0.477,0.317,0.766s-0.113,0.56-0.317,0.764L65.2,19.509
	l-5.261-5.261c-0.386-0.386-1.011-0.386-1.396,0s-0.386,1.011,0,1.397l5.261,5.261l-2.294,2.294l-2.313-2.313
	c-0.385-0.385-1.011-0.385-1.396,0c-0.385,0.387-0.385,1.012,0,1.397l2.313,2.312l-2.294,2.295l-2.312-2.313
	c-0.387-0.386-1.012-0.386-1.397,0s-0.386,1.012,0,1.396l2.313,2.313l-2.294,2.295l-5.261-5.262c-0.386-0.386-1.012-0.387-1.397,0
	c-0.387,0.386-0.387,1.012,0,1.396l5.26,5.262l-2.293,2.293l-2.313-2.312c-0.386-0.386-1.011-0.386-1.397,0
	c-0.385,0.386-0.385,1.011,0,1.397l2.313,2.313l-1.942,1.939l-9.71-9.711l1.806-1.806c0.387-0.386,0.387-1.011,0-1.397
	c-0.385-0.386-1.011-0.386-1.397,0l-1.806,1.807L17.77,8.283c-1.268-1.268-2.952-1.965-4.744-1.965S9.549,7.015,8.282,8.283
	c-1.268,1.268-1.965,2.952-1.965,4.744c0,1.793,0.698,3.477,1.965,4.744l18.221,18.221L6.395,56.099
	c-1.191,1.192-1.191,3.131,0,4.323l8.182,8.183c0.578,0.576,1.345,0.895,2.162,0.895s1.584-0.318,2.161-0.895l20.107-20.107
	l1.432,1.432c0.386,0.386,1.011,0.386,1.397,0c0.386-0.387,0.386-1.012,0-1.396l-1.977-1.977c-0.038-0.062-0.083-0.119-0.136-0.172
	c-0.053-0.053-0.111-0.098-0.171-0.137L18.149,24.845l2.648-2.648l1.638,1.637c0.193,0.193,0.445,0.289,0.698,0.289
	s0.505-0.096,0.698-0.289c0.386-0.385,0.386-1.01,0-1.396l-1.637-1.638l2.648-2.648l10.448,10.447c0,0.001,0,0.001,0.001,0.001
	c0,0.001,0.001,0.001,0.001,0.002l11.01,11.01c0.027,0.035,0.057,0.07,0.09,0.104c0.033,0.033,0.068,0.063,0.104,0.09l14.658,14.658
	l-2.648,2.648l-14.79-14.789c-0.008-0.01-0.017-0.021-0.026-0.029l-5.898-5.897c-0.01-0.01-0.021-0.019-0.03-0.028L27.345,25.95
	c-0.386-0.386-1.011-0.386-1.397,0s-0.386,1.011,0,1.397l31.161,31.161l-2.649,2.647l-9.387-9.386c-0.386-0.386-1.012-0.386-1.396,0
	c-0.387,0.386-0.387,1.011,0,1.396l10.085,10.086c0.096,0.096,0.215,0.173,0.341,0.222l11.934,4.634
	c0.188,0.073,0.384,0.108,0.58,0.108c0.418,0,0.828-0.163,1.134-0.47c0.449-0.448,0.59-1.122,0.36-1.714l-4.639-11.929
	c-0.049-0.126-0.126-0.245-0.222-0.341L48.496,39.008l20.11-20.109C69.797,17.707,69.797,15.768,68.605,14.576z M37.611,47.101
	l-1.939,1.938l-2.312-2.313c-0.386-0.385-1.011-0.385-1.396,0c-0.386,0.385-0.386,1.012,0,1.396l2.312,2.313l-2.294,2.295
	l-5.261-5.262c-0.386-0.385-1.011-0.385-1.397,0c-0.386,0.386-0.386,1.012,0,1.396l5.261,5.262l-2.294,2.294l-2.313-2.313
	c-0.386-0.385-1.011-0.385-1.396,0c-0.386,0.386-0.386,1.012,0,1.397l2.312,2.313l-2.294,2.293L22.287,57.8
	c-0.386-0.387-1.011-0.387-1.397,0c-0.385,0.385-0.385,1.01,0,1.396l2.313,2.312l-2.294,2.295l-5.261-5.262
	c-0.386-0.386-1.011-0.386-1.397,0s-0.386,1.012,0,1.396l5.261,5.262l-2.008,2.009c-0.204,0.203-0.476,0.316-0.765,0.316
	c-0.289,0-0.56-0.113-0.764-0.316l-8.182-8.184c-0.421-0.421-0.421-1.107,0-1.528L27.9,37.389L37.611,47.101z M9.679,16.375
	c-1.846-1.846-1.846-4.849,0-6.694c1.846-1.847,4.849-1.847,6.694,0l3.122,3.122l-6.694,6.694L9.679,16.375z M20.1,20.101
	L20.1,20.101C20.099,20.101,20.099,20.101,20.1,20.101l-3.348,3.348l-2.555-2.556l6.695-6.694l2.555,2.555L20.1,20.101z
	 M65.964,65.959l-9.733-3.778l5.95-5.949L65.964,65.959z"/>
</svg>
