<?xml version="1.0" encoding="utf-8"?>
<!-- Generator: Adobe Illustrator 16.0.0, SVG Export Plug-In . SVG Version: 6.00 Build 0)  -->
<!DOCTYPE svg PUBLIC "-//W3C//DTD SVG 1.1//EN" "http://www.w3.org/Graphics/SVG/1.1/DTD/svg11.dtd">
<svg version="1.1" id="Isolation_Mode" xmlns="http://www.w3.org/2000/svg" xmlns:xlink="http://www.w3.org/1999/xlink" x="0px"
	 y="0px" width="68.875px" fill="#006ada" height="68.875px" viewBox="0 0 68.875 68.875" enable-background="new 0 0 68.875 68.875"
	 xml:space="preserve">
<g>
	<g>
		<path fill="#006ada" d="M65.899,3.935c-0.042-0.511-0.448-0.917-0.959-0.96C64.758,2.96,55.252,2.3,44.078,7.24l17.557,17.559
			C66.576,13.623,65.915,4.117,65.899,3.935z"/>
	</g>
</g>
<g>
	<g>
		<path fill="#006ada" d="M60.689,26.82L42.058,8.189c-6.991,3.469-14.434,9.225-20.556,18.693l-8.244-0.551
			c-0.458-0.046-0.881,0.238-1.048,0.666l-6.37,16.276c-0.169,0.435-0.031,0.935,0.342,1.22c0.188,0.142,0.411,0.211,0.636,0.211
			c0.221,0,0.444-0.069,0.629-0.208l5.287-3.964l2.767,0.554l4.172,4.172l-1.147,2.062c-1.388-0.685-2.996-0.861-4.568-0.466
			c-2.104,0.535-3.822,1.973-4.718,3.941L3.032,64.453c-0.181,0.396-0.096,0.869,0.213,1.177c0.202,0.204,0.471,0.308,0.744,0.308
			c0.148,0,0.294-0.03,0.435-0.092l13.66-6.21c1.967-0.896,3.403-2.615,3.938-4.719c0.411-1.622,0.208-3.283-0.53-4.702l1.957-1.185
			l4.345,4.345l0.554,2.765l-3.964,5.287c-0.283,0.373-0.281,0.893,0.004,1.266c0.201,0.269,0.515,0.415,0.834,0.415
			c0.129,0,0.258-0.023,0.383-0.073l16.278-6.367c0.427-0.169,0.694-0.593,0.666-1.05l-0.551-8.244
			C51.463,41.251,57.219,33.811,60.689,26.82z M19.985,54.398c-0.375,1.484-1.386,2.691-2.771,3.322L6.104,62.773l5.051-11.113
			c0.631-1.384,1.84-2.396,3.322-2.769c0.389-0.1,0.781-0.149,1.169-0.149c0.65,0,1.285,0.142,1.864,0.407
			c-0.237,0.427-0.476,0.854-0.714,1.28c-0.323,0.581-0.662,1.292-0.014,1.819c0.579,0.473,1.194,0.092,1.732-0.212
			c0.401-0.227,0.804-0.454,1.207-0.685C20.152,52.279,20.251,53.353,19.985,54.398z M19.479,30.23
			c-0.134,0.238-0.269,0.47-0.399,0.712c-0.361,0.665-0.712,1.346-1.056,2.034c-0.113,0.227-0.232,0.445-0.345,0.677
			c-0.441,0.903-0.865,1.822-1.276,2.761c-0.116,0.266-0.227,0.546-0.34,0.819c-0.237,0.557-0.475,1.11-0.7,1.68l-2.676-0.534
			c-0.292-0.058-0.596,0.012-0.836,0.192l-2.707,2.03l4.745-12.124l6.339,0.423C19.97,29.335,19.726,29.788,19.479,30.23z
			 M20.277,48.492l1.514-2.719c0.046-0.054,0.107-0.093,0.142-0.158l5.007-9.082h5.406v4.66L20.277,48.492z M28.275,59.731
			l2.03-2.707c0.18-0.238,0.248-0.542,0.19-0.834l-0.534-2.673c0.579-0.23,1.142-0.473,1.711-0.715
			c0.262-0.112,0.531-0.216,0.786-0.327c0.94-0.411,1.863-0.839,2.771-1.276c0.22-0.108,0.428-0.224,0.645-0.331
			c0.698-0.35,1.39-0.704,2.063-1.073c0.239-0.127,0.466-0.261,0.698-0.388c0.448-0.254,0.903-0.5,1.342-0.758l0.421,6.341
			L28.275,59.731z M42.913,35.015c-2.319,0-4.638-0.881-6.404-2.647c-3.532-3.532-3.532-9.278,0-12.81
			c3.531-3.532,9.278-3.532,12.811,0c3.529,3.531,3.529,9.277,0,12.81C47.552,34.134,45.231,35.015,42.913,35.015z"/>
	</g>
</g>
<path fill-rule="evenodd" clip-rule="evenodd" d="M39.086,26.531c-0.121-0.119-0.16-0.244-0.16-0.388c0.001-1.117,0-2.233,0-3.351
	c0-0.17,0-0.339,0-0.508c0-0.295,0.209-0.506,0.504-0.506c1.293-0.002,2.586-0.002,3.878-0.002c0.29,0.001,0.502,0.208,0.504,0.498
	c0.004,0.511,0.005,1.021,0.002,1.533c-0.001,0.289-0.21,0.502-0.486,0.505c-0.277,0.003-0.489-0.216-0.493-0.511
	c-0.002-0.207,0.002-0.416,0.001-0.624c0-0.271-0.146-0.421-0.413-0.421c-0.703-0.002-1.406-0.002-2.109,0
	c-0.264,0-0.408,0.15-0.408,0.416c0.002,0.69,0.002,1.381,0,2.071c0,0.296,0.137,0.44,0.434,0.44
	c1.283,0.002,2.564,0.001,3.848,0.001c1.006,0,2.012-0.001,3.018,0c0.314,0,0.52,0.208,0.52,0.522c0,1.27,0,2.539,0,3.809
	c0,0.363-0.192,0.557-0.553,0.557c-1.254,0-2.508-0.002-3.762,0.002c-0.241,0-0.427-0.076-0.531-0.301
	c-0.025-0.055-0.041-0.119-0.041-0.18c-0.002-0.527-0.005-1.055,0-1.582c0.004-0.373,0.395-0.605,0.717-0.43
	c0.166,0.091,0.258,0.235,0.26,0.43c0.002,0.221,0.001,0.441,0.002,0.664c0,0.268,0.147,0.416,0.416,0.416
	c0.71,0.002,1.42,0.002,2.129,0c0.227,0,0.381-0.143,0.382-0.371c0.005-0.725,0.005-1.451,0.001-2.178
	c-0.002-0.234-0.16-0.379-0.395-0.379c-1.228-0.001-2.453,0.001-3.681,0.001c-1.077,0-2.153-0.002-3.231-0.002
	C39.292,26.665,39.168,26.621,39.086,26.531z"/>
</svg>
