<?xml version="1.0" encoding="utf-8"?>
<!-- Generator: Adobe Illustrator 16.0.0, SVG Export Plug-In . SVG Version: 6.00 Build 0)  -->
<!DOCTYPE svg PUBLIC "-//W3C//DTD SVG 1.0//EN" "http://www.w3.org/TR/2001/REC-SVG-20010904/DTD/svg10.dtd">
<svg version="1.0" id="Layer_1" xmlns="http://www.w3.org/2000/svg" xmlns:xlink="http://www.w3.org/1999/xlink" x="0px" y="0px"
	 width="75px" height="75px" viewBox="0 0 75 75" enable-background="new 0 0 75 75" xml:space="preserve">
<g>
	<path fill-rule="evenodd" clip-rule="evenodd" d="M37.495,56.271c-10.341,0.005-18.729-8.396-18.748-18.777
		c-0.019-10.29,8.433-18.745,18.726-18.733c10.379,0.013,18.784,8.4,18.782,18.743C56.252,47.861,47.852,56.265,37.495,56.271z
		 M50.27,48.28c4.957-5.313,6.04-15.588-0.81-22.55c-6.751-6.862-17.915-6.646-24.366,0.447c-6.424,7.064-5.127,16.826-0.363,21.98
		c0.053-0.072,0.105-0.139,0.151-0.211c2.177-3.499,5.341-5.227,9.446-5.248c2.183-0.011,4.365,0,6.547-0.002
		c2.396-0.002,4.533,0.757,6.439,2.192C48.536,45.807,49.493,46.961,50.27,48.28z M48.921,49.767
		c-1.468-2.775-3.643-4.623-6.771-4.987c-1.984-0.23-4.011-0.124-6.018-0.126c-1.186-0.002-2.391-0.047-3.552,0.145
		c-3.023,0.499-5.157,2.232-6.495,4.964C32.404,55.712,42.354,55.887,48.921,49.767z"/>
	<path fill-rule="evenodd" clip-rule="evenodd" d="M38.522,8.601c-0.021,0.41-0.038,0.616-0.038,0.822
		c-0.004,1.943-0.002,3.886-0.007,5.829c-0.001,0.562-0.14,1.041-0.803,1.137c-0.718,0.104-1.141-0.284-1.147-1.11
		c-0.017-1.942-0.008-3.885-0.01-5.829c0-0.211,0-0.423,0-0.829c-0.772,0.768-1.402,1.43-2.075,2.045
		c-0.239,0.219-0.595,0.465-0.876,0.442c-0.3-0.025-0.742-0.309-0.815-0.567c-0.093-0.323,0.007-0.846,0.232-1.091
		c0.99-1.081,2.055-2.096,3.093-3.132c1.412-1.41,1.438-1.409,2.867,0.019c0.992,0.992,1.986,1.981,2.976,2.979
		c0.554,0.557,0.606,1.083,0.171,1.525c-0.44,0.449-0.967,0.405-1.521-0.15C39.928,10.051,39.301,9.397,38.522,8.601z"/>
	<path fill-rule="evenodd" clip-rule="evenodd" d="M8.805,36.534c1.68,0,3.36,0,5.039,0c0.389,0,0.777-0.003,1.166,0
		c0.994,0.01,1.369,0.273,1.377,0.965c0.008,0.701-0.369,0.991-1.345,0.995c-1.878,0.007-3.757,0.003-5.634,0.006
		c-0.205,0-0.41,0.021-0.832,0.042c0.778,0.753,1.428,1.37,2.063,2.001c0.593,0.588,0.646,1.12,0.181,1.568
		c-0.443,0.431-0.961,0.374-1.524-0.186c-1.193-1.188-2.384-2.376-3.569-3.571c-0.6-0.604-0.605-1.067-0.016-1.663
		c1.199-1.211,2.403-2.418,3.613-3.62c0.541-0.537,1.099-0.574,1.527-0.126c0.416,0.436,0.378,0.952-0.148,1.477
		c-0.654,0.65-1.33,1.279-1.994,1.917C8.74,36.404,8.773,36.469,8.805,36.534z"/>
	<path fill-rule="evenodd" clip-rule="evenodd" d="M66.271,36.353c-0.661-0.646-1.331-1.284-1.982-1.941
		c-0.524-0.526-0.559-1.041-0.132-1.476c0.425-0.432,0.966-0.409,1.481,0.101c1.243,1.229,2.48,2.465,3.709,3.71
		c0.504,0.509,0.507,1.022,0.008,1.527c-1.244,1.259-2.496,2.511-3.758,3.753c-0.481,0.475-1.021,0.486-1.432,0.076
		c-0.416-0.415-0.405-0.945,0.069-1.431c0.663-0.677,1.347-1.333,2.151-2.125c-0.375-0.023-0.592-0.048-0.809-0.048
		c-1.942-0.005-3.885,0.004-5.828-0.01c-0.752-0.005-1.088-0.29-1.133-0.877c-0.052-0.696,0.313-1.065,1.13-1.072
		c1.728-0.016,3.454-0.006,5.181-0.006c0.426,0,0.851,0,1.275,0C66.227,36.474,66.249,36.414,66.271,36.353z"/>
	<path fill-rule="evenodd" clip-rule="evenodd" d="M38.658,66.298c0.627-0.645,1.248-1.295,1.881-1.932
		c0.566-0.569,1.095-0.639,1.521-0.221c0.469,0.458,0.423,0.997-0.152,1.576c-1.186,1.195-2.377,2.385-3.572,3.571
		c-0.596,0.59-1.068,0.594-1.666,0.003c-1.213-1.2-2.418-2.405-3.619-3.616c-0.523-0.529-0.568-1.043-0.156-1.48
		c0.432-0.458,0.973-0.426,1.521,0.121c0.652,0.649,1.287,1.315,2.052,2.099c0.024-0.393,0.048-0.596,0.049-0.798
		c0.003-1.943,0.002-3.885,0.007-5.829c0-0.556,0.119-1.044,0.783-1.15c0.719-0.114,1.158,0.274,1.166,1.089
		c0.018,1.813,0.006,3.625,0.007,5.438c0,0.344,0,0.686,0,1.03C38.539,66.232,38.6,66.265,38.658,66.298z"/>
	<path fill-rule="evenodd" clip-rule="evenodd" d="M17.854,16.609c0.286,0.251,0.589,0.487,0.859,0.756
		c1.273,1.261,2.541,2.528,3.804,3.802c0.528,0.532,0.571,1.037,0.155,1.479c-0.433,0.458-0.975,0.424-1.523-0.122
		c-1.381-1.37-2.757-2.743-4.119-4.129c-0.16-0.162-0.229-0.413-0.34-0.623c-0.098,0.069-0.195,0.137-0.293,0.206
		c0,0.919,0.004,1.837-0.002,2.755c-0.006,0.871-0.301,1.241-0.965,1.235c-0.64-0.005-0.983-0.424-0.987-1.251
		c-0.007-1.685-0.008-3.369,0.004-5.054c0.007-0.868,0.317-1.196,1.163-1.202c1.728-0.014,3.455-0.005,5.184-0.005
		c0.107,0,0.217,0.003,0.323,0.021c0.575,0.097,0.872,0.463,0.836,1.038c-0.036,0.569-0.355,0.87-0.915,0.884
		c-0.82,0.02-1.641,0.01-2.461,0.016c-0.206,0.001-0.412,0.019-0.617,0.028C17.924,16.499,17.888,16.554,17.854,16.609z"/>
	<path fill-rule="evenodd" clip-rule="evenodd" d="M58.604,57.215c0-1.113-0.006-2.035,0.002-2.957
		c0.007-0.839,0.288-1.188,0.937-1.198c0.648-0.009,1.008,0.406,1.012,1.224c0.01,1.707,0.012,3.415-0.002,5.123
		c-0.007,0.819-0.332,1.152-1.142,1.16c-1.751,0.015-3.503,0.013-5.253,0c-0.695-0.005-1.048-0.299-1.107-0.846
		c-0.068-0.638,0.254-1.06,0.898-1.087c0.799-0.033,1.599-0.01,2.398-0.017c0.229-0.002,0.457-0.019,0.686-0.03
		c0.067-0.09,0.137-0.182,0.205-0.272c-0.211-0.111-0.465-0.179-0.629-0.34c-1.342-1.317-2.667-2.652-3.996-3.982
		c-0.65-0.651-0.734-1.146-0.279-1.618c0.469-0.488,0.987-0.405,1.665,0.273c1.315,1.313,2.63,2.628,3.944,3.942
		C58.109,56.756,58.285,56.913,58.604,57.215z"/>
	<path fill-rule="evenodd" clip-rule="evenodd" d="M58.524,17.841c-1.506,1.511-3.007,3.027-4.523,4.526
		c-0.206,0.204-0.507,0.469-0.739,0.447c-0.338-0.031-0.733-0.228-0.959-0.482c-0.305-0.344-0.182-0.784,0.136-1.111
		c0.69-0.712,1.395-1.412,2.101-2.109c0.885-0.875,1.775-1.741,2.664-2.612c-0.022-0.058-0.047-0.114-0.069-0.172
		c-0.957,0-1.913,0.012-2.87-0.003c-0.748-0.013-1.125-0.345-1.122-0.964c0.003-0.546,0.251-0.95,0.829-0.958
		c1.942-0.022,3.885-0.021,5.826,0c0.502,0.005,0.813,0.33,0.817,0.831c0.018,1.92,0.021,3.841,0.003,5.761
		c-0.004,0.569-0.368,0.854-0.921,0.878c-0.562,0.024-0.955-0.296-0.989-0.885c-0.045-0.796-0.021-1.596-0.026-2.395
		c-0.001-0.231,0-0.462,0-0.694C58.629,17.88,58.576,17.861,58.524,17.841z"/>
	<path fill-rule="evenodd" clip-rule="evenodd" d="M16.361,57.373c0.43-0.464,0.721-0.8,1.031-1.114
		c1.217-1.224,2.438-2.447,3.663-3.663c0.521-0.516,1.042-0.562,1.478-0.154c0.451,0.424,0.42,0.981-0.119,1.522
		c-1.525,1.526-3.061,3.043-4.682,4.655c0.264,0.035,0.417,0.072,0.569,0.074c0.885,0.011,1.771-0.014,2.653,0.027
		c0.598,0.029,0.91,0.409,0.906,0.972c-0.005,0.563-0.325,0.935-0.926,0.942c-1.878,0.022-3.756,0.016-5.634,0.004
		c-0.597-0.004-0.924-0.349-0.928-0.938c-0.013-1.856-0.02-3.713,0.001-5.569c0.006-0.654,0.363-0.978,0.955-0.978
		c0.582,0.001,0.946,0.333,0.974,0.977c0.033,0.797,0.011,1.597,0.019,2.396C16.324,56.732,16.341,56.939,16.361,57.373z"/>
	<path fill-rule="evenodd" clip-rule="evenodd" d="M45.801,33.824c-0.01,4.499-3.754,8.191-8.311,8.19
		c-4.615-0.001-8.306-3.676-8.29-8.253c0.017-4.495,3.775-8.18,8.331-8.166C42.082,25.609,45.809,29.317,45.801,33.824z
		 M37.473,40.139c3.51,0.013,6.375-2.787,6.378-6.232c0.003-3.417-2.839-6.236-6.302-6.251c-3.55-0.015-6.382,2.727-6.398,6.195
		C31.134,37.311,33.965,40.125,37.473,40.139z"/>
</g>
</svg>
