<svg xmlns="http://www.w3.org/2000/svg" viewBox="0 0 201.66 119.64"><defs><style>.cls-1{fill:#006ada;}</style></defs><title>Asset 2</title><g id="Layer_2" data-name="Layer 2"><g id="Layer_1-2" data-name="Layer 1"><path class="cls-1" d="M182.16,39.93a19.6,19.6,0,0,0-6.7,1.2L160.53,26.2A19.49,19.49,0,1,0,142.23,39a19.35,19.35,0,0,0,8.26-1.86l14,14a19.35,19.35,0,0,0-1.86,8.26,19.6,19.6,0,0,0,1.19,6.66L148.11,81.83a19.53,19.53,0,1,0,11,10l14.79-14.78a19.49,19.49,0,1,0,8.29-37.13ZM134.51,27.38a11,11,0,1,1,15.56,0A11,11,0,0,1,134.51,27.38Zm14.56,81a11,11,0,1,1,0-15.55A11,11,0,0,1,149.07,108.38Zm41-41a11,11,0,1,1,0-15.55A11,11,0,0,1,190.07,67.38Z"/><circle class="cls-1" cx="100.14" cy="60.21" r="19.5"/><path class="cls-1" d="M60.21,80.64a19.32,19.32,0,0,0-6.66,1.19L37.81,66.09a19.25,19.25,0,0,0-.67-14.92l14-14A19.49,19.49,0,1,0,39.93,19.5a19.6,19.6,0,0,0,1.2,6.7L26.2,41.13a19.49,19.49,0,1,0-6.7,37.8,19.38,19.38,0,0,0,8.3-1.87L42.58,91.84a19.49,19.49,0,1,0,17.63-11.2Zm-7.7-68.81a11,11,0,1,1,0,15.55A11,11,0,0,1,52.51,11.83Zm-41,55.55a11,11,0,1,1,15.56,0A11,11,0,0,1,11.51,67.38Zm56.56,41a11,11,0,1,1,0-15.55A11,11,0,0,1,68.07,108.38Z"/></g></g></svg>