<svg xmlns="http://www.w3.org/2000/svg" viewBox="0 0 177.43 94.46"><defs><style>.cls-1{fill:#006ada;}</style></defs><title>Asset 4</title><g id="Layer_2" data-name="Layer 2"><g id="Layer_1-2" data-name="Layer 1"><path class="cls-1" d="M108.23,29.71a27.6,27.6,0,1,0,0,39A27.59,27.59,0,0,0,108.23,29.71ZM104,50.4a11,11,0,1,1,0-15.56A11,11,0,0,1,104,50.4Z"/><path class="cls-1" d="M42.06,2.17,2.16,42.07a7.45,7.45,0,0,0,0,10.49L41.9,92.29a7.41,7.41,0,0,0,10.49,0h0a7.43,7.43,0,0,0,0-10.49L22.09,51.51s-4.19-4.2,0-8.39L52.55,12.66a7.43,7.43,0,0,0,0-10.49h0A7.43,7.43,0,0,0,42.06,2.17Z"/><path class="cls-1" d="M135.37,2.17l39.9,39.9a7.45,7.45,0,0,1,0,10.49L135.53,92.29a7.41,7.41,0,0,1-10.49,0h0a7.41,7.41,0,0,1,0-10.49l30.3-30.29s4.19-4.2,0-8.39L124.88,12.66a7.43,7.43,0,0,1,0-10.49h0A7.43,7.43,0,0,1,135.37,2.17Z"/></g></g></svg>