<svg xmlns="http://www.w3.org/2000/svg" viewBox="0 0 174.42 160.17"><defs><style>.cls-1{fill:#006ada;}</style></defs><title>Asset 3</title><g id="Layer_2" data-name="Layer 2"><g id="Layer_1-2" data-name="Layer 1"><path class="cls-1" d="M122.27,68,82.2,108,51.15,139.07c-4,4-8,0-8,0l-22-22s-4-4,0-8l22-22c4-4,8,0,8,0l6.94,6.94a7.09,7.09,0,0,0,10-10l-16-16h0a7,7,0,0,0-2.34-1.55c-.21-.09-.43-.16-.65-.23a7.31,7.31,0,0,0-2-.29,7.07,7.07,0,0,0-5,2.07h0L2.07,108a7.1,7.1,0,0,0,0,10h0L42.13,158.1h0a7.1,7.1,0,0,0,10,0L92.22,118l31.05-31c4-4,8,0,8,0l22,22s4,4,0,8l-22,22c-4,4-8,0-8,0L116.19,132a7.08,7.08,0,0,0-10,10l16.09,16.1h0a7.1,7.1,0,0,0,10,0L172.36,118a7.12,7.12,0,0,0,0-10h0L132.29,68h0A7.1,7.1,0,0,0,122.27,68Z"/><path class="cls-1" d="M100.82,153.08c0,3.92-2.34,7.09-5.23,7.09H78.84c-2.9,0-5.24-3.17-5.24-7.09h0c0-3.91,2.34-7.08,5.24-7.08H95.59c2.89,0,5.23,3.17,5.23,7.08Z"/><path class="cls-1" d="M108.82,7.08c0,3.92-3.72,7.09-8.31,7.09H73.91c-4.59,0-8.31-3.17-8.31-7.09h0C65.6,3.17,69.32,0,73.91,0h26.6c4.59,0,8.31,3.17,8.31,7.08Z"/><path class="cls-1" d="M102.82,73c0,3.92-2.34,7.09-5.23,7.09H76.84c-2.9,0-5.24-3.17-5.24-7.09h0c0-3.91,2.34-7.08,5.24-7.08H97.59c2.89,0,5.23,3.17,5.23,7.08Z"/><path class="cls-1" d="M87.21,3.87c3.91,0,7.09,2.87,7.09,6.41V73.64c0,3.54-3.18,6.41-7.09,6.41h0c-3.91,0-7.08-2.87-7.08-6.41V10.28c0-3.54,3.17-6.41,7.08-6.41Z"/></g></g></svg>