<?xml version="1.0" encoding="utf-8"?>
<!-- Generator: Adobe Illustrator 16.0.0, SVG Export Plug-In . SVG Version: 6.00 Build 0)  -->
<!DOCTYPE svg PUBLIC "-//W3C//DTD SVG 1.0//EN" "http://www.w3.org/TR/2001/REC-SVG-20010904/DTD/svg10.dtd">
<svg version="1.0" id="Layer_1" xmlns="http://www.w3.org/2000/svg" xmlns:xlink="http://www.w3.org/1999/xlink" x="0px" y="0px"
	 width="75px" height="75px" viewBox="0 0 75 75" enable-background="new 0 0 75 75" xml:space="preserve">
<g>
	<g>
		<g>
			<path fill="#010101" d="M43.825,30.668h-0.003c-0.425,0-0.805,0.268-0.945,0.669c-0.832,2.376-3.195,4.038-5.901,3.794
				c-2.749-0.247-4.949-2.482-5.156-5.234c-0.25-3.338,2.395-6.136,5.681-6.136c2.327,0,4.333,1.403,5.216,3.407
				c0.163,0.371,0.521,0.614,0.925,0.614c0.73,0,1.21-0.751,0.915-1.42c-1.229-2.792-4.067-4.722-7.335-4.605
				c-3.979,0.14-7.232,3.354-7.419,7.331c-0.208,4.417,3.326,8.077,7.698,8.077c3.363,0,6.229-2.165,7.279-5.176
				C45.004,31.343,44.511,30.668,43.825,30.668z"/>
		</g>
	</g>
	<g>
		<g>
			<path fill="#010101" d="M65.647,18.4c2.032,0,3.687-1.654,3.687-3.687s-1.654-3.687-3.687-3.687
				c-1.684,0-3.106,1.136-3.545,2.681h-8.02c-0.526-0.664-1.095-1.301-1.704-1.906C48.397,7.846,43.113,5.666,37.5,5.666
				c-5.491,0-10.787,2.084-14.911,5.867c-0.298,0.271-0.584,0.551-0.862,0.835h-8.829c-0.438-1.546-1.861-2.681-3.545-2.681
				c-2.033,0-3.687,1.653-3.687,3.686c0,2.033,1.653,3.688,3.687,3.688c1.684,0,3.106-1.136,3.545-2.682h7.09
				c-2.347,3.085-3.671,6.617-3.719,10.084c0,0.004,0,0.01,0,0.014v6.337c0,0.082-0.019,0.163-0.056,0.236l-2.738,5.402
				c-0.662,1.308-0.6,2.833,0.167,4.08c0.768,1.249,2.1,1.995,3.565,1.995c0.288,0,0.522,0.233,0.522,0.522v4.168h-3.016
				c-0.556,0-1.006,0.45-1.006,1.006v9.717h-0.811c-0.438-1.545-1.861-2.68-3.545-2.68c-2.033,0-3.687,1.652-3.687,3.686
				c0,2.032,1.653,3.686,3.687,3.686c1.684,0,3.106-1.136,3.545-2.681h1.816c0.555,0,1.005-0.449,1.005-1.005v-9.718h2.011v1.487
				c0,1.397,1.137,2.534,2.533,2.534h4.985c0.288,0,0.523,0.234,0.523,0.523V66.8c0,1.397,1.137,2.534,2.534,2.534h23.75
				c1.397,0,2.534-1.137,2.534-2.534V54.59h6.172c0.439,1.545,1.861,2.681,3.546,2.681c2.032,0,3.687-1.653,3.687-3.686
				s-1.654-3.687-3.687-3.687c-1.685,0-3.106,1.136-3.546,2.682H54.59v-2.883c0-0.029,0.003-0.06,0.008-0.091l3.974-22.515l0,0
				c0.026-0.154,0.04-0.311,0.039-0.464c-0.027-3.912-1.114-7.658-3.119-10.908h6.611C62.541,17.265,63.964,18.4,65.647,18.4z
				 M65.647,13.039c0.925,0,1.676,0.751,1.676,1.675s-0.751,1.676-1.676,1.676c-0.924,0-1.676-0.752-1.676-1.676
				S64.724,13.039,65.647,13.039z M9.353,15.049c-0.925,0-1.676-0.751-1.676-1.676c0-0.924,0.751-1.675,1.676-1.675
				c0.924,0,1.676,0.751,1.676,1.675C11.028,14.298,10.276,15.049,9.353,15.049z M9.353,60.622c-0.925,0-1.676-0.752-1.676-1.676
				s0.751-1.676,1.676-1.676c0.924,0,1.676,0.752,1.676,1.676S10.276,60.622,9.353,60.622z M64.308,51.909
				c0.924,0,1.676,0.751,1.676,1.676c0,0.924-0.752,1.676-1.676,1.676s-1.676-0.752-1.676-1.676
				C62.632,52.66,63.384,51.909,64.308,51.909z M37.5,7.677c5.464,0,10.411,2.323,13.901,6.031h-5.859
				c-0.556,0-1.005,0.451-1.005,1.006v4.34c-0.703-0.477-1.451-0.882-2.233-1.206c-0.201-0.083-0.332-0.282-0.332-0.509v-1.341
				c0-1.416-1.152-2.568-2.567-2.568h-3.809c-1.416,0-2.567,1.152-2.567,2.568v1.341c0,0.227-0.131,0.426-0.332,0.509
				c-0.303,0.126-0.601,0.266-0.894,0.414v-4.889c0-0.555-0.449-1.005-1.005-1.005h-6.106C28.045,9.561,32.493,7.677,37.5,7.677z
				 M47.961,28.081c0.06,0.455,0.09,0.919,0.09,1.377c0,0.461-0.03,0.926-0.089,1.38c-0.135,1.027,0.36,2.026,1.263,2.547
				l1.163,0.671c0.129,0.075,0.221,0.195,0.26,0.339c0.038,0.145,0.019,0.295-0.056,0.424l-1.903,3.298
				c-0.075,0.129-0.195,0.222-0.339,0.26s-0.294,0.019-0.423-0.056l-1.165-0.672c-0.902-0.522-2.018-0.451-2.84,0.182
				c-0.732,0.563-1.536,1.027-2.388,1.38c-0.956,0.396-1.572,1.324-1.572,2.367v1.342c0,0.308-0.25,0.558-0.558,0.558h-3.809
				c-0.308,0-0.557-0.25-0.557-0.558v-1.342c0-1.042-0.617-1.971-1.573-2.367c-0.85-0.352-1.653-0.816-2.387-1.38
				c-0.456-0.352-1.003-0.529-1.553-0.529c-0.441,0-0.886,0.114-1.288,0.347l-1.164,0.673c-0.13,0.074-0.28,0.094-0.424,0.057
				c-0.144-0.039-0.264-0.132-0.339-0.261l-1.903-3.298c-0.153-0.266-0.063-0.608,0.204-0.763l1.164-0.671
				c0.903-0.521,1.398-1.521,1.263-2.549c-0.06-0.456-0.09-0.92-0.09-1.378c0-0.46,0.03-0.925,0.09-1.379
				c0.135-1.027-0.361-2.027-1.264-2.548l-1.163-0.671c-0.129-0.075-0.221-0.195-0.26-0.339c-0.038-0.145-0.019-0.294,0.056-0.423
				l1.904-3.299c0.074-0.128,0.194-0.221,0.338-0.26c0.144-0.037,0.294-0.019,0.424,0.056l1.164,0.672
				c0.902,0.522,2.018,0.45,2.84-0.181c0.039-0.03,0.079-0.059,0.119-0.089c0.131-0.057,0.248-0.141,0.343-0.246
				c0.604-0.414,1.25-0.767,1.926-1.046c0.956-0.396,1.573-1.324,1.573-2.367v-1.341c0-0.308,0.249-0.559,0.558-0.559h3.808
				c0.308,0,0.558,0.251,0.558,0.559v1.341c0,1.042,0.617,1.971,1.572,2.367c0.85,0.353,1.653,0.815,2.388,1.381
				c0.822,0.632,1.938,0.703,2.84,0.181l1.165-0.672c0.129-0.074,0.279-0.094,0.423-0.056c0.145,0.039,0.265,0.131,0.339,0.26
				l1.903,3.298c0.154,0.267,0.063,0.608-0.204,0.762l-1.164,0.672C48.321,26.053,47.826,27.053,47.961,28.081z M17.206,40.516
				c-0.76,0-1.453-0.387-1.852-1.035s-0.431-1.441-0.086-2.12l2.738-5.402c0.179-0.354,0.272-0.749,0.272-1.145v-6.33
				c0.05-3.462,1.646-7.101,4.332-10.104h7.182v5.153c-0.167,0.095-0.375,0.095-0.55-0.006l-1.164-0.672
				c-0.594-0.343-1.286-0.435-1.949-0.256c-0.662,0.177-1.216,0.602-1.56,1.196l-1.903,3.297c-0.344,0.595-0.435,1.287-0.257,1.949
				c0.178,0.663,0.603,1.217,1.196,1.56l1.164,0.672c0.195,0.113,0.303,0.326,0.274,0.545c-0.07,0.541-0.106,1.093-0.106,1.641
				c0,0.546,0.036,1.098,0.107,1.64c0.028,0.219-0.079,0.432-0.274,0.545l-1.165,0.672c-1.226,0.708-1.648,2.281-0.939,3.509
				l1.903,3.298c0.344,0.595,0.897,1.02,1.56,1.196c0.663,0.178,1.354,0.087,1.949-0.257l1.165-0.672
				c0.195-0.112,0.435-0.1,0.609,0.035c0.873,0.67,1.83,1.225,2.843,1.644c0.201,0.084,0.331,0.283,0.331,0.51v1.341
				c0,1.416,1.152,2.568,2.568,2.568h0.901c-0.001,0.019-0.003,0.037-0.003,0.056v1.676H19.74V43.05
				C19.74,41.652,18.604,40.516,17.206,40.516z M52.579,66.8c0,0.288-0.234,0.524-0.523,0.524h-23.75
				c-0.289,0-0.523-0.236-0.523-0.524V53.773c0-1.398-1.137-2.534-2.534-2.534h-4.984c-0.289,0-0.523-0.234-0.523-0.523v-1.487
				h16.755v4.356c0,0.555,0.45,1.005,1.005,1.005h15.079V66.8L52.579,66.8z M56.6,26.643c0,0.032-0.003,0.065-0.009,0.101v-0.001
				l-3.974,22.514c-0.025,0.145-0.038,0.294-0.038,0.441v2.882H38.505v-4.355v-2.682c0-0.019-0.002-0.037-0.003-0.056h0.902
				c1.415,0,2.567-1.152,2.567-2.568v-1.342c0-0.227,0.131-0.426,0.332-0.509c1.014-0.42,1.971-0.974,2.844-1.644
				c0.175-0.134,0.414-0.147,0.609-0.035l1.164,0.672c0.594,0.344,1.286,0.435,1.949,0.257c0.662-0.177,1.216-0.602,1.56-1.196
				l1.903-3.298c0.344-0.594,0.435-1.286,0.257-1.948c-0.178-0.664-0.603-1.217-1.196-1.561l-1.164-0.671
				c-0.195-0.114-0.303-0.327-0.274-0.545c0.07-0.541,0.106-1.094,0.106-1.641c0-0.546-0.036-1.098-0.106-1.64
				c-0.029-0.219,0.078-0.433,0.273-0.546l1.165-0.672c1.226-0.708,1.647-2.281,0.94-3.509l-1.904-3.297
				c-0.344-0.595-0.897-1.02-1.56-1.196c-0.662-0.179-1.354-0.087-1.949,0.256l-0.374,0.216v-3.352h6.507
				C55.26,18.81,56.571,22.579,56.6,26.643z"/>
		</g>
	</g>
</g>
</svg>
