<?xml version="1.0" encoding="utf-8"?>
<!-- Generator: Adobe Illustrator 16.0.0, SVG Export Plug-In . SVG Version: 6.00 Build 0)  -->
<!DOCTYPE svg PUBLIC "-//W3C//DTD SVG 1.1//EN" "http://www.w3.org/Graphics/SVG/1.1/DTD/svg11.dtd">
<svg version="1.1" xmlns="http://www.w3.org/2000/svg" xmlns:xlink="http://www.w3.org/1999/xlink" x="0px" y="0px" width="2048px"
	 height="1024px" viewBox="0 0 2048 1024" enable-background="new 0 0 2048 1024" xml:space="preserve">
<g id="Layer_1" display="none">
	
		<image display="inline" overflow="visible" width="4272" height="2848" xlink:href="D:\Ranga1\Design\CHENNAI_CENTRAL.jpg"  transform="matrix(1.0772 0 0 1.0772 -1276.9023 -2530.835)">
	</image>
</g>
<g id="Layer_42">
	<rect fill="#FFFFFF" width="2048" height="1024"/>
</g>
<g id="Toptriangle">
	<polygon fill="#38A6F8" stroke="#0068DC" stroke-width="6" stroke-miterlimit="10" points="977.099,97.606 914.102,252.099 
		1095.594,252.099 1040.67,97.667 	"/>
</g>
<g id="Layer_7">
	<polygon fill="#0068DC" points="913.337,251.667 913.337,981.328 1096.004,981.328 1096.004,251.905 	"/>
</g>
<g id="Topbelowtriangle">
</g>
<g id="Clocksbox">
	<polygon fill="#38A6F8" stroke="#0068DC" stroke-width="6" stroke-miterlimit="10" points="1007.337,149.671 968.337,213.333 
		955.337,213.333 955.337,294.667 1058.338,294.667 1058.338,214.333 1044.337,214.333 	"/>
</g>
<g id="Clock1">
	<circle fill="#38A6F8" stroke="#0068DC" stroke-width="3" stroke-miterlimit="10" cx="1007.004" cy="250.333" r="33.833"/>
</g>
<g id="Clock2">
	<circle fill="#FFFFFF" stroke="#0068DC" stroke-width="3" stroke-miterlimit="10" cx="1007.003" cy="250.333" r="26.928"/>
</g>
<g id="Layer_8">
	<polygon fill="#38A6F8" stroke="#0068DC" stroke-width="6" stroke-miterlimit="10" points="1095.094,680.571 1095.094,736.068 
		1698.557,736.068 1698.715,681.571 	"/>
</g>
<g id="Layer_9">
	<polygon fill="#38A6F8" stroke="#0068DC" stroke-width="6" stroke-miterlimit="10" points="914.557,682.571 914.557,738.068 
		303.094,738.068 303.504,682.571 	"/>
</g>
<g id="Layer_10">
	<rect x="305.144" y="737.84" fill="#0068DC" width="608.463" height="243.488"/>
</g>
<g id="Layer_11">
	<polygon fill="#0068DC" points="1095.907,735.84 1095.094,981.328 1696.557,981.328 1696.557,735.84 	"/>
</g>
<g id="Layer_12">
	<g>
		<path fill="#38A6F8" d="M395.98,840.372c0-15.308-12.41-27.718-27.719-27.718c-15.308,0-27.718,12.41-27.718,27.718v65.078h54.834
			L395.98,840.372z"/>
		<path fill="#38A6F8" d="M461.529,840.372c0-15.308-12.41-27.718-27.719-27.718c-15.308,0-27.718,12.41-27.718,27.718v65.078
			h54.834L461.529,840.372z"/>
	</g>
	<g>
		<path fill="#38A6F8" d="M540.049,840.372c0-15.308-12.41-27.718-27.719-27.718c-15.308,0-27.718,12.41-27.718,27.718v65.078
			h54.834L540.049,840.372z"/>
		<path fill="#38A6F8" d="M605.598,840.372c0-15.308-12.41-27.718-27.719-27.718c-15.308,0-27.718,12.41-27.718,27.718v65.078
			h54.834L605.598,840.372z"/>
	</g>
	<g>
		<path fill="#38A6F8" d="M684.118,840.372c0-15.308-12.41-27.718-27.719-27.718s-27.719,12.41-27.719,27.718v65.078h54.835
			L684.118,840.372z"/>
		<path fill="#38A6F8" d="M749.667,840.372c0-15.308-12.41-27.718-27.719-27.718s-27.719,12.41-27.719,27.718v65.078h54.835
			L749.667,840.372z"/>
	</g>
	<g>
		<path fill="#38A6F8" d="M828.186,840.372c0-15.308-12.41-27.718-27.719-27.718c-15.308,0-27.718,12.41-27.718,27.718v65.078
			h54.834L828.186,840.372z"/>
		<path fill="#38A6F8" d="M893.735,840.372c0-15.308-12.41-27.718-27.719-27.718c-15.308,0-27.718,12.41-27.718,27.718v65.078
			h54.834L893.735,840.372z"/>
	</g>
	<g>
		<path fill="#38A6F8" d="M1172.564,840.372c0-15.308-12.41-27.718-27.719-27.718c-15.307,0-27.717,12.41-27.717,27.718v65.078
			h54.834L1172.564,840.372z"/>
		<path fill="#38A6F8" d="M1238.113,840.372c0-15.308-12.41-27.718-27.719-27.718c-15.307,0-27.717,12.41-27.717,27.718v65.078
			h54.834L1238.113,840.372z"/>
	</g>
	<g>
		<path fill="#38A6F8" d="M1316.633,840.372c0-15.308-12.41-27.718-27.719-27.718c-15.307,0-27.717,12.41-27.717,27.718v65.078
			h54.834L1316.633,840.372z"/>
		<path fill="#38A6F8" d="M1382.182,840.372c0-15.308-12.41-27.718-27.719-27.718c-15.307,0-27.717,12.41-27.717,27.718v65.078
			h54.834L1382.182,840.372z"/>
	</g>
	<g>
		<path fill="#38A6F8" d="M1460.703,840.372c0-15.308-12.41-27.718-27.719-27.718s-27.719,12.41-27.719,27.718v65.078h54.834
			L1460.703,840.372z"/>
		<path fill="#38A6F8" d="M1526.252,840.372c0-15.308-12.41-27.718-27.719-27.718s-27.719,12.41-27.719,27.718v65.078h54.834
			L1526.252,840.372z"/>
	</g>
	<g>
		<path fill="#38A6F8" d="M1604.771,840.372c0-15.308-12.41-27.718-27.719-27.718s-27.719,12.41-27.719,27.718v65.078h54.834
			L1604.771,840.372z"/>
		<path fill="#38A6F8" d="M1670.32,840.372c0-15.308-12.41-27.718-27.719-27.718s-27.719,12.41-27.719,27.718v65.078h54.834
			L1670.32,840.372z"/>
	</g>
</g>
<g id="Layer_13">
</g>
<g id="Layer_14">
	<polygon opacity="0.2" points="1096.333,680.334 1114.333,680.334 1131.667,735.589 1095.094,735.589 	"/>
</g>
<g id="Layer_15">
	<polygon opacity="0.2" points="1695.667,735.84 1131.667,735.84 1131.667,735.589 1095.094,735.238 1095.094,981 1131.667,981 
		1131.667,773.001 1695.667,773.001 	"/>
</g>
<g id="Layer_17">
	<polygon opacity="0.2" fill="#0068DC" points="955.337,294.667 955.337,314.667 1078.333,314.667 1078.333,253 1058.667,253 
		1058.667,294.667 	"/>
</g>
<g id="Layer_18">
	<polygon opacity="0.2" fill="#0068DC" points="1006.667,148.339 1029.667,155.673 1060.667,211.006 1078,217.673 1078.333,253 
		1058.667,253 1058.667,215.339 1044.337,214.333 	"/>
</g>
<g id="Layer_20">
	<polygon fill="#38A6F8" stroke="#0068DC" stroke-width="6" stroke-miterlimit="10" points="1760.061,487.587 1697.063,642.079 
		1878.555,642.079 1823.631,487.647 	"/>
</g>
<g id="Layer_19">
	<polygon fill="#0068DC" points="1696.298,641.646 1696.298,981.328 1878.965,981.328 1878.965,641.758 1827.003,641.726 
		1787.668,583 1749.668,641.68 	"/>
</g>
<g id="Layer_22">
	<polygon fill="#38A6F8" stroke="#0068DC" stroke-width="6" stroke-miterlimit="10" points="185.59,487.587 122.592,642.079 
		304.084,642.079 249.16,487.647 	"/>
</g>
<g id="Layer_21">
	<polygon fill="#0068DC" points="121.298,641.646 121.298,981.328 303.965,981.328 303.965,641.758 252.003,641.726 212.668,583 
		174.668,641.68 	"/>
</g>
<g id="Layer_23">
	<polygon opacity="0.2" points="342,981 342,768 912,768 912,739 304,739 304,979 	"/>
	<rect x="-623.891" y="111.609" fill="#0068DC" width="124.688" height="124.688"/>
	<rect x="-623.891" y="301.922" fill="#38A6F8" width="124.688" height="124.688"/>
	<rect x="-623.891" y="474.734" fill="#006ada" width="124.688" height="124.688"/>
</g>
<g id="Layer_24">
	<polygon opacity="0.2" fill="#28100E" points="327,684 352,738 305,738 305,683 	"/>
</g>
<g id="Layer_25">
	<path fill="#38A6F8" d="M1802.271,636.47c0-7.853-6.366-14.218-14.219-14.218c-7.854,0-14.219,6.365-14.219,14.218v33.383h28.128
		L1802.271,636.47z"/>
	<path fill="#38A6F8" d="M227.271,636.47c0-7.853-6.366-14.218-14.219-14.218c-7.854,0-14.219,6.365-14.219,14.218v33.383h28.128
		L227.271,636.47z"/>
</g>
<g id="Layer_26">
	
		<line fill="none" stroke="#0068DC" stroke-width="6" stroke-linecap="round" stroke-linejoin="round" stroke-miterlimit="10" x1="977.099" y1="97.606" x2="977.099" y2="29.862"/>
	
		<line fill="none" stroke="#0068DC" stroke-width="6" stroke-linecap="round" stroke-linejoin="round" stroke-miterlimit="10" x1="1039.1" y1="97.606" x2="1039.1" y2="29.638"/>
	
		<line fill="none" stroke="#0068DC" stroke-width="6" stroke-linecap="round" stroke-linejoin="round" stroke-miterlimit="10" x1="1008.35" y1="97.25" x2="1008.35" y2="8.667"/>
	
		<line fill="none" stroke="#0068DC" stroke-width="6" stroke-linecap="round" stroke-linejoin="round" stroke-miterlimit="10" x1="979.5" y1="54.638" x2="1040.75" y2="54.638"/>
</g>
<g id="Layer_27">
	
		<line fill="none" stroke="#0068DC" stroke-width="6" stroke-linecap="round" stroke-linejoin="round" stroke-miterlimit="10" x1="1762.1" y1="487.606" x2="1762.1" y2="419.862"/>
	
		<line fill="none" stroke="#0068DC" stroke-width="6" stroke-linecap="round" stroke-linejoin="round" stroke-miterlimit="10" x1="1824.1" y1="487.606" x2="1824.1" y2="419.638"/>
	
		<line fill="none" stroke="#0068DC" stroke-width="6" stroke-linecap="round" stroke-linejoin="round" stroke-miterlimit="10" x1="1762.5" y1="444.638" x2="1823.75" y2="444.638"/>
</g>
<g id="Layer_28">
	
		<line fill="none" stroke="#0068DC" stroke-width="6" stroke-linecap="round" stroke-linejoin="round" stroke-miterlimit="10" x1="184.1" y1="487.606" x2="184.1" y2="419.862"/>
	
		<line fill="none" stroke="#0068DC" stroke-width="6" stroke-linecap="round" stroke-linejoin="round" stroke-miterlimit="10" x1="246.1" y1="487.606" x2="246.1" y2="419.638"/>
	
		<line fill="none" stroke="#0068DC" stroke-width="6" stroke-linecap="round" stroke-linejoin="round" stroke-miterlimit="10" x1="184.5" y1="444.638" x2="245.75" y2="444.638"/>
</g>
<g id="Layer_29">
	<polygon fill="#006ada" points="213.25,583 228.75,588.583 262.417,638.916 250.083,638.583 	"/>
	<polygon opacity="0.2" fill="#0068DC" points="250,644.333 259,655.333 300.667,655.333 300.667,644 	"/>
	<polygon opacity="0.2" points="1787.667,578 1807,588.333 1840.667,638.666 1828.334,639.333 	"/>
	<polygon opacity="0.2" points="1825,644.333 1834,655.333 1875.667,655.333 1875.667,644 	"/>
	<polygon opacity="0.2" points="1795.998,600.666 1787.998,588.666 1751.326,644.5 1725,644.5 1725,642 1698,643 1698,980 1725,980 
		1725,658.999 1755.664,658.999 	"/>
	<polygon opacity="0.2" points="220.998,599.666 212.998,587.666 176.32,644.5 151,644.5 151,644 124,644 124,644.5 124,658.999 
		124,980 151,980 151,658.999 180.664,658.999 180.66,658.986 180.665,658.999 	"/>
</g>
<g id="Layer_30">
	<path fill="#38A6F8" d="M997.302,400.895c0-15.308-12.41-27.718-27.719-27.718s-27.719,12.41-27.719,27.718v105.078h54.834
		L997.302,400.895z"/>
	<path fill="#38A6F8" d="M1062.852,400.895c0-15.308-12.41-27.718-27.719-27.718c-15.309,0-27.719,12.41-27.719,27.718v105.078
		h54.834L1062.852,400.895z"/>
</g>
<g id="Layer_33">
	<path fill="#38A6F8" d="M1062.852,597.895c0-15.308-12.41-27.718-27.719-27.718c-15.309,0-27.719,12.41-27.719,27.718v105.078
		h54.834L1062.852,597.895z"/>
	<path fill="#38A6F8" d="M993.852,597.895c0-15.308-12.41-27.718-27.719-27.718c-15.309,0-27.719,12.41-27.719,27.718v105.078
		h54.834L993.852,597.895z"/>
</g>
<g id="Layer_31">
	<polygon fill="#38A6F8" stroke="#0068DC" stroke-width="6" stroke-miterlimit="10" points="927.667,484.333 1080.334,484.333 
		1080.334,508.333 927.75,508.333 	"/>
	<line fill="none" stroke="#0068DC" stroke-width="6" stroke-miterlimit="10" x1="1048" y1="484.667" x2="1048" y2="508"/>
	<line fill="none" stroke="#0068DC" stroke-width="6" stroke-miterlimit="10" x1="1018" y1="484.667" x2="1018" y2="508"/>
	<line fill="none" stroke="#0068DC" stroke-width="6" stroke-miterlimit="10" x1="988" y1="484.667" x2="988" y2="508"/>
	<line fill="none" stroke="#0068DC" stroke-width="6" stroke-miterlimit="10" x1="958" y1="484.667" x2="958" y2="508"/>
</g>
<g id="Layer_32">
	<path fill="#FFFFFF" d="M1061.667,816.999c0-32.769-26.564-59.333-59.333-59.333S943,784.23,943,816.999v161.333h117.334
		L1061.667,816.999z"/>
</g>
<g id="Layer_34">
	<polygon fill="#38A6F8" stroke="#0068DC" stroke-width="6" stroke-miterlimit="10" points="941.667,679.334 1059.334,679.334 
		1059.334,703.334 941.731,703.334 	"/>
	<line fill="none" stroke="#0068DC" stroke-width="6" stroke-miterlimit="10" x1="1032" y1="679.667" x2="1032" y2="703"/>
	<line fill="none" stroke="#0068DC" stroke-width="6" stroke-miterlimit="10" x1="1002" y1="679.667" x2="1002" y2="703"/>
	<line fill="none" stroke="#0068DC" stroke-width="6" stroke-miterlimit="10" x1="972" y1="679.667" x2="972" y2="703"/>
</g>
<g id="Layer_35">
	<path fill="#38A6F8" d="M240.739,730.565c0-15.354-12.446-27.801-27.801-27.801c-15.354,0-27.8,12.446-27.8,27.801v75.593h54.977
		L240.739,730.565z"/>
	<path fill="#38A6F8" d="M1819.17,730.565c0-15.354-12.445-27.801-27.801-27.801c-15.354,0-27.801,12.446-27.801,27.801v75.593
		h54.978L1819.17,730.565z"/>
</g>
<g id="Layer_36">
	<path fill="#38A6F8" d="M1840.667,899.001c0-28.719-23.281-52-52-52s-52,23.281-52,52v82l102.667-0.333L1840.667,899.001z"/>
	<path fill="#38A6F8" d="M262.667,899.001c0-28.719-23.281-52-52-52s-52,23.281-52,52v82l102.667-0.333L262.667,899.001z"/>
</g>
<g id="Layer_16">
	<polygon opacity="0.2" points="913.337,251.667 947.096,251.667 947.096,983.07 913.684,983.07 	"/>
</g>
<g id="Layer_37">
	<polygon fill="#38A6F8" stroke="#0068DC" stroke-width="6" stroke-miterlimit="10" points="183.667,780.334 242.667,780.334 
		242.667,804.334 183.699,804.334 	"/>
	<line fill="none" stroke="#0068DC" stroke-width="6" stroke-miterlimit="10" x1="214" y1="780.667" x2="214" y2="804"/>
	<polygon fill="#38A6F8" stroke="#0068DC" stroke-width="6" stroke-miterlimit="10" points="1762.667,780.334 1821.667,780.334 
		1821.667,804.334 1762.699,804.334 	"/>
	<line fill="#AB4537" stroke="#614B5B" stroke-width="6" stroke-miterlimit="10" x1="1793" y1="780.667" x2="1793" y2="804"/>
</g>
<g id="Layer_38">
	<path opacity="0.2" d="M1133,815.5c0,0,26.5-10.75,26.5,19.75v70.25h12.463V838C1171.963,838,1168.25,804.5,1133,815.5z"/>
	<path opacity="0.2" d="M1199,815.5c0,0,26.5-10.75,26.5,19.75v70.25h12.463V838C1237.963,838,1234.25,804.5,1199,815.5z"/>
	<path opacity="0.2" d="M1277.333,815.5c0,0,26.5-10.75,26.5,19.75v70.25h12.463V838C1316.296,838,1312.583,804.5,1277.333,815.5z"
		/>
	<path opacity="0.2" d="M1343.333,815.5c0,0,26.5-10.75,26.5,19.75v70.25h12.463V838C1382.296,838,1378.583,804.5,1343.333,815.5z"
		/>
	<path opacity="0.2" d="M1421.333,815.5c0,0,26.5-10.75,26.5,19.75v70.25h12.463V838C1460.296,838,1456.583,804.5,1421.333,815.5z"
		/>
	<path opacity="0.2" d="M1487.333,815.5c0,0,26.5-10.75,26.5,19.75v70.25h12.463V838C1526.296,838,1522.583,804.5,1487.333,815.5z"
		/>
	<path opacity="0.2" d="M1565.667,815.5c0,0,26.5-10.75,26.5,19.75v70.25h12.463V838C1604.63,838,1600.917,804.5,1565.667,815.5z"/>
	<path opacity="0.2" d="M1631.667,815.5c0,0,26.5-10.75,26.5,19.75v70.25h12.463V838C1670.63,838,1666.917,804.5,1631.667,815.5z"/>
	<path opacity="0.2" d="M788.667,815.5c0,0,26.5-10.75,26.5,19.75v70.25h12.463V838C827.63,838,823.917,804.5,788.667,815.5z"/>
	<path opacity="0.2" d="M854.667,815.5c0,0,26.5-10.75,26.5,19.75v70.25h12.463V838C893.63,838,889.917,804.5,854.667,815.5z"/>
	<path opacity="0.2" d="M644.667,815.5c0,0,26.5-10.75,26.5,19.75v70.25h12.463V838C683.63,838,679.917,804.5,644.667,815.5z"/>
	<path opacity="0.2" d="M710.667,815.5c0,0,26.5-10.75,26.5,19.75v70.25h12.463V838C749.63,838,745.917,804.5,710.667,815.5z"/>
	<path opacity="0.2" d="M500.667,815.5c0,0,26.5-10.75,26.5,19.75v70.25h12.463V838C539.63,838,535.917,804.5,500.667,815.5z"/>
	<path opacity="0.2" d="M566.667,815.5c0,0,26.5-10.75,26.5,19.75v70.25h12.463V838C605.63,838,601.917,804.5,566.667,815.5z"/>
	<path opacity="0.2" d="M356.667,815.5c0,0,26.5-10.75,26.5,19.75v70.25h12.463V838C395.63,838,391.917,804.5,356.667,815.5z"/>
	<path opacity="0.2" d="M422.667,815.5c0,0,26.5-10.75,26.5,19.75v70.25h12.463V838C461.63,838,457.917,804.5,422.667,815.5z"/>
</g>
<g id="Layer_39">
	<path opacity="0.2" fill="#28100E" d="M1020.667,377.333c0,0,26.667-10.667,26.667,19.667v88h15v-88
		C1062.334,397,1056,363,1020.667,377.333z"/>
	<path opacity="0.2" fill="#28100E" d="M955.667,377.333c0,0,26.667-10.667,26.667,19.667v88h15v-88
		C997.334,397,991,363,955.667,377.333z"/>
	<path opacity="0.2" fill="#28100E" d="M1020.667,573.334c0,0,26.667-10.668,26.667,19.666v88h15v-88
		C1062.334,593,1056,559,1020.667,573.334z"/>
	<path opacity="0.2" fill="#28100E" d="M955.667,573.334c0,0,26.667-10.668,26.667,19.666v88h15v-88
		C997.334,593,991,559,955.667,573.334z"/>
</g>
<g id="Layer_40">
	<path opacity="0.2" d="M970.999,766.334c0,0,49.333-30.666,49.333,39.334v175.333h39.333l0.666-172
		C1060.332,809.001,1041.666,732.334,970.999,766.334z"/>
	<path opacity="0.2" fill="#0068DC" d="M1782.5,848.5c0,0,34.5-6,34.5,42.5v89h22l1-82.5C1840,897.5,1829,846,1782.5,848.5z"/>
	<path opacity="0.2" fill="#0068DC" d="M192,850c0,0,56.5-16.5,70.5,43.5l-2,87H233v-86C233,894.5,234,838,192,850z"/>
</g>
<g id="Layer_41">
	<circle fill="#FFFFFF" cx="1007" cy="250.313" r="2.063"/>
</g>
</svg>
