<?xml version="1.0" encoding="utf-8"?>
<!-- Generator: Adobe Illustrator 16.0.0, SVG Export Plug-In . SVG Version: 6.00 Build 0)  -->
<!DOCTYPE svg PUBLIC "-//W3C//DTD SVG 1.1//EN" "http://www.w3.org/Graphics/SVG/1.1/DTD/svg11.dtd" [
	<!ENTITY ns_extend "http://ns.adobe.com/Extensibility/1.0/">
	<!ENTITY ns_ai "http://ns.adobe.com/AdobeIllustrator/10.0/">
	<!ENTITY ns_graphs "http://ns.adobe.com/Graphs/1.0/">
	<!ENTITY ns_vars "http://ns.adobe.com/Variables/1.0/">
	<!ENTITY ns_imrep "http://ns.adobe.com/ImageReplacement/1.0/">
	<!ENTITY ns_sfw "http://ns.adobe.com/SaveForWeb/1.0/">
	<!ENTITY ns_custom "http://ns.adobe.com/GenericCustomNamespace/1.0/">
	<!ENTITY ns_adobe_xpath "http://ns.adobe.com/XPath/1.0/">
]>
<svg version="1.1" id="Layer_1" xmlns:x="&ns_extend;" xmlns:i="&ns_ai;" xmlns:graph="&ns_graphs;"
	 xmlns="http://www.w3.org/2000/svg" xmlns:xlink="http://www.w3.org/1999/xlink" x="0px" y="0px" width="150px" height="150px"
	 viewBox="0 0 150 150" enable-background="new 0 0 150 150" xml:space="preserve">
<metadata>
	<sfw  xmlns="&ns_sfw;">
		<slices></slices>
		<sliceSourceBounds  width="239" height="239" x="33" y="-272" bottomLeftOrigin="true"></sliceSourceBounds>
	</sfw>
</metadata>
<g>
	<g>
		<g>
			<circle fill="none" stroke="#DC1D45" stroke-miterlimit="10" stroke-dasharray="3.9497,3.9497" cx="75" cy="75" r="41.499"/>
		</g>
	</g>
	<path fill-rule="evenodd" clip-rule="evenodd" fill="#DC1D45" d="M75,44.499c16.845,0,30.5,13.656,30.5,30.502
		c0,16.844-13.655,30.5-30.5,30.5s-30.5-13.656-30.5-30.5C44.5,58.155,58.155,44.499,75,44.499z"/>
	<path fill="#FFFFFF" d="M81.972,71.988l-1.826,1.733l-11.663-11.71l1.873-1.686l4.418,4.48l4.528-4.48l1.733,1.686l-4.418,4.591
		L81.972,71.988z M83.803,77.451l4.604,4.404l1.681-1.738l-4.495-4.513l4.468-4.433l-1.692-1.867L76.694,81.002l1.738,1.821
		L83.803,77.451z M65.774,73.785l-4.612-4.394l-1.677,1.74l4.504,4.507l-4.459,4.439l1.696,1.865l11.649-11.722l-1.742-1.817
		L65.774,73.785z M72.968,84.587l-4.371,4.634l1.657,1.669l4.48-4.526l4.559,4.434l1.855-1.704l-11.781-11.59l-1.809,1.752
		L72.968,84.587z"/>
</g>
</svg>
