<?xml version="1.0" encoding="utf-8"?>
<!-- Generator: Adobe Illustrator 16.0.0, SVG Export Plug-In . SVG Version: 6.00 Build 0)  -->
<!DOCTYPE svg PUBLIC "-//W3C//DTD SVG 1.1//EN" "http://www.w3.org/Graphics/SVG/1.1/DTD/svg11.dtd" [
	<!ENTITY ns_extend "http://ns.adobe.com/Extensibility/1.0/">
	<!ENTITY ns_ai "http://ns.adobe.com/AdobeIllustrator/10.0/">
	<!ENTITY ns_graphs "http://ns.adobe.com/Graphs/1.0/">
	<!ENTITY ns_vars "http://ns.adobe.com/Variables/1.0/">
	<!ENTITY ns_imrep "http://ns.adobe.com/ImageReplacement/1.0/">
	<!ENTITY ns_sfw "http://ns.adobe.com/SaveForWeb/1.0/">
	<!ENTITY ns_custom "http://ns.adobe.com/GenericCustomNamespace/1.0/">
	<!ENTITY ns_adobe_xpath "http://ns.adobe.com/XPath/1.0/">
]>
<svg version="1.1" id="Layer_1" xmlns:x="&ns_extend;" xmlns:i="&ns_ai;" xmlns:graph="&ns_graphs;"
	 xmlns="http://www.w3.org/2000/svg" xmlns:xlink="http://www.w3.org/1999/xlink" x="0px" y="0px" width="150px" height="150px"
	 viewBox="0 0 150 150" enable-background="new 0 0 150 150" xml:space="preserve">
<metadata>
	<sfw  xmlns="&ns_sfw;">
		<slices></slices>
		<sliceSourceBounds  width="239" height="239" x="33" y="-272" bottomLeftOrigin="true"></sliceSourceBounds>
	</sfw>
</metadata>
<g>
	<g>
		<g>
			<circle fill="none" stroke="#DC1D45" stroke-miterlimit="10" stroke-dasharray="3.9497,3.9497" cx="75" cy="75" r="41.5"/>
		</g>
	</g>
	<path fill-rule="evenodd" clip-rule="evenodd" fill="#DC1D45" d="M75,44.5c16.845,0,30.5,13.656,30.5,30.501
		c0,16.844-13.655,30.5-30.5,30.5S44.5,91.844,44.5,75C44.5,58.156,58.155,44.5,75,44.5z"/>
	<path fill="#FFFFFF" d="M76.094,90.078l16.387-16.245L76.094,57.768v3.937l12.301,12.207L76.094,86.085V90.078z M76.094,90.078
		 M74.958,86.151L62.658,73.977L74.958,61.77v-3.937L58.572,73.898l16.387,16.245V86.151z M74.958,90.143"/>
</g>
</svg>
