<?xml version="1.0" encoding="utf-8"?>
<!-- Generator: Adobe Illustrator 16.0.0, SVG Export Plug-In . SVG Version: 6.00 Build 0)  -->
<!DOCTYPE svg PUBLIC "-//W3C//DTD SVG 1.0//EN" "http://www.w3.org/TR/2001/REC-SVG-20010904/DTD/svg10.dtd">
<svg version="1.0" id="Layer_1" xmlns="http://www.w3.org/2000/svg" xmlns:xlink="http://www.w3.org/1999/xlink" x="0px" y="0px"
	 width="75px" height="75px" viewBox="0 0 75 75" enable-background="new 0 0 75 75" xml:space="preserve">
<g>
	<path fill="#010101" d="M67.685,9.428H7.315c-0.694,0-1.258,0.563-1.258,1.258v38.876c0,0.694,0.563,1.26,1.258,1.26h19.723
		l-6.736,11.046c-0.362,0.592-0.175,1.367,0.419,1.728c0.205,0.124,0.431,0.184,0.654,0.184c0.424,0,0.838-0.214,1.074-0.604
		l7.535-12.354h6.259v15.493c0,0.692,0.563,1.258,1.258,1.258c0.694,0,1.258-0.565,1.258-1.258V50.821h6.259l7.533,12.354
		c0.238,0.39,0.651,0.604,1.076,0.604c0.222,0,0.449-0.06,0.654-0.184c0.593-0.36,0.78-1.136,0.418-1.728l-6.735-11.046h19.722
		c0.695,0,1.258-0.565,1.258-1.26V10.686C68.943,9.991,68.38,9.428,67.685,9.428z M66.427,48.305H8.572V11.942h57.855V48.305z"/>
	<path fill="#010101" d="M22.35,44.203h3.121h4.806h4.82h4.806h4.82h4.807h3.119c0.761,0,1.378-0.616,1.378-1.377
		c0-0.762-0.618-1.379-1.378-1.379h-1.742V17.421c0-0.759-0.617-1.377-1.377-1.377h-4.807c-0.759,0-1.376,0.618-1.376,1.377v24.026
		H41.28V24.727c0-0.759-0.618-1.378-1.378-1.378h-4.806c-0.76,0-1.377,0.619-1.377,1.378v16.721h-2.066V31.022
		c0-0.761-0.618-1.378-1.377-1.378H25.47c-0.76,0-1.378,0.617-1.378,1.378v10.425H22.35c-0.76,0-1.377,0.617-1.377,1.379
		C20.973,43.587,21.589,44.203,22.35,44.203z M46.101,18.797h2.051v22.65h-2.051V18.797z M36.473,26.103h2.054v15.345h-2.054V26.103
		z M26.847,32.398h2.051v9.049h-2.051V32.398z"/>
</g>
</svg>
