<svg xmlns="http://www.w3.org/2000/svg" viewBox="0 0 174.42 94.29"><defs><style>.cls-1{fill:#006ada;}</style></defs><title>db Icon</title><g id="Layer_2" data-name="Layer 2"><g id="Layer_1-2" data-name="Layer 1"><path class="cls-1" d="M122.27,2.07,82.2,42.13,51.15,73.19c-4,4-8,0-8,0l-22-22s-4-4,0-8l22-22c4-4,8,0,8,0L58.09,28a7.09,7.09,0,0,0,10-10l-16-15.95h0A7,7,0,0,0,49.81.52c-.21-.09-.43-.16-.65-.23a7.31,7.31,0,0,0-2-.29,7.07,7.07,0,0,0-5,2.07h0L2.07,42.13a7.1,7.1,0,0,0,0,10h0L42.13,92.22h0a7.1,7.1,0,0,0,10,0L92.22,52.15l31.05-31c4-4,8,0,8,0l22,22s4,4,0,8l-22,22c-4,4-8,0-8,0l-7.08-7.08a7.08,7.08,0,0,0-10,10l16.09,16.1h0a7.1,7.1,0,0,0,10,0l40.07-40.07a7.12,7.12,0,0,0,0-10h0L132.29,2.07h0A7.1,7.1,0,0,0,122.27,2.07Z"/></g></g></svg>