<?xml version="1.0" encoding="utf-8"?>
<!-- Generator: Adobe Illustrator 16.0.0, SVG Export Plug-In . SVG Version: 6.00 Build 0)  -->
<!DOCTYPE svg PUBLIC "-//W3C//DTD SVG 1.0//EN" "http://www.w3.org/TR/2001/REC-SVG-20010904/DTD/svg10.dtd">
<svg version="1.0" id="Layer_1" xmlns="http://www.w3.org/2000/svg" xmlns:xlink="http://www.w3.org/1999/xlink" x="0px" y="0px"
	 width="75px" height="75px" viewBox="0 0 75 75" enable-background="new 0 0 75 75" xml:space="preserve">
<g>
	<g>
		<g>
			<path fill="#010101" d="M69.089,59.286H68V20.071c0-2.406-1.95-4.357-4.357-4.357h-9.804V8.089C53.839,7.488,53.352,7,52.75,7
				c-0.067,0-0.135,0.006-0.201,0.019l-6.535,1.226l-1.09,0.205l-9.704,1.819h-6.435c-1.203,0-2.178,0.975-2.178,2.178
				c-2.164,0.003-4.119,1.286-4.985,3.268H11.357C8.95,15.714,7,17.665,7,20.071v39.214H5.91c-0.602,0-1.089,0.488-1.089,1.089
				v3.268c0,2.406,1.95,4.357,4.357,4.357h56.643c2.406,0,4.357-1.951,4.357-4.357v-3.268C70.179,59.773,69.69,59.286,69.089,59.286
				z M36.41,12.261l15.25-2.859v16.987l-15.25-2.865V12.261z M36.41,25.736l2.179,0.408v1.552H36.41V25.736z M28.785,12.446h5.447
				v10.893h-5.447V12.446z M30.964,32.054v-6.536h3.269v6.536H30.964z M34.232,34.232v1.634c0,0.902-0.732,1.634-1.635,1.634
				c-0.901,0-1.634-0.731-1.634-1.634v-1.634H34.232z M26.607,14.625v6.536c-1.806,0-3.269-1.463-3.269-3.268
				C23.339,16.088,24.802,14.625,26.607,14.625z M9.179,20.071c0-1.203,0.975-2.178,2.179-2.178h9.803
				c0.004,3.006,2.44,5.443,5.447,5.446c0,1.203,0.975,2.179,2.178,2.179v10.348c0,2.105,1.707,3.813,3.813,3.813
				s3.813-1.707,3.813-3.813v-5.991h3.269c0.602,0,1.089-0.488,1.089-1.089v-2.228l11.781,2.209
				c0.066,0.012,0.134,0.019,0.201,0.019c0.602,0,1.089-0.488,1.089-1.089v-9.803h9.804c1.203,0,2.179,0.975,2.179,2.178v39.214
				H47.304c-0.289,0-0.566,0.114-0.771,0.318l-1.859,1.86H30.326l-1.859-1.86c-0.205-0.204-0.482-0.318-0.771-0.318H9.179V20.071z
				 M68,63.643c0,1.203-0.976,2.178-2.179,2.178H9.179C7.976,65.821,7,64.846,7,63.643v-2.179h20.245l1.859,1.859
				c0.204,0.204,0.481,0.319,0.771,0.319h15.25c0.289,0,0.565-0.115,0.77-0.319l1.86-1.859H68V63.643z"/>
		</g>
	</g>
	<g>
		<g>
			<path fill="#010101" d="M61.464,21.161h-4.356v2.179h3.268V52.75h-45.75V23.339h5.446v-2.179h-6.536
				c-0.602,0-1.089,0.488-1.089,1.089v31.589c0,0.602,0.487,1.089,1.089,1.089h47.929c0.602,0,1.09-0.488,1.09-1.089V22.25
				C62.554,21.648,62.065,21.161,61.464,21.161z"/>
		</g>
	</g>
	<g>
		<g>
			<rect x="36.41" y="57.107" fill="#010101" width="2.179" height="2.179"/>
		</g>
	</g>
	<g>
		<g>
			<rect x="20.071" y="42.946" fill="#010101" width="2.179" height="2.179"/>
		</g>
	</g>
	<g>
		<g>
			<rect x="24.429" y="42.946" fill="#010101" width="32.679" height="2.179"/>
		</g>
	</g>
	<g>
		<g>
			<rect x="17.893" y="47.304" fill="#010101" width="35.946" height="2.178"/>
		</g>
	</g>
</g>
</svg>
