<?xml version="1.0" encoding="utf-8"?>
<!-- Generator: Adobe Illustrator 16.0.0, SVG Export Plug-In . SVG Version: 6.00 Build 0)  -->
<!DOCTYPE svg PUBLIC "-//W3C//DTD SVG 1.0//EN" "http://www.w3.org/TR/2001/REC-SVG-20010904/DTD/svg10.dtd">
<svg version="1.0" id="Layer_1" xmlns="http://www.w3.org/2000/svg" xmlns:xlink="http://www.w3.org/1999/xlink" x="0px" y="0px"
	 width="75px" height="75px" viewBox="0 0 75 75" enable-background="new 0 0 75 75" xml:space="preserve">
<g>
	<g>
		<g>
			<path fill="#010101" d="M69.099,60.987L56.294,48.185h8.4c0.726,0,1.314-0.589,1.314-1.314v-5.885
				c0-2.339-1.284-4.383-3.184-5.469c0.465-0.671,0.738-1.484,0.738-2.361v-3.727c0-2.297-1.869-4.164-4.165-4.164h-1.438
				c-0.977,0-1.881,0.313-2.618,0.843c-3.492-7.308-10.956-12.368-19.58-12.368c-8.575,0-16.004,5.004-19.521,12.244
				c-0.667-0.453-1.471-0.719-2.336-0.719H12.47c-2.485,0-4.508,2.021-4.508,4.506v3.042c0,0.984,0.318,1.895,0.855,2.637
				c-1.964,1.066-3.301,3.148-3.301,5.536v5.885c0,0.726,0.588,1.314,1.314,1.314h11.407c3.947,5.407,10.331,8.927,17.524,8.927
				c3.746,0,7.403-0.961,10.643-2.788l14.679,14.679c0.257,0.257,0.594,0.385,0.93,0.385c0.337,0,0.672-0.128,0.93-0.385
				l6.155-6.155C69.611,62.334,69.611,61.502,69.099,60.987z M57.961,27.894h1.438c0.847,0,1.536,0.688,1.536,1.535v3.727
				c0,0.847-0.689,1.535-1.536,1.535h-1.438c-0.184,0-0.361-0.027-0.529-0.077c-0.075-2.042-0.435-4.012-1.039-5.873
				C56.729,28.229,57.307,27.894,57.961,27.894z M57.364,37.319h2.35c2.021,0,3.666,1.645,3.666,3.666v4.57h-8.442
				C56.29,43,57.113,40.207,57.364,37.319z M10.591,29.771c0-1.035,0.843-1.877,1.879-1.877h1.437c0.533,0,1.003,0.272,1.278,0.686
				c-0.643,1.928-1.021,3.976-1.094,6.099c-0.061,0.008-0.122,0.013-0.185,0.013H12.47c-1.036,0-1.879-0.842-1.879-1.878V29.771z
				 M8.146,45.555v-4.569c0-2.021,1.645-3.666,3.666-3.666h2.349c0.257,2.952,1.107,5.738,2.433,8.235H8.146z M62.014,66.214
				L47.54,51.741c-0.254-0.254-0.59-0.385-0.93-0.385c-0.241,0-0.485,0.065-0.7,0.202c-3.035,1.913-6.545,2.924-10.147,2.924
				c-10.508,0-19.058-8.549-19.058-19.058c0-10.508,8.55-19.058,19.058-19.058s19.057,8.55,19.057,19.058
				c0,3.72-1.072,7.323-3.101,10.423c-0.341,0.521-0.27,1.209,0.17,1.648L66.31,61.917L62.014,66.214z"/>
			<path fill="#010101" d="M35.763,19.654c-8.697,0-15.772,7.074-15.772,15.771s7.075,15.772,15.772,15.772
				c8.696,0,15.771-7.076,15.771-15.772S44.459,19.654,35.763,19.654z M35.763,48.568c-3.974,0-7.541-1.772-9.953-4.568
				c0.308-2.492,2.563-3.814,5.091-4.149l3.753,5.896c0.241,0.38,0.659,0.609,1.109,0.609c0.449,0,0.868-0.229,1.108-0.609
				l3.754-5.896c2.526,0.335,4.782,1.657,5.091,4.149C43.303,46.796,39.735,48.568,35.763,48.568z M36.189,37.135h-0.854
				c-2.111,0-3.056-1.8-3.056-3.582v-2.301c0-1.782,0.944-3.581,3.056-3.581h0.854c2.111,0,3.057,1.799,3.057,3.581v2.301
				C39.246,35.335,38.301,37.135,36.189,37.135z M37.564,39.762l-1.802,2.832l-1.803-2.832H37.564z M40.863,37.227
				c0.643-1.009,1.011-2.266,1.011-3.674v-2.301c0-3.598-2.391-6.21-5.685-6.21h-0.854c-3.294,0-5.685,2.612-5.685,6.21v2.301
				c0,1.408,0.368,2.665,1.012,3.674c-3.094,0.37-5.487,1.85-6.68,4.023c-0.872-1.756-1.363-3.734-1.363-5.824
				c0-7.248,5.896-13.143,13.144-13.143s13.143,5.895,13.143,13.143c0,2.09-0.491,4.068-1.364,5.824
				C46.35,39.076,43.957,37.597,40.863,37.227z"/>
			<path fill="#010101" d="M35.763,10.739c0.726,0,1.314-0.589,1.314-1.314V6.928c0-0.727-0.589-1.314-1.314-1.314
				c-0.727,0-1.314,0.588-1.314,1.314v2.497C34.448,10.15,35.036,10.739,35.763,10.739z"/>
			<path fill="#010101" d="M47.515,13.888c0.207,0.119,0.434,0.176,0.655,0.176c0.454,0,0.896-0.235,1.14-0.657l1.249-2.163
				c0.362-0.628,0.147-1.433-0.481-1.795c-0.628-0.363-1.433-0.146-1.794,0.481l-1.25,2.162
				C46.67,12.721,46.886,13.524,47.515,13.888z"/>
			<path fill="#010101" d="M22.215,13.406c0.243,0.422,0.686,0.657,1.139,0.657c0.224,0,0.45-0.057,0.657-0.176
				c0.628-0.363,0.844-1.167,0.481-1.796l-1.25-2.162c-0.363-0.629-1.166-0.845-1.795-0.481c-0.629,0.362-0.844,1.167-0.48,1.795
				L22.215,13.406z"/>
		</g>
	</g>
</g>
</svg>
