<svg width="172" height="200" viewBox="0 0 172 200" fill="none" xmlns="http://www.w3.org/2000/svg">
<path fill-rule="evenodd" clip-rule="evenodd" d="M84.9854 0.830811L85.5078 1.13843L122.008 22.6384L122.5 22.9285V23.5V35.353L133.539 29.6128L134.013 29.3665L134.48 29.623L170.98 49.623L171.5 49.9077V50.5V93V93.5745L171.004 93.8638L160.27 100.125L170.988 106.127L171.5 106.414V107V148.5V149.077L171 149.366L135.5 169.866L135.016 170.146L134.523 169.879L123.5 163.908V176V176.569L123.011 176.86L122.995 176.869L122.946 176.898L122.754 177.012L122.014 177.452L119.262 179.089L109.93 184.638L86.0107 198.86L85.4961 199.166L84.9834 198.856L61.3887 184.635L52.1826 179.086L49.4678 177.449L48.7373 177.009L48.5479 176.895L48.5 176.866L48.4883 176.859C48.4834 176.856 48.4834 176.856 49 176L48.4834 176.856L48 176.565V176V163.908L36.9766 169.879L36.4844 170.146L36 169.866L0.5 149.366L0 149.077V148.5V107V106.414L0.511719 106.127L11.2305 100.125L0.496094 93.8638L0 93.5745V93V50.5V49.9077L0.519531 49.623L37.0195 29.623L37.4873 29.3665L37.9609 29.6128L49.5 35.613V23.5V22.9448L49.9707 22.6514L84.4707 1.15137L84.9854 0.830811ZM156.258 99.8901L145.512 93.8726L144.989 93.5801L145 92.9819L145.219 80.96L134.482 86.8757L133.975 87.1555L133.48 86.8542L123.5 80.7793V90.5V91.0688L123.011 91.3596L122.995 91.3694L122.946 91.3982L122.754 91.5122L122.014 91.9524L119.262 93.5889L111.293 98.3269L122.008 104.638L122.5 104.928V105.5V118V118.566L122.015 118.857L109.515 126.357L109.017 126.656L108.51 126.372L98 120.46V133.5V134.054L97.5303 134.348L86.7617 141.078L98.0039 147.636L98.5 147.926V148.5V161.769L110 155.134L110.521 154.834L111.03 155.152L122 162.008V148.5V147.91L122.516 147.625L132.588 142.053L121.06 136.398L120.5 136.123V135.5V121.25V120.702L120.962 120.407L132.712 112.907L133.219 112.583L133.742 112.88L145.5 119.535V107V106.438L145.98 106.146L156.258 99.8901ZM123.5 77.4458V78V78.438L133 84.2207V73.0835L123.5 67.7139V77.4458ZM121.5 76.1958L111.03 69.6521L110.521 69.3337L110 69.6338L98.5 76.2686V63V62.4255L98.0039 62.1362L89.6582 57.2678L97.5303 52.3479L98 52.0542V51.5V38.46L108.51 44.3716L109.017 44.6565L109.515 44.3574L120.5 37.7661V50.5V51.0996L121.029 51.3821L133.494 58.041L121.975 65.1489L121.5 65.4419V66V76.1958ZM25.5195 106.146L15.2422 99.8901L25.9883 93.8726L26.5107 93.5801L26.5 92.9819L26.2812 80.96L37.0176 86.8757L37.5254 87.1555L38.0195 86.8542L48 80.7793V90.5V91.0649L48.4834 91.3564L49 90.5C48.4834 91.3564 48.4834 91.3564 48.4883 91.3589L48.5 91.3662L48.5479 91.3953L48.7373 91.509L49.4678 91.9495L52.1826 93.5857L60.085 98.3484L49.9707 104.651L49.5 104.945V105.5V119V119.571L49.9912 119.861L60.9912 126.361L61.4932 126.657L61.998 126.367L72.25 120.478V133.5V134.048L72.7119 134.343L83.7041 141.36L72.5117 147.627L72 147.914V148.5V160.602L61.4619 155.113L60.9551 154.849L60.4697 155.152L49.5 162.008V148.5V147.91L48.9844 147.625L38.9121 142.053L50.4404 136.398L51 136.123V135.5V121.25V120.702L50.5381 120.407L38.7881 112.907L38.2812 112.583L37.7578 112.88L26 119.535V107V106.438L25.5195 106.146ZM48 78V78.438L38.5 84.2207V73.0835L48 67.7139V77.4458V78ZM60.4697 69.6521L50 76.1958V66V65.4419L49.5254 65.1489L38.0059 58.041L50.4707 51.3821L51 51.0996V50.5V38.457L60.9912 44.3608L61.4932 44.6572L61.998 44.3672L72.25 38.4778V51.5V52.0481L72.7119 52.343L80.7832 57.4951L72.5117 62.1274L72 62.4138V63V75.1016L61.4619 69.613L60.9551 69.3489L60.4697 69.6521ZM62.0068 99.5071L52.4268 105.477L61.5166 110.848L71.583 105.279L62.0068 99.5071ZM73.6035 104.162L63.9121 98.3201L73.8994 92.0959L74 92.1484V92.0332L84.5 85.49V85.5198V85.6228V85.7258V85.8293V85.9326V86.0364V86.1401V86.2441V86.3484V86.4526V86.5571V86.6619V86.7666V86.8716V86.9768V87.082V87.1875V87.2932V87.3989V87.5049V87.6108V87.717V87.8235V87.9299V88.0366V88.1433V88.2502V88.3574V88.4646V88.5718V88.6794V88.7869V88.8948V89.0024V89.1106V89.2185V89.3269V89.4353V89.5437V89.6523V89.761V89.8699V89.9788V90.0879V90.197V90.3062V90.4155V90.5251V90.6348V90.7444V90.8542V90.9641V91.074V91.1841V91.2944V91.4045V91.5149V91.6255V91.7361V91.8467V91.9573V92.0681V92.179V92.29V92.4011V92.5122V92.6233V92.7346V92.8459V92.9575V93.0688V93.1804V93.2922V93.4038V93.5156V93.6274V93.7393V93.8511V93.9631V94.0752V94.1873V94.2996V94.4116V94.5239V94.6362V94.7485V94.8608V94.9734V95.0859V95.1982V95.3108V95.4233V95.5361V95.6487V95.7615V95.874V95.9868V96.0996V96.2124V96.3252V96.438V96.551V96.6638V96.7766V96.8896V97.0024V97.1155V97.2283V97.3413V97.4543V97.5674V97.6802V97.7932V97.9062V98.019V98.1321L73.6035 104.162ZM73.5605 106.471L62.5 112.59V123.772L72.752 117.883L82.8594 112.076L73.5605 106.471ZM84 110.428L75.5811 105.354L84 100.696V110.428ZM87.6865 112.364L97.4902 117.878L108 123.79V112.596L97.166 106.727L87.6865 112.364ZM99.168 105.537L109.01 110.868L119.438 105.446L109.332 99.4932L99.168 105.537ZM107.366 98.335L97.1201 104.427L86.5 98.675V98.584V98.4709V98.3582V98.2451V98.1321V98.019V97.9062V97.7932V97.6802V97.5674V97.4543V97.3413V97.2283V97.1155V97.0024V96.8896V96.7766V96.6638V96.551V96.438V96.3252V96.2124V96.0996V95.9868V95.874V95.7615V95.6487V95.5361V95.4233V95.3108V95.1982V95.0859V94.9734V94.8608V94.7485V94.6362V94.5239V94.4116V94.2996V94.1873V94.0752V93.9631V93.8511V93.7393V93.6274V93.5156V93.4038V93.2922V93.1804V93.0688V92.9575V92.8459V92.7346V92.6233V92.5122V92.4011V92.29V92.179V92.0681V91.9573V91.8467V91.7361V91.6255V91.5149V91.4045V91.2944V91.1841V91.074V90.9641V90.8542V90.7444V90.6348V90.5251V90.4155V90.3062V90.197V90.0879V89.9788V89.8699V89.761V89.6523V89.5437V89.4353V89.3269V89.2185V89.1106V89.0024V88.8948V88.7869V88.6794V88.5718V88.4646V88.3574V88.2502V88.1433V88.0366V87.9299V87.8235V87.717V87.6108V87.5049V87.3989V87.2932V87.1875V87.082V86.9768V86.8716V86.7666V86.6619V86.5571V86.4526V86.3484V86.2441V86.1401V86.0364L96.5 91.9346V92.1179L96.668 92.0337L107.366 98.335ZM109.327 97.1689L118.239 91.8699L120.992 90.2334L121.5 89.9312V79.6179L98.7998 90.968L109.327 97.1689ZM96.5 89.6133V78V64.679L86.5 70.0957V70.1089V70.135V70.1616V70.189V70.2166V70.2449V70.2737V70.303V70.3328V70.363V70.394V70.4253V70.457V70.4895V70.5225V70.5557V70.5896V70.624V70.6589V70.6943V70.7302V70.7666V70.8035V70.8408V70.8787V70.917V70.9558V70.9951V71.0349V71.0752V71.1157V71.157V71.1987V71.241V71.2837V71.3267V71.3704V71.4143V71.459V71.5039V71.5493V71.5952V71.6416V71.6885V71.7358V71.7837V71.8318V71.8806V71.9297V71.9792V72.0293V72.0798V72.1306V72.1819V72.2339V72.2861V72.3386V72.3918V72.4453V72.4993V72.5537V72.6086V72.6638V72.7197V72.7759V72.8323V72.8894V72.9468V73.0046V73.0627V73.1213V73.1804V73.24V73.2998V73.3604V73.4209V73.4822V73.5437V73.6055V73.668V73.7307V73.7937V73.8572V73.9211V73.9856V74.0503V74.1155V74.1809V74.2468V74.313V74.3796V74.4468V74.5142V74.582V74.6501V74.7188V74.7876V74.8569V74.9268V74.9966V75.0671V75.1379V75.209V75.2805V75.3525V75.4248V75.4973V75.5703V75.6436V75.7173V75.7913V75.8657V75.9404V76.0154V76.0908V76.1665V76.2427V76.3191V76.396V76.4731V76.5505V76.6284V76.7065V76.7849V76.8638V76.9429V77.0222V77.1021V77.1821V77.2627V77.3435V77.4246V77.5059V77.5876V77.6697V77.752V77.8345V77.9175V78.0007V78.0842V78.1682V78.2524V78.3369V78.4216V78.5066V78.592V78.6777V78.7637V78.8499V78.9365V79.0234V79.1106V79.198V79.2856V79.3735V79.4619V79.5503V79.6392V79.7283V79.8176V79.9072V79.9973V80.0874V80.1777V80.2686V80.3596V80.4507V80.5422V80.634V80.7261V80.8184V80.9109V81.0037V81.0967V81.1902V81.2837V81.3774V81.4714V81.5657V81.6604V81.7551V81.8501V81.9453V82.0408V82.1365V82.2324V82.3289V82.425V82.5217V82.6187V82.7158V82.8132V82.9106V83.0085V83.1064V83.2046V83.303V83.4016V83.5005V83.5996V83.699V83.7229L96.5 89.6133ZM84.5 83.1331V83.1064V83.0085V82.9106V82.8132V82.7158V82.6187V82.5217V82.425V82.3289V82.2324V82.1365V82.0408V81.9453V81.8501V81.7551V81.6604V81.5657V81.4714V81.3774V81.2837V81.1902V81.0967V81.0037V80.9109V80.8184V80.7261V80.634V80.5422V80.4507V80.3596V80.2686V80.1777V80.0874V79.9973V79.9072V79.8176V79.7283V79.6392V79.5503V79.4619V79.3735V79.2856V79.198V79.1106V79.0234V78.9365V78.8499V78.7637V78.6777V78.592V78.5066V78.4216V78.3369V78.2524V78.1682V78.0842V78.0007V77.9175V77.8345V77.752V77.6697V77.5876V77.5059V77.4246V77.3435V77.2627V77.1821V77.1021V77.0222V76.9429V76.8638V76.7849V76.7065V76.6284V76.5505V76.4731V76.396V76.3191V76.2427V76.1665V76.0908V76.0154V75.9404V75.8657V75.7913V75.7173V75.6436V75.5703V75.4973V75.4248V75.3525V75.2805V75.209V75.1379V75.0671V74.9966V74.9268V74.8569V74.7876V74.7188V74.6501V74.582V74.5142V74.4468V74.3796V74.313V74.2468V74.1809V74.1155V74.0503V73.9856V73.9211V73.8572V73.7937V73.7307V73.668V73.6055V73.5437V73.4822V73.4209V73.3604V73.2998V73.24V73.1804V73.1213V73.0627V73.0046V72.9468V72.8894V72.8323V72.7759V72.7197V72.6638V72.6086V72.5537V72.4993V72.4453V72.3918V72.3386V72.2861V72.2339V72.1819V72.1306V72.0798V72.0293V71.9792V71.9297V71.8806V71.8318V71.7837V71.7358V71.6885V71.6416V71.5952V71.5493V71.5039V71.459V71.4143V71.3704V71.3267V71.2837V71.241V71.1987V71.157V71.1157V71.0752V71.0349V70.9951V70.9558V70.917V70.8787V70.8408V70.8035V70.7666V70.7302V70.6943V70.6589V70.624V70.5896V70.5557V70.5225V70.4895V70.457V70.4253V70.394V70.363V70.3328V70.303V70.2737V70.2449V70.2166V70.189V70.1616V70.135V70.1072L74 64.6472V76.75V89.6765L84.4707 83.1514L84.5 83.1331ZM71.8398 91.0229L50 79.6484V89.9351L50.5 90.2366L53.2148 91.8728L61.9893 97.1616L71.8398 91.0229ZM86.5 100.951V101.063V101.176V101.288V101.4V101.512V101.625V101.737V101.849V101.96V102.073V102.184V102.296V102.408V102.519V102.631V102.742V102.854V102.965V103.077V103.188V103.299V103.41V103.521V103.632V103.743V103.854V103.964V104.075V104.185V104.296V104.406V104.516V104.626V104.736V104.846V104.956V105.066V105.176V105.285V105.395V105.504V105.613V105.722V105.831V105.94V106.049V106.157V106.266V106.374V106.482V106.591V106.699V106.807V106.914V107.022V107.129V107.237V107.344V107.451V107.558V107.665V107.772V107.878V107.985V108.091V108.197V108.303V108.409V108.514V108.62V108.725V108.831V108.936V109.041V109.145V109.25V109.354V109.458V109.562V109.666V109.77V109.874V109.977V110.08V110.183V110.286V110.389V110.491V110.594V110.696V110.742L95.1182 105.618L86.5 100.951ZM84.4619 59.843L82.6963 58.7161L75.1045 62.9673L85.4902 68.3679L95.46 62.9678L87.7422 58.4656L85.5303 59.8479L84.9941 60.1829L84.4619 59.843ZM96 50.9458L87.7061 56.1294L86.0039 55.1362L86 31.71L96 37.335V50.9458ZM84 31.7278V55.6941L82.7637 56.3862L74.25 50.9519V37.3289L84 31.7278ZM86 29.415L97.4902 35.8784L108 41.79V30.5957L86 18.679V29.415ZM84 18.696V29.4211L72.752 35.8828L62.5 41.7722V30.5896L84 18.696ZM61.5166 28.8481L84.5156 16.125L84.9951 15.8599L85.4766 16.1206L109.01 28.8679L119.438 23.4456L85.0146 3.16919L52.4268 23.4773L61.5166 28.8481ZM51.5 25.2524L60.5 30.5706V41.7476L51.5 36.4294V25.2524ZM120.5 25.1472L110 30.6072V41.7339L120.5 35.4338V25.1472ZM61.0449 71.6511L72 77.3567V88.8516L51.0127 77.9209L61.0449 71.6511ZM98.5 88.8821L120.458 77.9031L110.479 71.6663L98.5 78.5776V88.8821ZM61.0449 157.151L72 162.857V174.352L51.0127 163.421L61.0449 157.151ZM72.5381 176.887L50 165.148V175.435L50.5 175.737L53.2148 177.373L62.4209 182.922L84.5 196.23V196.196V196.094V195.991V195.889V195.786V195.683V195.58V195.477V195.374V195.27V195.166V195.062V194.958V194.854V194.75V194.645V194.541V194.436V194.331V194.225V194.12V194.014V193.909V193.803V193.697V193.591V193.485V193.378V193.272V193.165V193.058V192.951V192.844V192.737V192.629V192.522V192.414V192.307V192.199V192.091V191.982V191.874V191.766V191.657V191.549V191.44V191.331V191.222V191.113V191.004V190.895V190.785V190.676V190.566V190.456V190.346V190.236V190.126V190.016V189.906V189.796V189.685V189.575V189.464V189.354V189.243V189.132V189.021V188.91V188.799V188.688V188.577V188.465V188.354V188.242V188.131V188.019V187.908V187.796V187.684V187.573V187.46V187.349V187.237V187.125V187.012V186.9V186.788V186.676V186.563V186.451V186.339V186.226V186.114V186.001V185.889V185.776V185.663V185.551V185.438V185.325V185.213V185.1V184.987V184.874V184.761V184.648V184.536V184.423V184.31V184.197V184.084V183.971V183.858V183.745V183.632V183.519V183.406V183.293V183.18V183.067V182.954V182.841V182.728V182.615V182.502V182.39V182.277V182.164V182.051V181.938V181.825V181.712V181.6V181.487V181.374V181.261V181.149V181.036V180.923V180.811V180.698V180.586V180.473V180.361V180.249V180.136V180.024V179.912V179.8V179.687V179.575V179.463V179.351V179.239V179.127V179.016V178.904V178.792V178.68V178.569V178.458V178.346V178.235V178.123V178.012V177.901V177.79V177.679V177.568V177.457V177.347V177.236V177.125V177.015V176.905V176.794V176.684V176.574V176.464V176.354V176.244V176.135V176.025V175.916V175.806V175.697V175.588V175.479V175.37V175.261V175.152V175.044V174.935V174.827V174.719V174.611V174.502V174.395V174.287V174.179V174.072V173.965V173.857V173.75V173.643V173.537V173.43V173.323V173.217V173.111V173.005V172.899V172.793V172.688V172.582V172.477V172.372V172.267V172.162V172.057V171.953V171.848V171.744V171.64V171.536V171.433V171.329V171.226V171.123V171.02V170.917V170.814V170.712V170.61V170.508V170.406V170.304V170.203V170.102V170V169.899V169.799V169.698V169.598V169.498V169.398V169.298V169.199V169.1V169V168.902V168.803V168.705V168.606V168.509V168.411V168.313V168.216V168.119V168.022V167.925V167.829V167.732V167.636V167.541V167.445V167.35V167.255V167.16V167.066V166.971V166.877V166.784V166.69V166.597V166.504V166.411V166.318V166.226V166.134V166.042V165.951V165.86V165.769V165.678V165.587V165.497V165.407V165.318V165.228V165.139V165.05V164.962V164.874V164.786V164.698V164.611V164.523V164.437V164.35V164.264V164.178V164.092V164.007V163.922V163.837V163.752V163.668V163.584V163.501V163.417V163.334V163.252V163.17V163.088V163.006V162.925V162.844V162.763V162.682V162.602V162.522V162.443V162.364V162.285V162.207V162.128V162.051V161.973V161.896V161.819V161.743V161.667V161.591V161.515V161.44V161.366V161.291V161.217V161.144V161.07V160.997V160.925V160.853V160.781V160.709V160.638V160.567V160.497V160.427V160.357V160.288V160.219V160.15V160.082V160.014V159.947V159.88V159.813V159.747V159.681V159.615V159.55V159.486V159.421V159.357V159.294V159.231V159.168V159.105V159.044V158.982V158.921V158.86V158.8V158.74V158.68V158.621V158.563V158.505V158.447V158.389V158.332V158.276V158.22V158.164V158.109V158.054V157.999V157.945V157.892V157.839V157.786V157.734V157.682V157.631V157.58V157.529V157.479V157.43V157.381V157.332V157.284V157.236V157.188V157.142V157.095V157.049V157.004V156.959V156.914V156.87V156.827V156.784V156.741V156.699V156.657V156.616V156.575V156.535V156.495V156.456V156.417V156.379V156.341V156.303V156.267V156.23V156.194V156.159V156.124V156.09V156.056V156.022V155.99V155.957V155.925V155.894V155.863V155.833V155.803V155.774V155.745V155.717V155.689V155.662V155.635V155.607L74 150.147V162.25V176V177.648L72.5381 176.887ZM108.907 182.919L86.5 196.242V196.196V196.094V195.991V195.889V195.786V195.683V195.58V195.477V195.374V195.27V195.166V195.062V194.958V194.854V194.75V194.645V194.541V194.436V194.331V194.225V194.12V194.014V193.909V193.803V193.697V193.591V193.485V193.378V193.272V193.165V193.058V192.951V192.844V192.737V192.629V192.522V192.414V192.307V192.199V192.091V191.982V191.874V191.766V191.657V191.549V191.44V191.331V191.222V191.113V191.004V190.895V190.785V190.676V190.566V190.456V190.346V190.236V190.126V190.016V189.906V189.796V189.685V189.575V189.464V189.354V189.243V189.132V189.021V188.91V188.799V188.688V188.577V188.465V188.354V188.242V188.131V188.019V187.908V187.796V187.684V187.573V187.46V187.349V187.237V187.125V187.012V186.9V186.788V186.676V186.563V186.451V186.339V186.226V186.114V186.001V185.889V185.776V185.663V185.551V185.438V185.325V185.213V185.1V184.987V184.874V184.761V184.648V184.536V184.423V184.31V184.197V184.084V183.971V183.858V183.745V183.632V183.519V183.406V183.293V183.18V183.067V182.954V182.841V182.728V182.615V182.502V182.39V182.277V182.164V182.051V181.938V181.825V181.712V181.6V181.487V181.374V181.261V181.149V181.036V180.923V180.811V180.698V180.586V180.473V180.361V180.249V180.136V180.024V179.912V179.8V179.687V179.575V179.463V179.351V179.239V179.127V179.016V178.904V178.792V178.68V178.569V178.458V178.346V178.235V178.123V178.012V177.901V177.79V177.679V177.568V177.457V177.347V177.236V177.125V177.015V176.905V176.794V176.684V176.574V176.464V176.354V176.244V176.135V176.025V175.916V175.806V175.697V175.588V175.479V175.37V175.261V175.152V175.044V174.935V174.827V174.719V174.611V174.502V174.395V174.287V174.179V174.072V173.965V173.857V173.75V173.643V173.537V173.43V173.323V173.217V173.111V173.005V172.899V172.793V172.688V172.582V172.477V172.372V172.267V172.162V172.057V171.953V171.848V171.744V171.64V171.536V171.433V171.329V171.226V171.123V171.02V170.917V170.814V170.712V170.61V170.508V170.406V170.304V170.203V170.102V170V169.899V169.799V169.698V169.598V169.498V169.398V169.298V169.199V169.1V169V168.902V168.803V168.705V168.606V168.509V168.411V168.313V168.216V168.119V168.022V167.925V167.829V167.732V167.636V167.541V167.445V167.35V167.255V167.16V167.066V166.971V166.877V166.784V166.69V166.597V166.504V166.411V166.318V166.226V166.134V166.042V165.951V165.86V165.769V165.678V165.587V165.497V165.407V165.318V165.228V165.139V165.05V164.962V164.874V164.786V164.698V164.611V164.523V164.437V164.35V164.264V164.178V164.092V164.007V163.922V163.837V163.752V163.668V163.584V163.501V163.417V163.334V163.252V163.17V163.088V163.006V162.925V162.844V162.763V162.682V162.602V162.522V162.443V162.364V162.285V162.207V162.128V162.051V161.973V161.896V161.819V161.743V161.667V161.591V161.515V161.44V161.366V161.291V161.217V161.144V161.07V160.997V160.925V160.853V160.781V160.709V160.638V160.567V160.497V160.427V160.357V160.288V160.219V160.15V160.082V160.014V159.947V159.88V159.813V159.747V159.681V159.615V159.55V159.486V159.421V159.357V159.294V159.231V159.168V159.105V159.044V158.982V158.921V158.86V158.8V158.74V158.68V158.621V158.563V158.505V158.447V158.389V158.332V158.276V158.22V158.164V158.109V158.054V157.999V157.945V157.892V157.839V157.786V157.734V157.682V157.631V157.58V157.529V157.479V157.43V157.381V157.332V157.284V157.236V157.188V157.142V157.095V157.049V157.004V156.959V156.914V156.87V156.827V156.784V156.741V156.699V156.657V156.616V156.575V156.535V156.495V156.456V156.417V156.379V156.341V156.303V156.267V156.23V156.194V156.159V156.124V156.09V156.056V156.022V155.99V155.957V155.925V155.894V155.863V155.833V155.803V155.774V155.745V155.717V155.689V155.662V155.635V155.609V155.596L96.5 150.179V163.5V176V177.618L97.9473 176.895L121.5 165.118V175.431L120.992 175.733L118.239 177.37L108.907 182.919ZM95.46 148.468L85.4902 153.868L75.1045 148.467L85.4902 142.652L95.46 148.468ZM98.5 174.382L120.458 163.403L110.479 157.166L98.5 164.078V174.382ZM36.7773 140.873L49 134.877V122.971L27.042 135.487L36.7773 140.873ZM25.0049 136.646L15.4756 142.032L36.4932 154.825L46.5293 148.552L36.2656 142.875L25.0049 136.646ZM47.5 150.304L37.5 156.554V167.321L47.5 161.904V150.304ZM35.5 167.268L2 147.923V108.766L12.5 115.066V142V142.562L12.9805 142.854L35.5 156.562V167.268ZM14.5 115.042V140.286L24 134.917V121.25V108.846L14.5 115.042ZM23.125 107.029L13.4785 101.158L2.99316 107.03L13.4775 113.321L23.125 107.029ZM26 133.779L48.0654 121.202L38.2188 114.917L26 121.833V133.779ZM122.5 134.877L134.723 140.873L144.458 135.487L122.5 122.971V134.877ZM156.024 142.032L146.495 136.646L135.234 142.875L124.971 148.552L135.007 154.825L156.024 142.032ZM134 156.554L124 150.304V161.904L134 167.321V156.554ZM169.5 147.923L136 167.268V156.562L158.52 142.854L159 142.562V142V115.066L169.5 108.766V147.923ZM157 140.286V115.042L147.5 108.846V121.25V134.917L157 140.286ZM158.021 101.158L148.375 107.029L158.022 113.321L168.507 107.03L158.021 101.158ZM123.435 121.202L145.5 133.779V121.833L133.281 114.917L123.435 121.202ZM74.25 132.952V119.329L84 113.728V139.175L74.25 132.952ZM86 139.196V113.71L96 119.335V132.946L86 139.196ZM60.5 112.571L51.5 107.252V118.429L60.5 123.748V112.571ZM110 112.607L120.5 107.147V117.434L110 123.734V112.607ZM24.2607 79.8467L14 74.1929V98.2939L24.4893 92.4199L24.2607 79.8467ZM12 98.259V72.5V70.8071L13.4824 71.6243L25.7324 78.3743L36.5 84.3071V73.0649L2 52.2703V92.4255L12 98.259ZM3.00586 50.5413L37.5166 71.342L47.0342 65.9622L35.4746 58.8298L24.9746 52.3511L23.5664 51.4822L24.9902 50.6394L47.9414 37.0564L37.5127 31.6335L3.00586 50.5413ZM49 38.7539L27.4336 51.5178L36.0361 56.8259L49 49.9004V38.7539ZM157.5 74.1929L147.239 79.8467L147.011 92.4199L157.5 98.2939V74.1929ZM159.5 72.5V98.259L169.5 92.4255V52.2703L135 73.0649V84.3071L145.768 78.3743L158.018 71.6243L159.5 70.8071V72.5ZM133.983 71.342L168.494 50.5413L133.987 31.6335L123.559 37.0564L146.51 50.6394L147.934 51.4822L146.525 52.3511L136.025 58.8298L124.466 65.9622L133.983 71.342ZM144.066 51.5178L122.5 38.7539V49.9004L135.464 56.8259L144.066 51.5178Z" fill="black"/>
</svg>
