<?xml version="1.0" encoding="utf-8"?>
<!-- Generator: Adobe Illustrator 16.0.0, SVG Export Plug-In . SVG Version: 6.00 Build 0)  -->
<!DOCTYPE svg PUBLIC "-//W3C//DTD SVG 1.0//EN" "http://www.w3.org/TR/2001/REC-SVG-20010904/DTD/svg10.dtd">
<svg version="1.0" id="Layer_1" xmlns="http://www.w3.org/2000/svg" xmlns:xlink="http://www.w3.org/1999/xlink" x="0px" y="0px"
	 width="75px" height="75px" viewBox="0 0 75 75" enable-background="new 0 0 75 75" xml:space="preserve">
<g>
	<g>
		<g>
			<path fill="#010101" d="M68.001,27.419l-5.584-1.117c-0.37-1.179-0.844-2.323-1.416-3.417l3.16-4.739
				c0.934-1.4,0.747-3.279-0.442-4.47l-2.396-2.395c-1.189-1.189-3.068-1.376-4.469-0.442l-4.74,3.16
				c-1.093-0.572-2.237-1.046-3.416-1.417l-1.117-5.583C47.252,5.348,45.79,4.15,44.107,4.15h-3.386
				c-1.683,0-3.144,1.197-3.474,2.849l-1.117,5.583c-1.179,0.371-2.323,0.845-3.417,1.417l-4.739-3.16
				c-1.4-0.934-3.28-0.747-4.469,0.442l-2.396,2.395c-1.188,1.19-1.376,3.069-0.441,4.47l3.159,4.739
				c-0.572,1.093-1.046,2.238-1.417,3.417l-5.584,1.117c-1.65,0.329-2.848,1.791-2.848,3.474v3.386c0,1.683,1.197,3.143,2.848,3.474
				l3.616,0.723c0.57,0.114,1.125-0.256,1.239-0.826c0.113-0.57-0.256-1.125-0.826-1.239l-3.616-0.723
				c-0.668-0.133-1.154-0.727-1.154-1.408v-3.386c0-0.683,0.486-1.274,1.154-1.409l6.207-1.241c0.389-0.077,0.701-0.366,0.808-0.749
				c0.404-1.445,0.983-2.841,1.719-4.147c0.194-0.346,0.178-0.771-0.042-1.102l-3.511-5.267c-0.378-0.567-0.304-1.33,0.18-1.812
				l2.395-2.396c0.482-0.482,1.244-0.558,1.812-0.179l5.268,3.511c0.329,0.22,0.755,0.236,1.101,0.042
				c1.307-0.736,2.702-1.314,4.147-1.719c0.383-0.106,0.672-0.419,0.749-0.809l1.242-6.206c0.134-0.669,0.727-1.154,1.408-1.154
				h3.386c0.683,0,1.275,0.485,1.409,1.154l1.241,6.206c0.077,0.39,0.366,0.702,0.749,0.809c1.445,0.404,2.841,0.982,4.147,1.719
				c0.346,0.194,0.771,0.178,1.102-0.042l5.268-3.511c0.566-0.379,1.329-0.304,1.812,0.179l2.395,2.395
				c0.482,0.482,0.558,1.245,0.179,1.813l-3.511,5.267c-0.22,0.33-0.236,0.756-0.042,1.102c0.736,1.307,1.314,2.702,1.719,4.147
				c0.107,0.383,0.42,0.672,0.809,0.749l6.206,1.241c0.67,0.135,1.154,0.727,1.154,1.409v3.386c0,0.682-0.485,1.275-1.154,1.408
				l-6.206,1.242c-0.389,0.077-0.701,0.366-0.809,0.749c-0.404,1.444-0.982,2.84-1.719,4.147c-0.194,0.346-0.178,0.771,0.042,1.101
				l3.511,5.268c0.38,0.566,0.304,1.329-0.179,1.811l-2.396,2.396c-0.481,0.483-1.244,0.557-1.811,0.18l-5.268-3.512
				c-0.485-0.322-1.138-0.191-1.461,0.292s-0.192,1.138,0.292,1.46l5.268,3.512c0.597,0.398,1.28,0.592,1.962,0.592
				c0.915,0,1.825-0.351,2.507-1.033l2.396-2.396c1.189-1.19,1.376-3.069,0.442-4.469l-3.16-4.739
				c0.572-1.094,1.046-2.238,1.417-3.417l5.583-1.117c1.651-0.33,2.849-1.791,2.849-3.474v-3.386
				C70.85,29.21,69.652,27.748,68.001,27.419z"/>
			<path fill="#010101" d="M45.925,40.659h-9.829c-0.581,0-1.054,0.472-1.054,1.054s0.473,1.053,1.054,1.053h9.829
				c0.969,0,1.755,0.787,1.755,1.755v1.404c0,0.969-0.786,1.755-1.755,1.755h-9.829c-0.581,0-1.054,0.472-1.054,1.054
				s0.473,1.053,1.054,1.053h9.829c0.969,0,1.755,0.787,1.755,1.756v1.403c0,0.969-0.786,1.756-1.755,1.756h-9.829
				c-0.581,0-1.054,0.472-1.054,1.053c0,0.582,0.473,1.054,1.054,1.054h9.829c0.969,0,1.755,0.787,1.755,1.754v1.405
				c0,0.967-0.786,1.756-1.755,1.756h-9.829c-0.581,0-1.054,0.471-1.054,1.053s0.473,1.053,1.054,1.053h9.829
				c0.969,0,1.755,0.786,1.755,1.756v1.403c0,0.969-0.786,1.756-1.755,1.756H26.848c-0.995,0-1.933-0.387-2.639-1.089
				c-1.114-1.109-2.585-1.72-4.142-1.72H17.49V54.351c0-0.583-0.472-1.055-1.053-1.055s-1.054,0.472-1.054,1.055v14.041
				c0,0.194-0.157,0.352-0.351,0.352h-3.159V54.351c0-0.583-0.473-1.055-1.054-1.055s-1.053,0.472-1.053,1.055v14.393H6.608
				c-0.194,0-0.352-0.157-0.352-0.352V44.521c0-0.193,0.157-0.351,0.352-0.351h8.425c0.193,0,0.351,0.157,0.351,0.351v5.616
				c0,0.582,0.473,1.055,1.054,1.055s1.053-0.473,1.053-1.055v-3.158h2.539c1.665,0,3.137-1.062,3.664-2.641l0.392-1.177
				c1.215-3.643,1.831-7.437,1.831-11.278c0-0.968,0.787-1.755,1.755-1.755c0.844,0,1.638,0.328,2.233,0.926
				c0.598,0.597,0.926,1.39,0.926,2.233v11.233c0,0.582,0.471,1.054,1.053,1.054s1.054-0.471,1.054-1.054V33.287
				c0-1.405-0.548-2.729-1.543-3.723c-0.994-0.995-2.316-1.543-3.723-1.543c-2.13,0-3.862,1.732-3.862,3.861
				c0,3.613-0.579,7.185-1.723,10.612l-0.392,1.177c-0.239,0.717-0.908,1.2-1.665,1.2H17.49v-0.352c0-1.354-1.103-2.457-2.457-2.457
				H6.608c-1.355,0-2.458,1.103-2.458,2.457v23.871c0,1.354,1.103,2.458,2.458,2.458h8.425c1.354,0,2.457-1.104,2.457-2.458v-0.351
				h2.577c0.996,0,1.94,0.393,2.657,1.105c1.103,1.099,2.567,1.703,4.123,1.703h19.077c2.13,0,3.862-1.733,3.862-3.862v-1.403
				c0-1.105-0.468-2.105-1.214-2.809c0.746-0.705,1.214-1.703,1.214-2.809v-1.405c0-1.105-0.468-2.103-1.214-2.808
				c0.746-0.704,1.214-1.703,1.214-2.809v-1.403c0-1.105-0.468-2.105-1.214-2.809c0.746-0.705,1.214-1.703,1.214-2.809v-1.404
				C49.787,42.393,48.055,40.659,45.925,40.659z"/>
			<path fill="#010101" d="M42.411,37.992c0.276,0,0.556-0.021,0.837-0.065c2.945-0.46,4.967-3.23,4.507-6.175
				c-0.459-2.945-3.229-4.968-6.174-4.508c-2.945,0.46-4.968,3.23-4.508,6.175C37.489,36.083,39.796,37.992,42.411,37.992z
				 M41.906,29.325c1.798-0.278,3.488,0.954,3.769,2.752c0.28,1.797-0.954,3.487-2.752,3.769c-1.797,0.28-3.487-0.954-3.769-2.752
				C38.874,31.296,40.108,29.605,41.906,29.325z"/>
			<path fill="#010101" d="M51.938,42.766c0.276,0,0.554-0.108,0.76-0.325c3.099-3.236,4.479-7.629,3.789-12.052
				c-0.351-2.246-1.199-4.313-2.523-6.144c-0.341-0.472-0.999-0.577-1.47-0.236c-0.473,0.341-0.578,1-0.236,1.471
				c1.126,1.558,1.85,3.319,2.148,5.234c0.588,3.769-0.589,7.512-3.229,10.271c-0.402,0.421-0.388,1.088,0.033,1.489
				C51.414,42.668,51.677,42.766,51.938,42.766z"/>
			<path fill="#010101" d="M51.196,22.688c0.352-0.465,0.259-1.126-0.206-1.476c-3.105-2.341-6.931-3.302-10.771-2.7
				c-4.408,0.688-8.165,3.33-10.308,7.248c-0.278,0.511-0.091,1.15,0.419,1.431c0.16,0.087,0.334,0.129,0.505,0.129
				c0.372,0,0.733-0.198,0.925-0.549c1.825-3.34,5.027-5.592,8.783-6.178c3.272-0.511,6.533,0.307,9.18,2.301
				C50.187,23.245,50.847,23.152,51.196,22.688z"/>
		</g>
	</g>
</g>
</svg>
