<svg width="222" height="231" viewBox="0 0 222 231" fill="none" xmlns="http://www.w3.org/2000/svg">
<path d="M24 53C24 59.6274 18.6274 65 12 65C5.37258 65 0 59.6274 0 53C0 46.3726 5.37258 41 12 41C18.6274 41 24 46.3726 24 53ZM7.57081 53C7.57081 55.4462 9.55383 57.4292 12 57.4292C14.4462 57.4292 16.4292 55.4462 16.4292 53C16.4292 50.5538 14.4462 48.5708 12 48.5708C9.55383 48.5708 7.57081 50.5538 7.57081 53Z" fill="#E5E5E5"/>
<path d="M24 165C24 171.627 18.6274 177 12 177C5.37258 177 0 171.627 0 165C0 158.373 5.37258 153 12 153C18.6274 153 24 158.373 24 165ZM7.57081 165C7.57081 167.446 9.55383 169.429 12 169.429C14.4462 169.429 16.4292 167.446 16.4292 165C16.4292 162.554 14.4462 160.571 12 160.571C9.55383 160.571 7.57081 162.554 7.57081 165Z" fill="#E5E5E5"/>
<circle cx="210" cy="110" r="12" fill="#E5E5E5"/>
<path d="M78 92C78 82.6112 85.6112 75 95 75H165C174.389 75 182 82.6112 182 92V96C182 105.389 174.389 113 165 113H95C85.6112 113 78 105.389 78 96V92Z" fill="#E5E5E5"/>
<path d="M170.253 80.9829C171.03 79.6558 172.952 79.6661 173.715 81.0014L190.29 110.008C191.052 111.341 190.089 113 188.554 113H154.989C153.444 113 152.483 111.322 153.263 109.989L170.253 80.9829Z" fill="#E5E5E5"/>
<path d="M178.5 147C178.5 137.611 170.889 130 161.5 130H54.5566C45.1677 130 37.5566 137.611 37.5566 147V151C37.5566 160.389 45.1677 168 54.5566 168H161.5C170.889 168 178.5 160.389 178.5 151V147Z" fill="#E5E5E5"/>
<path d="M49.3037 135.983C48.5264 134.656 46.6045 134.666 45.8415 136.001L29.2664 165.008C28.5046 166.341 29.4673 168 31.0029 168H64.5673C66.1125 168 67.074 166.322 66.2931 164.989L49.3037 135.983Z" fill="#E5E5E5"/>
<path d="M171 23.7105C171 10.6156 161.398 0 149.553 0H61.2419C49.397 0 39.7949 10.6156 39.7949 23.7105V29.2895C39.7949 42.3844 49.397 53 61.2419 53H149.553C161.398 53 171 42.3844 171 29.2895V23.7105Z" fill="#E5E5E5"/>
<path d="M54.6149 8.3446C53.6343 6.49362 51.2097 6.50797 50.247 8.37044L29.3362 48.8266C28.375 50.6862 29.5895 53 31.5269 53H73.8713C75.8207 53 77.0337 50.6603 76.0485 48.8007L54.6149 8.3446Z" fill="#E5E5E5"/>
<line x1="66.5" y1="18.5" x2="148.5" y2="18.5" stroke="white" stroke-width="5" stroke-linecap="round" stroke-linejoin="round"/>
<line x1="66.5" y1="35.5" x2="148.5" y2="35.5" stroke="white" stroke-width="5" stroke-linecap="round" stroke-linejoin="round"/>
<circle cx="210" cy="219" r="12" fill="#E5E5E5"/>
<path d="M78 201C78 191.611 85.6112 184 95 184H165C174.389 184 182 191.611 182 201V205C182 214.389 174.389 222 165 222H95C85.6112 222 78 214.389 78 205V201Z" fill="#E5E5E5"/>
<path d="M170.253 189.983C171.03 188.656 172.952 188.666 173.715 190.001L190.29 219.008C191.052 220.341 190.089 222 188.554 222H154.989C153.444 222 152.483 220.322 153.263 218.989L170.253 189.983Z" fill="#E5E5E5"/>
<line x1="99.5" y1="203.5" x2="162.5" y2="203.5" stroke="white" stroke-width="5" stroke-linecap="round" stroke-linejoin="round"/>
<line x1="99.5" y1="94.5" x2="162.5" y2="94.5" stroke="white" stroke-width="5" stroke-linecap="round" stroke-linejoin="round"/>
<line x1="64.5" y1="148.5" x2="152.5" y2="148.5" stroke="white" stroke-width="5" stroke-linecap="round" stroke-linejoin="round"/>
</svg>
